<?xml version="1.0" encoding="utf-8" standalone="no"?>
<!DOCTYPE svg PUBLIC "-//W3C//DTD SVG 1.1//EN"
  "http://www.w3.org/Graphics/SVG/1.1/DTD/svg11.dtd">
<!-- Created with matplotlib (http://matplotlib.org/) -->
<svg height="432pt" version="1.1" viewBox="0 0 576 432" width="576pt" xmlns="http://www.w3.org/2000/svg" xmlns:xlink="http://www.w3.org/1999/xlink">
 <defs>
  <style type="text/css">
*{stroke-linecap:butt;stroke-linejoin:round;stroke-miterlimit:100000;}
  </style>
 </defs>
 <g id="figure_1">
  <g id="patch_1">
   <path d="M 0 432 
L 576 432 
L 576 0 
L 0 0 
z
" style="fill:#ffffff;"/>
  </g>
  <g id="axes_1">
   <g id="patch_2">
    <path d="M 56.7225 386.64 
L 555.44625 386.64 
L 555.44625 28.76 
L 56.7225 28.76 
z
" style="fill:#ffffff;"/>
   </g>
   <g id="line2d_1">
    <path clip-path="url(#pad1ef1dbc6)" d="M 56.7225 375.644099 
L 69.190594 375.644099 
L 81.658687 375.625709 
L 94.126781 375.341977 
L 106.594875 372.754026 
L 119.062969 371.447374 
L 131.531062 370.599845 
L 143.999156 369.801868 
L 156.46725 367.586204 
L 168.935344 367.418304 
L 181.403437 367.024084 
L 193.871531 365.573429 
L 206.339625 365.362335 
L 218.807719 363.657306 
L 231.275813 361.481938 
L 243.743906 360.872725 
L 256.212 359.998232 
L 268.680094 359.921594 
L 281.148188 358.181875 
L 293.616281 356.357071 
L 306.084375 355.670979 
L 318.552469 347.679936 
L 331.020563 339.090296 
L 343.488656 334.8218 
L 355.95675 333.100979 
L 368.424844 328.940651 
L 380.892938 317.401881 
L 393.361031 305.620788 
L 405.829125 292.286051 
L 418.297219 283.981851 
L 430.765312 246.473936 
L 443.233406 226.287858 
L 455.7015 152.859723 
L 468.169594 121.923047 
L 480.637688 99.618645 
L 493.105781 81.012662 
L 505.573875 68.351196 
" style="fill:none;stroke:#000000;stroke-linecap:square;"/>
   </g>
   <g id="line2d_2">
    <path clip-path="url(#pad1ef1dbc6)" d="M 56.7225 375.44568 
L 69.190594 375.44568 
L 81.658687 375.124885 
L 94.126781 374.221106 
L 106.594875 372.736384 
L 119.062969 370.085628 
L 131.531062 369.416758 
L 143.999156 368.949241 
L 156.46725 368.621989 
L 168.935344 367.619578 
L 181.403437 367.10421 
L 193.871531 366.357028 
L 206.339625 364.750805 
L 218.807719 363.644787 
L 231.275813 360.865367 
L 243.743906 359.704221 
L 256.212 359.589732 
L 268.680094 359.429723 
L 281.148188 358.082258 
L 293.616281 356.766933 
L 306.084375 353.068223 
L 318.552469 348.290321 
L 331.020563 336.323011 
L 343.488656 336.264244 
L 355.95675 331.586911 
L 368.424844 328.539148 
L 380.892938 316.629796 
L 393.361031 305.250558 
L 405.829125 291.749324 
L 418.297219 284.66868 
L 430.765312 247.01383 
L 443.233406 226.849307 
L 455.7015 154.374787 
L 468.169594 122.336558 
L 480.637688 99.463512 
L 493.105781 82.43935 
L 505.573875 69.281504 
" style="fill:none;stroke:#ff0000;stroke-linecap:square;"/>
   </g>
   <g id="line2d_3">
    <path clip-path="url(#pad1ef1dbc6)" d="M 56.7225 375.578048 
L 69.190594 375.578048 
L 81.658687 374.604885 
L 94.126781 373.275613 
L 106.594875 371.859584 
L 119.062969 371.578316 
L 131.531062 371.243109 
L 143.999156 369.867751 
L 156.46725 369.255574 
L 168.935344 369.196984 
L 181.403437 368.451131 
L 193.871531 365.487092 
L 206.339625 364.527652 
L 218.807719 364.294062 
L 231.275813 361.287785 
L 243.743906 360.572975 
L 256.212 360.101676 
L 268.680094 359.839779 
L 281.148188 357.763874 
L 293.616281 355.981273 
L 306.084375 355.407345 
L 318.552469 347.520788 
L 331.020563 338.573533 
L 343.488656 334.193631 
L 355.95675 333.393216 
L 368.424844 329.698473 
L 380.892938 316.7669 
L 393.361031 303.113563 
L 405.829125 292.65712 
L 418.297219 284.438142 
L 430.765312 244.493042 
L 443.233406 227.784168 
L 455.7015 153.656132 
L 468.169594 122.09639 
L 480.637688 99.790694 
L 493.105781 82.015988 
L 505.573875 68.866909 
" style="fill:none;stroke:#bfbf00;stroke-linecap:square;"/>
   </g>
   <g id="line2d_4">
    <path clip-path="url(#pad1ef1dbc6)" d="M 56.7225 375.73294 
L 69.190594 375.73294 
L 81.658687 374.48739 
L 94.126781 373.589266 
L 106.594875 373.430497 
L 119.062969 373.163943 
L 131.531062 372.976405 
L 143.999156 369.557676 
L 156.46725 367.862652 
L 168.935344 367.37036 
L 181.403437 367.271232 
L 193.871531 366.906978 
L 206.339625 365.699222 
L 218.807719 365.254178 
L 231.275813 364.543777 
L 243.743906 362.318223 
L 256.212 362.007937 
L 268.680094 360.837944 
L 281.148188 359.979356 
L 293.616281 359.232023 
L 306.084375 359.000324 
L 318.552469 357.439465 
L 331.020563 354.758741 
L 343.488656 341.498824 
L 355.95675 336.550182 
L 368.424844 334.847062 
L 380.892938 334.33427 
L 393.361031 320.429904 
L 405.829125 310.816916 
L 418.297219 292.576086 
L 430.765312 291.650176 
L 443.233406 271.984239 
L 455.7015 226.479648 
L 468.169594 172.746918 
L 480.637688 133.053375 
L 493.105781 111.77844 
L 505.573875 109.089088 
" style="fill:none;stroke:#008000;stroke-linecap:square;"/>
   </g>
   <g id="line2d_5">
    <path clip-path="url(#pad1ef1dbc6)" d="M 56.7225 375.254414 
L 69.190594 375.254414 
L 81.658687 375.172472 
L 94.126781 375.107626 
L 106.594875 374.23675 
L 119.062969 371.134477 
L 131.531062 369.623554 
L 143.999156 369.499053 
L 156.46725 368.960868 
L 168.935344 367.500661 
L 181.403437 366.257208 
L 193.871531 366.140347 
L 206.339625 364.799911 
L 218.807719 364.404841 
L 231.275813 363.78933 
L 243.743906 362.9619 
L 256.212 361.893218 
L 268.680094 360.194423 
L 281.148188 359.758827 
L 293.616281 359.145983 
L 306.084375 357.523213 
L 318.552469 354.73598 
L 331.020563 353.248832 
L 343.488656 346.731269 
L 355.95675 340.283871 
L 368.424844 337.147888 
L 380.892938 323.875453 
L 393.361031 321.316088 
L 405.829125 309.022006 
L 418.297219 299.705583 
L 430.765312 299.699884 
L 443.233406 277.793495 
L 455.7015 263.932214 
L 468.169594 165.972009 
L 480.637688 133.265822 
L 493.105781 114.229609 
L 505.573875 108.728972 
" style="fill:none;stroke:#00bfbf;stroke-linecap:square;"/>
   </g>
   <g id="line2d_6">
    <path clip-path="url(#pad1ef1dbc6)" d="M 56.7225 375.762741 
L 69.190594 375.762741 
L 81.658687 374.392155 
L 94.126781 371.215406 
L 106.594875 370.636349 
L 119.062969 370.210636 
L 131.531062 367.406648 
L 143.999156 366.305364 
L 156.46725 366.268057 
L 168.935344 364.671498 
L 181.403437 364.617383 
L 193.871531 364.177284 
L 206.339625 363.779634 
L 218.807719 363.034076 
L 231.275813 362.579434 
L 243.743906 362.444001 
L 256.212 360.959286 
L 268.680094 360.936663 
L 281.148188 359.105501 
L 293.616281 359.046322 
L 306.084375 357.323838 
L 318.552469 354.909372 
L 331.020563 349.0691 
L 343.488656 347.470616 
L 355.95675 338.451928 
L 368.424844 338.173266 
L 380.892938 337.185578 
L 393.361031 328.181153 
L 405.829125 313.058499 
L 418.297219 299.295553 
L 430.765312 294.828644 
L 443.233406 290.659625 
L 455.7015 276.97472 
L 468.169594 271.464678 
L 480.637688 265.969519 
L 493.105781 187.318219 
L 505.573875 182.026312 
L 518.041969 180.303512 
L 530.510063 132.478761 
L 542.978156 114.196452 
L 555.44625 108.169271 
" style="fill:none;stroke:#ff00ff;stroke-linecap:square;"/>
   </g>
   <g id="line2d_7">
    <path clip-path="url(#pad1ef1dbc6)" d="M 56.7225 375.724993 
L 69.190594 375.724993 
L 81.658687 374.598762 
L 94.126781 373.971749 
L 106.594875 371.541712 
L 119.062969 370.344109 
L 131.531062 370.070019 
L 143.999156 369.826119 
L 156.46725 368.67841 
L 168.935344 368.000421 
L 181.403437 366.114414 
L 193.871531 365.077934 
L 206.339625 364.569346 
L 218.807719 364.514604 
L 231.275813 364.451919 
L 243.743906 364.446858 
L 256.212 360.292236 
L 268.680094 360.079829 
L 281.148188 359.996662 
L 293.616281 359.655795 
L 306.084375 354.420367 
L 318.552469 354.360112 
L 331.020563 349.90015 
L 343.488656 344.073209 
L 355.95675 338.783198 
L 368.424844 337.723713 
L 380.892938 335.591441 
L 393.361031 326.343234 
L 405.829125 309.935837 
L 418.297219 300.633754 
L 430.765312 293.405604 
L 443.233406 291.508093 
L 455.7015 280.125988 
L 468.169594 271.264719 
L 480.637688 265.765905 
L 493.105781 187.004957 
L 505.573875 180.902739 
L 518.041969 180.501918 
L 530.510063 133.204449 
L 542.978156 114.413907 
L 555.44625 108.5332 
" style="fill:none;stroke:#ff7f50;stroke-linecap:square;"/>
   </g>
   <g id="line2d_8">
    <path clip-path="url(#pad1ef1dbc6)" d="M 56.7225 374.242483 
L 69.190594 374.242483 
L 81.658687 373.232682 
L 94.126781 373.152655 
L 106.594875 371.910272 
L 119.062969 371.233704 
L 131.531062 370.311473 
L 143.999156 368.370785 
L 156.46725 367.474172 
L 168.935344 366.642795 
L 181.403437 366.093123 
L 193.871531 365.062619 
L 206.339625 364.64714 
L 218.807719 363.905838 
L 231.275813 361.548179 
L 243.743906 361.328082 
L 256.212 360.739129 
L 268.680094 359.253964 
L 281.148188 357.966028 
L 293.616281 355.484988 
L 306.084375 355.440076 
L 318.552469 354.95573 
L 331.020563 349.898453 
L 343.488656 345.426498 
L 355.95675 338.575361 
L 368.424844 338.340342 
L 380.892938 335.860643 
L 393.361031 326.522784 
L 405.829125 311.67875 
L 418.297219 299.045603 
L 430.765312 294.18951 
L 443.233406 292.315595 
L 455.7015 288.565965 
L 468.169594 269.812518 
L 480.637688 267.410394 
L 493.105781 190.068423 
L 505.573875 188.937713 
L 518.041969 181.410617 
L 530.510063 133.45256 
L 542.978156 114.479034 
L 555.44625 109.028769 
" style="fill:none;stroke:#0000ff;stroke-linecap:square;"/>
   </g>
   <g id="line2d_9">
    <path clip-path="url(#pad1ef1dbc6)" d="M 56.7225 374.223271 
L 69.190594 374.223271 
L 81.658687 373.657036 
L 94.126781 372.712698 
L 106.594875 371.110158 
L 119.062969 368.628458 
L 131.531062 368.091498 
L 143.999156 367.550391 
L 156.46725 367.446539 
L 168.935344 366.385675 
L 181.403437 365.0724 
L 193.871531 364.721387 
L 206.339625 363.925228 
L 218.807719 363.716955 
L 231.275813 362.77089 
L 243.743906 362.050327 
L 256.212 361.426148 
L 268.680094 359.298996 
L 281.148188 358.018712 
L 293.616281 356.837192 
L 306.084375 356.775329 
L 318.552469 355.977296 
L 331.020563 349.653127 
L 343.488656 345.19643 
L 355.95675 340.210461 
L 368.424844 338.99915 
L 380.892938 335.876151 
L 393.361031 325.600599 
L 405.829125 310.232278 
L 418.297219 299.585894 
L 430.765312 294.93033 
L 443.233406 292.893693 
L 455.7015 289.268347 
L 468.169594 271.051828 
L 480.637688 265.586454 
L 493.105781 189.391833 
L 505.573875 188.566197 
L 518.041969 181.761257 
L 530.510063 133.538502 
L 542.978156 113.884864 
L 555.44625 109.845326 
" style="fill:none;stroke:#7fff00;stroke-linecap:square;"/>
   </g>
   <g id="line2d_10">
    <path clip-path="url(#pad1ef1dbc6)" d="M 56.7225 375.218035 
L 69.190594 375.218035 
L 81.658687 371.268596 
L 94.126781 370.57279 
L 106.594875 369.174961 
L 119.062969 368.699151 
L 131.531062 368.000089 
L 143.999156 367.898691 
L 156.46725 366.61376 
L 168.935344 366.309803 
L 181.403437 366.046159 
L 193.871531 363.860774 
L 206.339625 362.206401 
L 218.807719 361.774781 
L 231.275813 360.760061 
L 243.743906 359.910048 
L 256.212 359.320714 
L 268.680094 357.540489 
L 281.148188 356.789447 
L 293.616281 355.184475 
L 306.084375 352.675436 
L 318.552469 351.659521 
L 331.020563 343.759643 
L 343.488656 340.820232 
L 355.95675 336.982971 
L 368.424844 334.049407 
L 380.892938 333.905531 
L 393.361031 325.242353 
L 405.829125 310.524679 
L 418.297219 296.52232 
L 430.765312 289.621944 
L 443.233406 284.570697 
L 455.7015 280.150398 
L 468.169594 272.151684 
L 480.637688 267.950271 
L 493.105781 186.857277 
L 505.573875 181.919044 
L 518.041969 180.700678 
L 530.510063 125.413629 
L 542.978156 114.957532 
L 555.44625 113.969231 
" style="fill:none;stroke:#8b4513;stroke-linecap:square;"/>
   </g>
   <g id="line2d_11">
    <path clip-path="url(#pad1ef1dbc6)" d="M 56.7225 373.531488 
L 69.190594 373.531488 
L 81.658687 371.436881 
L 94.126781 370.841551 
L 106.594875 370.256112 
L 119.062969 367.541752 
L 131.531062 366.244831 
L 143.999156 365.582708 
L 156.46725 365.249986 
L 168.935344 364.426803 
L 181.403437 364.227632 
L 193.871531 364.012164 
L 206.339625 363.529213 
L 218.807719 361.082474 
L 231.275813 359.63048 
L 243.743906 359.081177 
L 256.212 358.534351 
L 268.680094 357.083545 
L 281.148188 355.61177 
L 293.616281 354.048887 
L 306.084375 354.012113 
L 318.552469 348.702942 
L 331.020563 341.441595 
L 343.488656 341.275984 
L 355.95675 333.645794 
L 368.424844 331.377211 
L 380.892938 331.33069 
L 393.361031 328.763354 
L 405.829125 320.313136 
L 418.297219 305.165954 
L 430.765312 292.946076 
L 443.233406 284.850884 
L 455.7015 283.799518 
L 468.169594 283.722755 
L 480.637688 263.274294 
L 493.105781 201.53691 
L 505.573875 182.107654 
L 518.041969 180.288952 
L 530.510063 149.411516 
L 542.978156 118.23736 
L 555.44625 116.864673 
" style="fill:none;stroke:#8b008b;stroke-linecap:square;"/>
   </g>
   <g id="patch_3">
    <path d="M 555.44625 386.64 
L 555.44625 28.76 
" style="fill:none;stroke:#000000;stroke-linecap:square;stroke-linejoin:miter;"/>
   </g>
   <g id="patch_4">
    <path d="M 56.7225 386.64 
L 555.44625 386.64 
" style="fill:none;stroke:#000000;stroke-linecap:square;stroke-linejoin:miter;"/>
   </g>
   <g id="patch_5">
    <path d="M 56.7225 28.76 
L 555.44625 28.76 
" style="fill:none;stroke:#000000;stroke-linecap:square;stroke-linejoin:miter;"/>
   </g>
   <g id="patch_6">
    <path d="M 56.7225 386.64 
L 56.7225 28.76 
" style="fill:none;stroke:#000000;stroke-linecap:square;stroke-linejoin:miter;"/>
   </g>
   <g id="matplotlib.axis_1">
    <g id="xtick_1">
     <g id="line2d_12">
      <defs>
       <path d="M 0 0 
L 0 -4 
" id="m397de09e61" style="stroke:#000000;stroke-width:0.5;"/>
      </defs>
      <g>
       <use style="stroke:#000000;stroke-width:0.5;" x="56.7225" xlink:href="#m397de09e61" y="386.64"/>
      </g>
     </g>
     <g id="line2d_13">
      <defs>
       <path d="M 0 0 
L 0 4 
" id="m7315bb9883" style="stroke:#000000;stroke-width:0.5;"/>
      </defs>
      <g>
       <use style="stroke:#000000;stroke-width:0.5;" x="56.7225" xlink:href="#m7315bb9883" y="28.76"/>
      </g>
     </g>
     <g id="text_1">
      <!-- 0 -->
      <defs>
       <path d="M 31.78125 66.40625 
Q 24.171875 66.40625 20.328125 58.90625 
Q 16.5 51.421875 16.5 36.375 
Q 16.5 21.390625 20.328125 13.890625 
Q 24.171875 6.390625 31.78125 6.390625 
Q 39.453125 6.390625 43.28125 13.890625 
Q 47.125 21.390625 47.125 36.375 
Q 47.125 51.421875 43.28125 58.90625 
Q 39.453125 66.40625 31.78125 66.40625 
M 31.78125 74.21875 
Q 44.046875 74.21875 50.515625 64.515625 
Q 56.984375 54.828125 56.984375 36.375 
Q 56.984375 17.96875 50.515625 8.265625 
Q 44.046875 -1.421875 31.78125 -1.421875 
Q 19.53125 -1.421875 13.0625 8.265625 
Q 6.59375 17.96875 6.59375 36.375 
Q 6.59375 54.828125 13.0625 64.515625 
Q 19.53125 74.21875 31.78125 74.21875 
" id="BitstreamVeraSans-Roman-30"/>
      </defs>
      <g transform="translate(52.905 399.758125)scale(0.12 -0.12)">
       <use xlink:href="#BitstreamVeraSans-Roman-30"/>
      </g>
     </g>
    </g>
    <g id="xtick_2">
     <g id="line2d_14">
      <g>
       <use style="stroke:#000000;stroke-width:0.5;" x="119.06296875" xlink:href="#m397de09e61" y="386.64"/>
      </g>
     </g>
     <g id="line2d_15">
      <g>
       <use style="stroke:#000000;stroke-width:0.5;" x="119.06296875" xlink:href="#m7315bb9883" y="28.76"/>
      </g>
     </g>
     <g id="text_2">
      <!-- 5 -->
      <defs>
       <path d="M 10.796875 72.90625 
L 49.515625 72.90625 
L 49.515625 64.59375 
L 19.828125 64.59375 
L 19.828125 46.734375 
Q 21.96875 47.46875 24.109375 47.828125 
Q 26.265625 48.1875 28.421875 48.1875 
Q 40.625 48.1875 47.75 41.5 
Q 54.890625 34.8125 54.890625 23.390625 
Q 54.890625 11.625 47.5625 5.09375 
Q 40.234375 -1.421875 26.90625 -1.421875 
Q 22.3125 -1.421875 17.546875 -0.640625 
Q 12.796875 0.140625 7.71875 1.703125 
L 7.71875 11.625 
Q 12.109375 9.234375 16.796875 8.0625 
Q 21.484375 6.890625 26.703125 6.890625 
Q 35.15625 6.890625 40.078125 11.328125 
Q 45.015625 15.765625 45.015625 23.390625 
Q 45.015625 31 40.078125 35.4375 
Q 35.15625 39.890625 26.703125 39.890625 
Q 22.75 39.890625 18.8125 39.015625 
Q 14.890625 38.140625 10.796875 36.28125 
z
" id="BitstreamVeraSans-Roman-35"/>
      </defs>
      <g transform="translate(115.24546875 399.758125)scale(0.12 -0.12)">
       <use xlink:href="#BitstreamVeraSans-Roman-35"/>
      </g>
     </g>
    </g>
    <g id="xtick_3">
     <g id="line2d_16">
      <g>
       <use style="stroke:#000000;stroke-width:0.5;" x="181.4034375" xlink:href="#m397de09e61" y="386.64"/>
      </g>
     </g>
     <g id="line2d_17">
      <g>
       <use style="stroke:#000000;stroke-width:0.5;" x="181.4034375" xlink:href="#m7315bb9883" y="28.76"/>
      </g>
     </g>
     <g id="text_3">
      <!-- 10 -->
      <defs>
       <path d="M 12.40625 8.296875 
L 28.515625 8.296875 
L 28.515625 63.921875 
L 10.984375 60.40625 
L 10.984375 69.390625 
L 28.421875 72.90625 
L 38.28125 72.90625 
L 38.28125 8.296875 
L 54.390625 8.296875 
L 54.390625 0 
L 12.40625 0 
z
" id="BitstreamVeraSans-Roman-31"/>
      </defs>
      <g transform="translate(173.7684375 399.758125)scale(0.12 -0.12)">
       <use xlink:href="#BitstreamVeraSans-Roman-31"/>
       <use x="63.623046875" xlink:href="#BitstreamVeraSans-Roman-30"/>
      </g>
     </g>
    </g>
    <g id="xtick_4">
     <g id="line2d_18">
      <g>
       <use style="stroke:#000000;stroke-width:0.5;" x="243.74390625" xlink:href="#m397de09e61" y="386.64"/>
      </g>
     </g>
     <g id="line2d_19">
      <g>
       <use style="stroke:#000000;stroke-width:0.5;" x="243.74390625" xlink:href="#m7315bb9883" y="28.76"/>
      </g>
     </g>
     <g id="text_4">
      <!-- 15 -->
      <g transform="translate(236.10890625 399.758125)scale(0.12 -0.12)">
       <use xlink:href="#BitstreamVeraSans-Roman-31"/>
       <use x="63.623046875" xlink:href="#BitstreamVeraSans-Roman-35"/>
      </g>
     </g>
    </g>
    <g id="xtick_5">
     <g id="line2d_20">
      <g>
       <use style="stroke:#000000;stroke-width:0.5;" x="306.084375" xlink:href="#m397de09e61" y="386.64"/>
      </g>
     </g>
     <g id="line2d_21">
      <g>
       <use style="stroke:#000000;stroke-width:0.5;" x="306.084375" xlink:href="#m7315bb9883" y="28.76"/>
      </g>
     </g>
     <g id="text_5">
      <!-- 20 -->
      <defs>
       <path d="M 19.1875 8.296875 
L 53.609375 8.296875 
L 53.609375 0 
L 7.328125 0 
L 7.328125 8.296875 
Q 12.9375 14.109375 22.625 23.890625 
Q 32.328125 33.6875 34.8125 36.53125 
Q 39.546875 41.84375 41.421875 45.53125 
Q 43.3125 49.21875 43.3125 52.78125 
Q 43.3125 58.59375 39.234375 62.25 
Q 35.15625 65.921875 28.609375 65.921875 
Q 23.96875 65.921875 18.8125 64.3125 
Q 13.671875 62.703125 7.8125 59.421875 
L 7.8125 69.390625 
Q 13.765625 71.78125 18.9375 73 
Q 24.125 74.21875 28.421875 74.21875 
Q 39.75 74.21875 46.484375 68.546875 
Q 53.21875 62.890625 53.21875 53.421875 
Q 53.21875 48.921875 51.53125 44.890625 
Q 49.859375 40.875 45.40625 35.40625 
Q 44.1875 33.984375 37.640625 27.21875 
Q 31.109375 20.453125 19.1875 8.296875 
" id="BitstreamVeraSans-Roman-32"/>
      </defs>
      <g transform="translate(298.449375 399.758125)scale(0.12 -0.12)">
       <use xlink:href="#BitstreamVeraSans-Roman-32"/>
       <use x="63.623046875" xlink:href="#BitstreamVeraSans-Roman-30"/>
      </g>
     </g>
    </g>
    <g id="xtick_6">
     <g id="line2d_22">
      <g>
       <use style="stroke:#000000;stroke-width:0.5;" x="368.42484375" xlink:href="#m397de09e61" y="386.64"/>
      </g>
     </g>
     <g id="line2d_23">
      <g>
       <use style="stroke:#000000;stroke-width:0.5;" x="368.42484375" xlink:href="#m7315bb9883" y="28.76"/>
      </g>
     </g>
     <g id="text_6">
      <!-- 25 -->
      <g transform="translate(360.78984375 399.758125)scale(0.12 -0.12)">
       <use xlink:href="#BitstreamVeraSans-Roman-32"/>
       <use x="63.623046875" xlink:href="#BitstreamVeraSans-Roman-35"/>
      </g>
     </g>
    </g>
    <g id="xtick_7">
     <g id="line2d_24">
      <g>
       <use style="stroke:#000000;stroke-width:0.5;" x="430.7653125" xlink:href="#m397de09e61" y="386.64"/>
      </g>
     </g>
     <g id="line2d_25">
      <g>
       <use style="stroke:#000000;stroke-width:0.5;" x="430.7653125" xlink:href="#m7315bb9883" y="28.76"/>
      </g>
     </g>
     <g id="text_7">
      <!-- 30 -->
      <defs>
       <path d="M 40.578125 39.3125 
Q 47.65625 37.796875 51.625 33 
Q 55.609375 28.21875 55.609375 21.1875 
Q 55.609375 10.40625 48.1875 4.484375 
Q 40.765625 -1.421875 27.09375 -1.421875 
Q 22.515625 -1.421875 17.65625 -0.515625 
Q 12.796875 0.390625 7.625 2.203125 
L 7.625 11.71875 
Q 11.71875 9.328125 16.59375 8.109375 
Q 21.484375 6.890625 26.8125 6.890625 
Q 36.078125 6.890625 40.9375 10.546875 
Q 45.796875 14.203125 45.796875 21.1875 
Q 45.796875 27.640625 41.28125 31.265625 
Q 36.765625 34.90625 28.71875 34.90625 
L 20.21875 34.90625 
L 20.21875 43.015625 
L 29.109375 43.015625 
Q 36.375 43.015625 40.234375 45.921875 
Q 44.09375 48.828125 44.09375 54.296875 
Q 44.09375 59.90625 40.109375 62.90625 
Q 36.140625 65.921875 28.71875 65.921875 
Q 24.65625 65.921875 20.015625 65.03125 
Q 15.375 64.15625 9.8125 62.3125 
L 9.8125 71.09375 
Q 15.4375 72.65625 20.34375 73.4375 
Q 25.25 74.21875 29.59375 74.21875 
Q 40.828125 74.21875 47.359375 69.109375 
Q 53.90625 64.015625 53.90625 55.328125 
Q 53.90625 49.265625 50.4375 45.09375 
Q 46.96875 40.921875 40.578125 39.3125 
" id="BitstreamVeraSans-Roman-33"/>
      </defs>
      <g transform="translate(423.1303125 399.758125)scale(0.12 -0.12)">
       <use xlink:href="#BitstreamVeraSans-Roman-33"/>
       <use x="63.623046875" xlink:href="#BitstreamVeraSans-Roman-30"/>
      </g>
     </g>
    </g>
    <g id="xtick_8">
     <g id="line2d_26">
      <g>
       <use style="stroke:#000000;stroke-width:0.5;" x="493.10578125" xlink:href="#m397de09e61" y="386.64"/>
      </g>
     </g>
     <g id="line2d_27">
      <g>
       <use style="stroke:#000000;stroke-width:0.5;" x="493.10578125" xlink:href="#m7315bb9883" y="28.76"/>
      </g>
     </g>
     <g id="text_8">
      <!-- 35 -->
      <g transform="translate(485.47078125 399.758125)scale(0.12 -0.12)">
       <use xlink:href="#BitstreamVeraSans-Roman-33"/>
       <use x="63.623046875" xlink:href="#BitstreamVeraSans-Roman-35"/>
      </g>
     </g>
    </g>
    <g id="xtick_9">
     <g id="line2d_28">
      <g>
       <use style="stroke:#000000;stroke-width:0.5;" x="555.44625" xlink:href="#m397de09e61" y="386.64"/>
      </g>
     </g>
     <g id="line2d_29">
      <g>
       <use style="stroke:#000000;stroke-width:0.5;" x="555.44625" xlink:href="#m7315bb9883" y="28.76"/>
      </g>
     </g>
     <g id="text_9">
      <!-- 40 -->
      <defs>
       <path d="M 37.796875 64.3125 
L 12.890625 25.390625 
L 37.796875 25.390625 
z
M 35.203125 72.90625 
L 47.609375 72.90625 
L 47.609375 25.390625 
L 58.015625 25.390625 
L 58.015625 17.1875 
L 47.609375 17.1875 
L 47.609375 0 
L 37.796875 0 
L 37.796875 17.1875 
L 4.890625 17.1875 
L 4.890625 26.703125 
z
" id="BitstreamVeraSans-Roman-34"/>
      </defs>
      <g transform="translate(547.81125 399.758125)scale(0.12 -0.12)">
       <use xlink:href="#BitstreamVeraSans-Roman-34"/>
       <use x="63.623046875" xlink:href="#BitstreamVeraSans-Roman-30"/>
      </g>
     </g>
    </g>
    <g id="text_10">
     <!-- Accumulated score -->
     <defs>
      <path d="M 9.421875 75.984375 
L 18.40625 75.984375 
L 18.40625 0 
L 9.421875 0 
z
" id="BitstreamVeraSans-Roman-6c"/>
      <path id="BitstreamVeraSans-Roman-20"/>
      <path d="M 18.3125 70.21875 
L 18.3125 54.6875 
L 36.8125 54.6875 
L 36.8125 47.703125 
L 18.3125 47.703125 
L 18.3125 18.015625 
Q 18.3125 11.328125 20.140625 9.421875 
Q 21.96875 7.515625 27.59375 7.515625 
L 36.8125 7.515625 
L 36.8125 0 
L 27.59375 0 
Q 17.1875 0 13.234375 3.875 
Q 9.28125 7.765625 9.28125 18.015625 
L 9.28125 47.703125 
L 2.6875 47.703125 
L 2.6875 54.6875 
L 9.28125 54.6875 
L 9.28125 70.21875 
z
" id="BitstreamVeraSans-Roman-74"/>
      <path d="M 52 44.1875 
Q 55.375 50.25 60.0625 53.125 
Q 64.75 56 71.09375 56 
Q 79.640625 56 84.28125 50.015625 
Q 88.921875 44.046875 88.921875 33.015625 
L 88.921875 0 
L 79.890625 0 
L 79.890625 32.71875 
Q 79.890625 40.578125 77.09375 44.375 
Q 74.3125 48.1875 68.609375 48.1875 
Q 61.625 48.1875 57.5625 43.546875 
Q 53.515625 38.921875 53.515625 30.90625 
L 53.515625 0 
L 44.484375 0 
L 44.484375 32.71875 
Q 44.484375 40.625 41.703125 44.40625 
Q 38.921875 48.1875 33.109375 48.1875 
Q 26.21875 48.1875 22.15625 43.53125 
Q 18.109375 38.875 18.109375 30.90625 
L 18.109375 0 
L 9.078125 0 
L 9.078125 54.6875 
L 18.109375 54.6875 
L 18.109375 46.1875 
Q 21.1875 51.21875 25.484375 53.609375 
Q 29.78125 56 35.6875 56 
Q 41.65625 56 45.828125 52.96875 
Q 50 49.953125 52 44.1875 
" id="BitstreamVeraSans-Roman-6d"/>
      <path d="M 44.28125 53.078125 
L 44.28125 44.578125 
Q 40.484375 46.53125 36.375 47.5 
Q 32.28125 48.484375 27.875 48.484375 
Q 21.1875 48.484375 17.84375 46.4375 
Q 14.5 44.390625 14.5 40.28125 
Q 14.5 37.15625 16.890625 35.375 
Q 19.28125 33.59375 26.515625 31.984375 
L 29.59375 31.296875 
Q 39.15625 29.25 43.1875 25.515625 
Q 47.21875 21.78125 47.21875 15.09375 
Q 47.21875 7.46875 41.1875 3.015625 
Q 35.15625 -1.421875 24.609375 -1.421875 
Q 20.21875 -1.421875 15.453125 -0.5625 
Q 10.6875 0.296875 5.421875 2 
L 5.421875 11.28125 
Q 10.40625 8.6875 15.234375 7.390625 
Q 20.0625 6.109375 24.8125 6.109375 
Q 31.15625 6.109375 34.5625 8.28125 
Q 37.984375 10.453125 37.984375 14.40625 
Q 37.984375 18.0625 35.515625 20.015625 
Q 33.0625 21.96875 24.703125 23.78125 
L 21.578125 24.515625 
Q 13.234375 26.265625 9.515625 29.90625 
Q 5.8125 33.546875 5.8125 39.890625 
Q 5.8125 47.609375 11.28125 51.796875 
Q 16.75 56 26.8125 56 
Q 31.78125 56 36.171875 55.265625 
Q 40.578125 54.546875 44.28125 53.078125 
" id="BitstreamVeraSans-Roman-73"/>
      <path d="M 34.28125 27.484375 
Q 23.390625 27.484375 19.1875 25 
Q 14.984375 22.515625 14.984375 16.5 
Q 14.984375 11.71875 18.140625 8.90625 
Q 21.296875 6.109375 26.703125 6.109375 
Q 34.1875 6.109375 38.703125 11.40625 
Q 43.21875 16.703125 43.21875 25.484375 
L 43.21875 27.484375 
z
M 52.203125 31.203125 
L 52.203125 0 
L 43.21875 0 
L 43.21875 8.296875 
Q 40.140625 3.328125 35.546875 0.953125 
Q 30.953125 -1.421875 24.3125 -1.421875 
Q 15.921875 -1.421875 10.953125 3.296875 
Q 6 8.015625 6 15.921875 
Q 6 25.140625 12.171875 29.828125 
Q 18.359375 34.515625 30.609375 34.515625 
L 43.21875 34.515625 
L 43.21875 35.40625 
Q 43.21875 41.609375 39.140625 45 
Q 35.0625 48.390625 27.6875 48.390625 
Q 23 48.390625 18.546875 47.265625 
Q 14.109375 46.140625 10.015625 43.890625 
L 10.015625 52.203125 
Q 14.9375 54.109375 19.578125 55.046875 
Q 24.21875 56 28.609375 56 
Q 40.484375 56 46.34375 49.84375 
Q 52.203125 43.703125 52.203125 31.203125 
" id="BitstreamVeraSans-Roman-61"/>
      <path d="M 34.1875 63.1875 
L 20.796875 26.90625 
L 47.609375 26.90625 
z
M 28.609375 72.90625 
L 39.796875 72.90625 
L 67.578125 0 
L 57.328125 0 
L 50.6875 18.703125 
L 17.828125 18.703125 
L 11.1875 0 
L 0.78125 0 
z
" id="BitstreamVeraSans-Roman-41"/>
      <path d="M 30.609375 48.390625 
Q 23.390625 48.390625 19.1875 42.75 
Q 14.984375 37.109375 14.984375 27.296875 
Q 14.984375 17.484375 19.15625 11.84375 
Q 23.34375 6.203125 30.609375 6.203125 
Q 37.796875 6.203125 41.984375 11.859375 
Q 46.1875 17.53125 46.1875 27.296875 
Q 46.1875 37.015625 41.984375 42.703125 
Q 37.796875 48.390625 30.609375 48.390625 
M 30.609375 56 
Q 42.328125 56 49.015625 48.375 
Q 55.71875 40.765625 55.71875 27.296875 
Q 55.71875 13.875 49.015625 6.21875 
Q 42.328125 -1.421875 30.609375 -1.421875 
Q 18.84375 -1.421875 12.171875 6.21875 
Q 5.515625 13.875 5.515625 27.296875 
Q 5.515625 40.765625 12.171875 48.375 
Q 18.84375 56 30.609375 56 
" id="BitstreamVeraSans-Roman-6f"/>
      <path d="M 56.203125 29.59375 
L 56.203125 25.203125 
L 14.890625 25.203125 
Q 15.484375 15.921875 20.484375 11.0625 
Q 25.484375 6.203125 34.421875 6.203125 
Q 39.59375 6.203125 44.453125 7.46875 
Q 49.3125 8.734375 54.109375 11.28125 
L 54.109375 2.78125 
Q 49.265625 0.734375 44.1875 -0.34375 
Q 39.109375 -1.421875 33.890625 -1.421875 
Q 20.796875 -1.421875 13.15625 6.1875 
Q 5.515625 13.8125 5.515625 26.8125 
Q 5.515625 40.234375 12.765625 48.109375 
Q 20.015625 56 32.328125 56 
Q 43.359375 56 49.78125 48.890625 
Q 56.203125 41.796875 56.203125 29.59375 
M 47.21875 32.234375 
Q 47.125 39.59375 43.09375 43.984375 
Q 39.0625 48.390625 32.421875 48.390625 
Q 24.90625 48.390625 20.390625 44.140625 
Q 15.875 39.890625 15.1875 32.171875 
z
" id="BitstreamVeraSans-Roman-65"/>
      <path d="M 41.109375 46.296875 
Q 39.59375 47.171875 37.8125 47.578125 
Q 36.03125 48 33.890625 48 
Q 26.265625 48 22.1875 43.046875 
Q 18.109375 38.09375 18.109375 28.8125 
L 18.109375 0 
L 9.078125 0 
L 9.078125 54.6875 
L 18.109375 54.6875 
L 18.109375 46.1875 
Q 20.953125 51.171875 25.484375 53.578125 
Q 30.03125 56 36.53125 56 
Q 37.453125 56 38.578125 55.875 
Q 39.703125 55.765625 41.0625 55.515625 
z
" id="BitstreamVeraSans-Roman-72"/>
      <path d="M 45.40625 46.390625 
L 45.40625 75.984375 
L 54.390625 75.984375 
L 54.390625 0 
L 45.40625 0 
L 45.40625 8.203125 
Q 42.578125 3.328125 38.25 0.953125 
Q 33.9375 -1.421875 27.875 -1.421875 
Q 17.96875 -1.421875 11.734375 6.484375 
Q 5.515625 14.40625 5.515625 27.296875 
Q 5.515625 40.1875 11.734375 48.09375 
Q 17.96875 56 27.875 56 
Q 33.9375 56 38.25 53.625 
Q 42.578125 51.265625 45.40625 46.390625 
M 14.796875 27.296875 
Q 14.796875 17.390625 18.875 11.75 
Q 22.953125 6.109375 30.078125 6.109375 
Q 37.203125 6.109375 41.296875 11.75 
Q 45.40625 17.390625 45.40625 27.296875 
Q 45.40625 37.203125 41.296875 42.84375 
Q 37.203125 48.484375 30.078125 48.484375 
Q 22.953125 48.484375 18.875 42.84375 
Q 14.796875 37.203125 14.796875 27.296875 
" id="BitstreamVeraSans-Roman-64"/>
      <path d="M 8.5 21.578125 
L 8.5 54.6875 
L 17.484375 54.6875 
L 17.484375 21.921875 
Q 17.484375 14.15625 20.5 10.265625 
Q 23.53125 6.390625 29.59375 6.390625 
Q 36.859375 6.390625 41.078125 11.03125 
Q 45.3125 15.671875 45.3125 23.6875 
L 45.3125 54.6875 
L 54.296875 54.6875 
L 54.296875 0 
L 45.3125 0 
L 45.3125 8.40625 
Q 42.046875 3.421875 37.71875 1 
Q 33.40625 -1.421875 27.6875 -1.421875 
Q 18.265625 -1.421875 13.375 4.4375 
Q 8.5 10.296875 8.5 21.578125 
" id="BitstreamVeraSans-Roman-75"/>
      <path d="M 48.78125 52.59375 
L 48.78125 44.1875 
Q 44.96875 46.296875 41.140625 47.34375 
Q 37.3125 48.390625 33.40625 48.390625 
Q 24.65625 48.390625 19.8125 42.84375 
Q 14.984375 37.3125 14.984375 27.296875 
Q 14.984375 17.28125 19.8125 11.734375 
Q 24.65625 6.203125 33.40625 6.203125 
Q 37.3125 6.203125 41.140625 7.25 
Q 44.96875 8.296875 48.78125 10.40625 
L 48.78125 2.09375 
Q 45.015625 0.34375 40.984375 -0.53125 
Q 36.96875 -1.421875 32.421875 -1.421875 
Q 20.0625 -1.421875 12.78125 6.34375 
Q 5.515625 14.109375 5.515625 27.296875 
Q 5.515625 40.671875 12.859375 48.328125 
Q 20.21875 56 33.015625 56 
Q 37.15625 56 41.109375 55.140625 
Q 45.0625 54.296875 48.78125 52.59375 
" id="BitstreamVeraSans-Roman-63"/>
     </defs>
     <g transform="translate(248.5771875 416.371875)scale(0.12 -0.12)">
      <use xlink:href="#BitstreamVeraSans-Roman-41"/>
      <use x="68.392578125" xlink:href="#BitstreamVeraSans-Roman-63"/>
      <use x="123.373046875" xlink:href="#BitstreamVeraSans-Roman-63"/>
      <use x="178.353515625" xlink:href="#BitstreamVeraSans-Roman-75"/>
      <use x="241.732421875" xlink:href="#BitstreamVeraSans-Roman-6d"/>
      <use x="339.14453125" xlink:href="#BitstreamVeraSans-Roman-75"/>
      <use x="402.5234375" xlink:href="#BitstreamVeraSans-Roman-6c"/>
      <use x="430.306640625" xlink:href="#BitstreamVeraSans-Roman-61"/>
      <use x="491.5859375" xlink:href="#BitstreamVeraSans-Roman-74"/>
      <use x="530.794921875" xlink:href="#BitstreamVeraSans-Roman-65"/>
      <use x="592.318359375" xlink:href="#BitstreamVeraSans-Roman-64"/>
      <use x="655.794921875" xlink:href="#BitstreamVeraSans-Roman-20"/>
      <use x="687.58203125" xlink:href="#BitstreamVeraSans-Roman-73"/>
      <use x="739.681640625" xlink:href="#BitstreamVeraSans-Roman-63"/>
      <use x="794.662109375" xlink:href="#BitstreamVeraSans-Roman-6f"/>
      <use x="855.84375" xlink:href="#BitstreamVeraSans-Roman-72"/>
      <use x="896.92578125" xlink:href="#BitstreamVeraSans-Roman-65"/>
     </g>
    </g>
   </g>
   <g id="matplotlib.axis_2">
    <g id="ytick_1">
     <g id="line2d_30">
      <defs>
       <path d="M 0 0 
L 6 0 
" id="m7de9dd7673" style="stroke:#000000;stroke-width:0.5;"/>
      </defs>
      <g>
       <use style="stroke:#000000;stroke-width:0.5;" x="56.7225" xlink:href="#m7de9dd7673" y="375.095483871"/>
      </g>
     </g>
     <g id="line2d_31">
      <defs>
       <path d="M 0 0 
L -6 0 
" id="m739df082d5" style="stroke:#000000;stroke-width:0.5;"/>
      </defs>
      <g>
       <use style="stroke:#000000;stroke-width:0.5;" x="555.44625" xlink:href="#m739df082d5" y="375.095483871"/>
      </g>
     </g>
     <g id="text_11">
      <!-- $\mathdefault{10^{0}}$ -->
      <g transform="translate(30.4025 378.719858871)scale(0.12 -0.12)">
       <use transform="translate(0.0 0.796875)" xlink:href="#BitstreamVeraSans-Roman-31"/>
       <use transform="translate(63.623046875 0.796875)" xlink:href="#BitstreamVeraSans-Roman-30"/>
       <use transform="translate(132.75859375 48.046875)scale(0.7)" xlink:href="#BitstreamVeraSans-Roman-30"/>
      </g>
     </g>
    </g>
    <g id="ytick_2">
     <g id="line2d_32">
      <g>
       <use style="stroke:#000000;stroke-width:0.5;" x="56.7225" xlink:href="#m7de9dd7673" y="259.650322581"/>
      </g>
     </g>
     <g id="line2d_33">
      <g>
       <use style="stroke:#000000;stroke-width:0.5;" x="555.44625" xlink:href="#m739df082d5" y="259.650322581"/>
      </g>
     </g>
     <g id="text_12">
      <!-- $\mathdefault{10^{1}}$ -->
      <g transform="translate(30.4025 263.214697581)scale(0.12 -0.12)">
       <use transform="translate(0.0 0.7156250000000028)" xlink:href="#BitstreamVeraSans-Roman-31"/>
       <use transform="translate(63.623046875 0.7156250000000028)" xlink:href="#BitstreamVeraSans-Roman-30"/>
       <use transform="translate(132.75859375 47.965625)scale(0.7)" xlink:href="#BitstreamVeraSans-Roman-31"/>
      </g>
     </g>
    </g>
    <g id="ytick_3">
     <g id="line2d_34">
      <g>
       <use style="stroke:#000000;stroke-width:0.5;" x="56.7225" xlink:href="#m7de9dd7673" y="144.20516129"/>
      </g>
     </g>
     <g id="line2d_35">
      <g>
       <use style="stroke:#000000;stroke-width:0.5;" x="555.44625" xlink:href="#m739df082d5" y="144.20516129"/>
      </g>
     </g>
     <g id="text_13">
      <!-- $\mathdefault{10^{2}}$ -->
      <g transform="translate(30.4025 147.82953629)scale(0.12 -0.12)">
       <use transform="translate(0.0 0.796875)" xlink:href="#BitstreamVeraSans-Roman-31"/>
       <use transform="translate(63.623046875 0.796875)" xlink:href="#BitstreamVeraSans-Roman-30"/>
       <use transform="translate(132.75859375 48.046875)scale(0.7)" xlink:href="#BitstreamVeraSans-Roman-32"/>
      </g>
     </g>
    </g>
    <g id="ytick_4">
     <g id="line2d_36">
      <g>
       <use style="stroke:#000000;stroke-width:0.5;" x="56.7225" xlink:href="#m7de9dd7673" y="28.76"/>
      </g>
     </g>
     <g id="line2d_37">
      <g>
       <use style="stroke:#000000;stroke-width:0.5;" x="555.44625" xlink:href="#m739df082d5" y="28.76"/>
      </g>
     </g>
     <g id="text_14">
      <!-- $\mathdefault{10^{3}}$ -->
      <g transform="translate(30.4025 32.384375)scale(0.12 -0.12)">
       <use transform="translate(0.0 0.796875)" xlink:href="#BitstreamVeraSans-Roman-31"/>
       <use transform="translate(63.623046875 0.796875)" xlink:href="#BitstreamVeraSans-Roman-30"/>
       <use transform="translate(132.75859375 48.046875)scale(0.7)" xlink:href="#BitstreamVeraSans-Roman-33"/>
      </g>
     </g>
    </g>
    <g id="ytick_5"/>
    <g id="ytick_6"/>
    <g id="ytick_7"/>
    <g id="ytick_8">
     <g id="line2d_38">
      <defs>
       <path d="M 0 0 
L 4 0 
" id="m1bc2bc4e90" style="stroke:#000000;stroke-width:0.5;"/>
      </defs>
      <g>
       <use style="stroke:#000000;stroke-width:0.5;" x="56.7225" xlink:href="#m1bc2bc4e90" y="386.64"/>
      </g>
     </g>
     <g id="line2d_39">
      <defs>
       <path d="M 0 0 
L -4 0 
" id="maf631e5d50" style="stroke:#000000;stroke-width:0.5;"/>
      </defs>
      <g>
       <use style="stroke:#000000;stroke-width:0.5;" x="555.44625" xlink:href="#maf631e5d50" y="386.64"/>
      </g>
     </g>
    </g>
    <g id="ytick_9">
     <g id="line2d_40">
      <g>
       <use style="stroke:#000000;stroke-width:0.5;" x="56.7225" xlink:href="#m1bc2bc4e90" y="385.357275986"/>
      </g>
     </g>
     <g id="line2d_41">
      <g>
       <use style="stroke:#000000;stroke-width:0.5;" x="555.44625" xlink:href="#maf631e5d50" y="385.357275986"/>
      </g>
     </g>
    </g>
    <g id="ytick_10">
     <g id="line2d_42">
      <g>
       <use style="stroke:#000000;stroke-width:0.5;" x="56.7225" xlink:href="#m1bc2bc4e90" y="384.074551971"/>
      </g>
     </g>
     <g id="line2d_43">
      <g>
       <use style="stroke:#000000;stroke-width:0.5;" x="555.44625" xlink:href="#maf631e5d50" y="384.074551971"/>
      </g>
     </g>
    </g>
    <g id="ytick_11">
     <g id="line2d_44">
      <g>
       <use style="stroke:#000000;stroke-width:0.5;" x="56.7225" xlink:href="#m1bc2bc4e90" y="382.791827957"/>
      </g>
     </g>
     <g id="line2d_45">
      <g>
       <use style="stroke:#000000;stroke-width:0.5;" x="555.44625" xlink:href="#maf631e5d50" y="382.791827957"/>
      </g>
     </g>
    </g>
    <g id="ytick_12">
     <g id="line2d_46">
      <g>
       <use style="stroke:#000000;stroke-width:0.5;" x="56.7225" xlink:href="#m1bc2bc4e90" y="381.509103943"/>
      </g>
     </g>
     <g id="line2d_47">
      <g>
       <use style="stroke:#000000;stroke-width:0.5;" x="555.44625" xlink:href="#maf631e5d50" y="381.509103943"/>
      </g>
     </g>
    </g>
    <g id="ytick_13">
     <g id="line2d_48">
      <g>
       <use style="stroke:#000000;stroke-width:0.5;" x="56.7225" xlink:href="#m1bc2bc4e90" y="380.226379928"/>
      </g>
     </g>
     <g id="line2d_49">
      <g>
       <use style="stroke:#000000;stroke-width:0.5;" x="555.44625" xlink:href="#maf631e5d50" y="380.226379928"/>
      </g>
     </g>
    </g>
    <g id="ytick_14">
     <g id="line2d_50">
      <g>
       <use style="stroke:#000000;stroke-width:0.5;" x="56.7225" xlink:href="#m1bc2bc4e90" y="378.943655914"/>
      </g>
     </g>
     <g id="line2d_51">
      <g>
       <use style="stroke:#000000;stroke-width:0.5;" x="555.44625" xlink:href="#maf631e5d50" y="378.943655914"/>
      </g>
     </g>
    </g>
    <g id="ytick_15">
     <g id="line2d_52">
      <g>
       <use style="stroke:#000000;stroke-width:0.5;" x="56.7225" xlink:href="#m1bc2bc4e90" y="377.6609319"/>
      </g>
     </g>
     <g id="line2d_53">
      <g>
       <use style="stroke:#000000;stroke-width:0.5;" x="555.44625" xlink:href="#maf631e5d50" y="377.6609319"/>
      </g>
     </g>
    </g>
    <g id="ytick_16">
     <g id="line2d_54">
      <g>
       <use style="stroke:#000000;stroke-width:0.5;" x="56.7225" xlink:href="#m1bc2bc4e90" y="376.378207885"/>
      </g>
     </g>
     <g id="line2d_55">
      <g>
       <use style="stroke:#000000;stroke-width:0.5;" x="555.44625" xlink:href="#maf631e5d50" y="376.378207885"/>
      </g>
     </g>
    </g>
    <g id="ytick_17">
     <g id="line2d_56">
      <g>
       <use style="stroke:#000000;stroke-width:0.5;" x="56.7225" xlink:href="#m1bc2bc4e90" y="375.095483871"/>
      </g>
     </g>
     <g id="line2d_57">
      <g>
       <use style="stroke:#000000;stroke-width:0.5;" x="555.44625" xlink:href="#maf631e5d50" y="375.095483871"/>
      </g>
     </g>
    </g>
    <g id="ytick_18">
     <g id="line2d_58">
      <g>
       <use style="stroke:#000000;stroke-width:0.5;" x="56.7225" xlink:href="#m1bc2bc4e90" y="340.343027468"/>
      </g>
     </g>
     <g id="line2d_59">
      <g>
       <use style="stroke:#000000;stroke-width:0.5;" x="555.44625" xlink:href="#maf631e5d50" y="340.343027468"/>
      </g>
     </g>
    </g>
    <g id="ytick_19">
     <g id="line2d_60">
      <g>
       <use style="stroke:#000000;stroke-width:0.5;" x="56.7225" xlink:href="#m1bc2bc4e90" y="320.014143665"/>
      </g>
     </g>
     <g id="line2d_61">
      <g>
       <use style="stroke:#000000;stroke-width:0.5;" x="555.44625" xlink:href="#maf631e5d50" y="320.014143665"/>
      </g>
     </g>
    </g>
    <g id="ytick_20">
     <g id="line2d_62">
      <g>
       <use style="stroke:#000000;stroke-width:0.5;" x="56.7225" xlink:href="#m1bc2bc4e90" y="305.590571066"/>
      </g>
     </g>
     <g id="line2d_63">
      <g>
       <use style="stroke:#000000;stroke-width:0.5;" x="555.44625" xlink:href="#maf631e5d50" y="305.590571066"/>
      </g>
     </g>
    </g>
    <g id="ytick_21">
     <g id="line2d_64">
      <g>
       <use style="stroke:#000000;stroke-width:0.5;" x="56.7225" xlink:href="#m1bc2bc4e90" y="294.402778983"/>
      </g>
     </g>
     <g id="line2d_65">
      <g>
       <use style="stroke:#000000;stroke-width:0.5;" x="555.44625" xlink:href="#maf631e5d50" y="294.402778983"/>
      </g>
     </g>
    </g>
    <g id="ytick_22">
     <g id="line2d_66">
      <g>
       <use style="stroke:#000000;stroke-width:0.5;" x="56.7225" xlink:href="#m1bc2bc4e90" y="285.261687262"/>
      </g>
     </g>
     <g id="line2d_67">
      <g>
       <use style="stroke:#000000;stroke-width:0.5;" x="555.44625" xlink:href="#maf631e5d50" y="285.261687262"/>
      </g>
     </g>
    </g>
    <g id="ytick_23">
     <g id="line2d_68">
      <g>
       <use style="stroke:#000000;stroke-width:0.5;" x="56.7225" xlink:href="#m1bc2bc4e90" y="277.533004335"/>
      </g>
     </g>
     <g id="line2d_69">
      <g>
       <use style="stroke:#000000;stroke-width:0.5;" x="555.44625" xlink:href="#maf631e5d50" y="277.533004335"/>
      </g>
     </g>
    </g>
    <g id="ytick_24">
     <g id="line2d_70">
      <g>
       <use style="stroke:#000000;stroke-width:0.5;" x="56.7225" xlink:href="#m1bc2bc4e90" y="270.838114663"/>
      </g>
     </g>
     <g id="line2d_71">
      <g>
       <use style="stroke:#000000;stroke-width:0.5;" x="555.44625" xlink:href="#maf631e5d50" y="270.838114663"/>
      </g>
     </g>
    </g>
    <g id="ytick_25">
     <g id="line2d_72">
      <g>
       <use style="stroke:#000000;stroke-width:0.5;" x="56.7225" xlink:href="#m1bc2bc4e90" y="264.932803459"/>
      </g>
     </g>
     <g id="line2d_73">
      <g>
       <use style="stroke:#000000;stroke-width:0.5;" x="555.44625" xlink:href="#maf631e5d50" y="264.932803459"/>
      </g>
     </g>
    </g>
    <g id="ytick_26">
     <g id="line2d_74">
      <g>
       <use style="stroke:#000000;stroke-width:0.5;" x="56.7225" xlink:href="#m1bc2bc4e90" y="259.650322581"/>
      </g>
     </g>
     <g id="line2d_75">
      <g>
       <use style="stroke:#000000;stroke-width:0.5;" x="555.44625" xlink:href="#maf631e5d50" y="259.650322581"/>
      </g>
     </g>
    </g>
    <g id="ytick_27">
     <g id="line2d_76">
      <g>
       <use style="stroke:#000000;stroke-width:0.5;" x="56.7225" xlink:href="#m1bc2bc4e90" y="224.897866178"/>
      </g>
     </g>
     <g id="line2d_77">
      <g>
       <use style="stroke:#000000;stroke-width:0.5;" x="555.44625" xlink:href="#maf631e5d50" y="224.897866178"/>
      </g>
     </g>
    </g>
    <g id="ytick_28">
     <g id="line2d_78">
      <g>
       <use style="stroke:#000000;stroke-width:0.5;" x="56.7225" xlink:href="#m1bc2bc4e90" y="204.568982374"/>
      </g>
     </g>
     <g id="line2d_79">
      <g>
       <use style="stroke:#000000;stroke-width:0.5;" x="555.44625" xlink:href="#maf631e5d50" y="204.568982374"/>
      </g>
     </g>
    </g>
    <g id="ytick_29">
     <g id="line2d_80">
      <g>
       <use style="stroke:#000000;stroke-width:0.5;" x="56.7225" xlink:href="#m1bc2bc4e90" y="190.145409775"/>
      </g>
     </g>
     <g id="line2d_81">
      <g>
       <use style="stroke:#000000;stroke-width:0.5;" x="555.44625" xlink:href="#maf631e5d50" y="190.145409775"/>
      </g>
     </g>
    </g>
    <g id="ytick_30">
     <g id="line2d_82">
      <g>
       <use style="stroke:#000000;stroke-width:0.5;" x="56.7225" xlink:href="#m1bc2bc4e90" y="178.957617693"/>
      </g>
     </g>
     <g id="line2d_83">
      <g>
       <use style="stroke:#000000;stroke-width:0.5;" x="555.44625" xlink:href="#maf631e5d50" y="178.957617693"/>
      </g>
     </g>
    </g>
    <g id="ytick_31">
     <g id="line2d_84">
      <g>
       <use style="stroke:#000000;stroke-width:0.5;" x="56.7225" xlink:href="#m1bc2bc4e90" y="169.816525972"/>
      </g>
     </g>
     <g id="line2d_85">
      <g>
       <use style="stroke:#000000;stroke-width:0.5;" x="555.44625" xlink:href="#maf631e5d50" y="169.816525972"/>
      </g>
     </g>
    </g>
    <g id="ytick_32">
     <g id="line2d_86">
      <g>
       <use style="stroke:#000000;stroke-width:0.5;" x="56.7225" xlink:href="#m1bc2bc4e90" y="162.087843045"/>
      </g>
     </g>
     <g id="line2d_87">
      <g>
       <use style="stroke:#000000;stroke-width:0.5;" x="555.44625" xlink:href="#maf631e5d50" y="162.087843045"/>
      </g>
     </g>
    </g>
    <g id="ytick_33">
     <g id="line2d_88">
      <g>
       <use style="stroke:#000000;stroke-width:0.5;" x="56.7225" xlink:href="#m1bc2bc4e90" y="155.392953373"/>
      </g>
     </g>
     <g id="line2d_89">
      <g>
       <use style="stroke:#000000;stroke-width:0.5;" x="555.44625" xlink:href="#maf631e5d50" y="155.392953373"/>
      </g>
     </g>
    </g>
    <g id="ytick_34">
     <g id="line2d_90">
      <g>
       <use style="stroke:#000000;stroke-width:0.5;" x="56.7225" xlink:href="#m1bc2bc4e90" y="149.487642168"/>
      </g>
     </g>
     <g id="line2d_91">
      <g>
       <use style="stroke:#000000;stroke-width:0.5;" x="555.44625" xlink:href="#maf631e5d50" y="149.487642168"/>
      </g>
     </g>
    </g>
    <g id="ytick_35">
     <g id="line2d_92">
      <g>
       <use style="stroke:#000000;stroke-width:0.5;" x="56.7225" xlink:href="#m1bc2bc4e90" y="144.20516129"/>
      </g>
     </g>
     <g id="line2d_93">
      <g>
       <use style="stroke:#000000;stroke-width:0.5;" x="555.44625" xlink:href="#maf631e5d50" y="144.20516129"/>
      </g>
     </g>
    </g>
    <g id="ytick_36">
     <g id="line2d_94">
      <g>
       <use style="stroke:#000000;stroke-width:0.5;" x="56.7225" xlink:href="#m1bc2bc4e90" y="109.452704888"/>
      </g>
     </g>
     <g id="line2d_95">
      <g>
       <use style="stroke:#000000;stroke-width:0.5;" x="555.44625" xlink:href="#maf631e5d50" y="109.452704888"/>
      </g>
     </g>
    </g>
    <g id="ytick_37">
     <g id="line2d_96">
      <g>
       <use style="stroke:#000000;stroke-width:0.5;" x="56.7225" xlink:href="#m1bc2bc4e90" y="89.1238210842"/>
      </g>
     </g>
     <g id="line2d_97">
      <g>
       <use style="stroke:#000000;stroke-width:0.5;" x="555.44625" xlink:href="#maf631e5d50" y="89.1238210842"/>
      </g>
     </g>
    </g>
    <g id="ytick_38">
     <g id="line2d_98">
      <g>
       <use style="stroke:#000000;stroke-width:0.5;" x="56.7225" xlink:href="#m1bc2bc4e90" y="74.700248485"/>
      </g>
     </g>
     <g id="line2d_99">
      <g>
       <use style="stroke:#000000;stroke-width:0.5;" x="555.44625" xlink:href="#maf631e5d50" y="74.700248485"/>
      </g>
     </g>
    </g>
    <g id="ytick_39">
     <g id="line2d_100">
      <g>
       <use style="stroke:#000000;stroke-width:0.5;" x="56.7225" xlink:href="#m1bc2bc4e90" y="63.5124564027"/>
      </g>
     </g>
     <g id="line2d_101">
      <g>
       <use style="stroke:#000000;stroke-width:0.5;" x="555.44625" xlink:href="#maf631e5d50" y="63.5124564027"/>
      </g>
     </g>
    </g>
    <g id="ytick_40">
     <g id="line2d_102">
      <g>
       <use style="stroke:#000000;stroke-width:0.5;" x="56.7225" xlink:href="#m1bc2bc4e90" y="54.3713646815"/>
      </g>
     </g>
     <g id="line2d_103">
      <g>
       <use style="stroke:#000000;stroke-width:0.5;" x="555.44625" xlink:href="#maf631e5d50" y="54.3713646815"/>
      </g>
     </g>
    </g>
    <g id="ytick_41">
     <g id="line2d_104">
      <g>
       <use style="stroke:#000000;stroke-width:0.5;" x="56.7225" xlink:href="#m1bc2bc4e90" y="46.6426817547"/>
      </g>
     </g>
     <g id="line2d_105">
      <g>
       <use style="stroke:#000000;stroke-width:0.5;" x="555.44625" xlink:href="#maf631e5d50" y="46.6426817547"/>
      </g>
     </g>
    </g>
    <g id="ytick_42">
     <g id="line2d_106">
      <g>
       <use style="stroke:#000000;stroke-width:0.5;" x="56.7225" xlink:href="#m1bc2bc4e90" y="39.9477920824"/>
      </g>
     </g>
     <g id="line2d_107">
      <g>
       <use style="stroke:#000000;stroke-width:0.5;" x="555.44625" xlink:href="#maf631e5d50" y="39.9477920824"/>
      </g>
     </g>
    </g>
    <g id="ytick_43">
     <g id="line2d_108">
      <g>
       <use style="stroke:#000000;stroke-width:0.5;" x="56.7225" xlink:href="#m1bc2bc4e90" y="34.042480878"/>
      </g>
     </g>
     <g id="line2d_109">
      <g>
       <use style="stroke:#000000;stroke-width:0.5;" x="555.44625" xlink:href="#maf631e5d50" y="34.042480878"/>
      </g>
     </g>
    </g>
    <g id="ytick_44">
     <g id="line2d_110">
      <g>
       <use style="stroke:#000000;stroke-width:0.5;" x="56.7225" xlink:href="#m1bc2bc4e90" y="28.76"/>
      </g>
     </g>
     <g id="line2d_111">
      <g>
       <use style="stroke:#000000;stroke-width:0.5;" x="555.44625" xlink:href="#maf631e5d50" y="28.76"/>
      </g>
     </g>
    </g>
    <g id="text_15">
     <!-- Runtime (s) -->
     <defs>
      <path d="M 8.015625 75.875 
L 15.828125 75.875 
Q 23.140625 64.359375 26.78125 53.3125 
Q 30.421875 42.28125 30.421875 31.390625 
Q 30.421875 20.453125 26.78125 9.375 
Q 23.140625 -1.703125 15.828125 -13.1875 
L 8.015625 -13.1875 
Q 14.5 -2 17.703125 9.0625 
Q 20.90625 20.125 20.90625 31.390625 
Q 20.90625 42.671875 17.703125 53.65625 
Q 14.5 64.65625 8.015625 75.875 
" id="BitstreamVeraSans-Roman-29"/>
      <path d="M 9.421875 54.6875 
L 18.40625 54.6875 
L 18.40625 0 
L 9.421875 0 
z
M 9.421875 75.984375 
L 18.40625 75.984375 
L 18.40625 64.59375 
L 9.421875 64.59375 
z
" id="BitstreamVeraSans-Roman-69"/>
      <path d="M 44.390625 34.1875 
Q 47.5625 33.109375 50.5625 29.59375 
Q 53.5625 26.078125 56.59375 19.921875 
L 66.609375 0 
L 56 0 
L 46.6875 18.703125 
Q 43.0625 26.03125 39.671875 28.421875 
Q 36.28125 30.8125 30.421875 30.8125 
L 19.671875 30.8125 
L 19.671875 0 
L 9.8125 0 
L 9.8125 72.90625 
L 32.078125 72.90625 
Q 44.578125 72.90625 50.734375 67.671875 
Q 56.890625 62.453125 56.890625 51.90625 
Q 56.890625 45.015625 53.6875 40.46875 
Q 50.484375 35.9375 44.390625 34.1875 
M 19.671875 64.796875 
L 19.671875 38.921875 
L 32.078125 38.921875 
Q 39.203125 38.921875 42.84375 42.21875 
Q 46.484375 45.515625 46.484375 51.90625 
Q 46.484375 58.296875 42.84375 61.546875 
Q 39.203125 64.796875 32.078125 64.796875 
z
" id="BitstreamVeraSans-Roman-52"/>
      <path d="M 54.890625 33.015625 
L 54.890625 0 
L 45.90625 0 
L 45.90625 32.71875 
Q 45.90625 40.484375 42.875 44.328125 
Q 39.84375 48.1875 33.796875 48.1875 
Q 26.515625 48.1875 22.3125 43.546875 
Q 18.109375 38.921875 18.109375 30.90625 
L 18.109375 0 
L 9.078125 0 
L 9.078125 54.6875 
L 18.109375 54.6875 
L 18.109375 46.1875 
Q 21.34375 51.125 25.703125 53.5625 
Q 30.078125 56 35.796875 56 
Q 45.21875 56 50.046875 50.171875 
Q 54.890625 44.34375 54.890625 33.015625 
" id="BitstreamVeraSans-Roman-6e"/>
      <path d="M 31 75.875 
Q 24.46875 64.65625 21.28125 53.65625 
Q 18.109375 42.671875 18.109375 31.390625 
Q 18.109375 20.125 21.3125 9.0625 
Q 24.515625 -2 31 -13.1875 
L 23.1875 -13.1875 
Q 15.875 -1.703125 12.234375 9.375 
Q 8.59375 20.453125 8.59375 31.390625 
Q 8.59375 42.28125 12.203125 53.3125 
Q 15.828125 64.359375 23.1875 75.875 
z
" id="BitstreamVeraSans-Roman-28"/>
     </defs>
     <g transform="translate(22.906875 242.74)rotate(-90.0)scale(0.12 -0.12)">
      <use xlink:href="#BitstreamVeraSans-Roman-52"/>
      <use x="69.419921875" xlink:href="#BitstreamVeraSans-Roman-75"/>
      <use x="132.798828125" xlink:href="#BitstreamVeraSans-Roman-6e"/>
      <use x="196.177734375" xlink:href="#BitstreamVeraSans-Roman-74"/>
      <use x="235.38671875" xlink:href="#BitstreamVeraSans-Roman-69"/>
      <use x="263.169921875" xlink:href="#BitstreamVeraSans-Roman-6d"/>
      <use x="360.58203125" xlink:href="#BitstreamVeraSans-Roman-65"/>
      <use x="422.10546875" xlink:href="#BitstreamVeraSans-Roman-20"/>
      <use x="453.892578125" xlink:href="#BitstreamVeraSans-Roman-28"/>
      <use x="492.90625" xlink:href="#BitstreamVeraSans-Roman-73"/>
      <use x="545.005859375" xlink:href="#BitstreamVeraSans-Roman-29"/>
     </g>
    </g>
   </g>
   <g id="text_16">
    <!-- Optimisation on GPU -->
    <defs>
     <path d="M 19.671875 64.796875 
L 19.671875 37.40625 
L 32.078125 37.40625 
Q 38.96875 37.40625 42.71875 40.96875 
Q 46.484375 44.53125 46.484375 51.125 
Q 46.484375 57.671875 42.71875 61.234375 
Q 38.96875 64.796875 32.078125 64.796875 
z
M 9.8125 72.90625 
L 32.078125 72.90625 
Q 44.34375 72.90625 50.609375 67.359375 
Q 56.890625 61.8125 56.890625 51.125 
Q 56.890625 40.328125 50.609375 34.8125 
Q 44.34375 29.296875 32.078125 29.296875 
L 19.671875 29.296875 
L 19.671875 0 
L 9.8125 0 
z
" id="BitstreamVeraSans-Roman-50"/>
     <path d="M 39.40625 66.21875 
Q 28.65625 66.21875 22.328125 58.203125 
Q 16.015625 50.203125 16.015625 36.375 
Q 16.015625 22.609375 22.328125 14.59375 
Q 28.65625 6.59375 39.40625 6.59375 
Q 50.140625 6.59375 56.421875 14.59375 
Q 62.703125 22.609375 62.703125 36.375 
Q 62.703125 50.203125 56.421875 58.203125 
Q 50.140625 66.21875 39.40625 66.21875 
M 39.40625 74.21875 
Q 54.734375 74.21875 63.90625 63.9375 
Q 73.09375 53.65625 73.09375 36.375 
Q 73.09375 19.140625 63.90625 8.859375 
Q 54.734375 -1.421875 39.40625 -1.421875 
Q 24.03125 -1.421875 14.8125 8.828125 
Q 5.609375 19.09375 5.609375 36.375 
Q 5.609375 53.65625 14.8125 63.9375 
Q 24.03125 74.21875 39.40625 74.21875 
" id="BitstreamVeraSans-Roman-4f"/>
     <path d="M 18.109375 8.203125 
L 18.109375 -20.796875 
L 9.078125 -20.796875 
L 9.078125 54.6875 
L 18.109375 54.6875 
L 18.109375 46.390625 
Q 20.953125 51.265625 25.265625 53.625 
Q 29.59375 56 35.59375 56 
Q 45.5625 56 51.78125 48.09375 
Q 58.015625 40.1875 58.015625 27.296875 
Q 58.015625 14.40625 51.78125 6.484375 
Q 45.5625 -1.421875 35.59375 -1.421875 
Q 29.59375 -1.421875 25.265625 0.953125 
Q 20.953125 3.328125 18.109375 8.203125 
M 48.6875 27.296875 
Q 48.6875 37.203125 44.609375 42.84375 
Q 40.53125 48.484375 33.40625 48.484375 
Q 26.265625 48.484375 22.1875 42.84375 
Q 18.109375 37.203125 18.109375 27.296875 
Q 18.109375 17.390625 22.1875 11.75 
Q 26.265625 6.109375 33.40625 6.109375 
Q 40.53125 6.109375 44.609375 11.75 
Q 48.6875 17.390625 48.6875 27.296875 
" id="BitstreamVeraSans-Roman-70"/>
     <path d="M 8.6875 72.90625 
L 18.609375 72.90625 
L 18.609375 28.609375 
Q 18.609375 16.890625 22.84375 11.734375 
Q 27.09375 6.59375 36.625 6.59375 
Q 46.09375 6.59375 50.34375 11.734375 
Q 54.59375 16.890625 54.59375 28.609375 
L 54.59375 72.90625 
L 64.5 72.90625 
L 64.5 27.390625 
Q 64.5 13.140625 57.4375 5.859375 
Q 50.390625 -1.421875 36.625 -1.421875 
Q 22.796875 -1.421875 15.734375 5.859375 
Q 8.6875 13.140625 8.6875 27.390625 
z
" id="BitstreamVeraSans-Roman-55"/>
     <path d="M 59.515625 10.40625 
L 59.515625 29.984375 
L 43.40625 29.984375 
L 43.40625 38.09375 
L 69.28125 38.09375 
L 69.28125 6.78125 
Q 63.578125 2.734375 56.6875 0.65625 
Q 49.8125 -1.421875 42 -1.421875 
Q 24.90625 -1.421875 15.25 8.5625 
Q 5.609375 18.5625 5.609375 36.375 
Q 5.609375 54.25 15.25 64.234375 
Q 24.90625 74.21875 42 74.21875 
Q 49.125 74.21875 55.546875 72.453125 
Q 61.96875 70.703125 67.390625 67.28125 
L 67.390625 56.78125 
Q 61.921875 61.421875 55.765625 63.765625 
Q 49.609375 66.109375 42.828125 66.109375 
Q 29.4375 66.109375 22.71875 58.640625 
Q 16.015625 51.171875 16.015625 36.375 
Q 16.015625 21.625 22.71875 14.15625 
Q 29.4375 6.6875 42.828125 6.6875 
Q 48.046875 6.6875 52.140625 7.59375 
Q 56.25 8.5 59.515625 10.40625 
" id="BitstreamVeraSans-Roman-47"/>
    </defs>
    <g transform="translate(231.32025 23.76)scale(0.144 -0.144)">
     <use xlink:href="#BitstreamVeraSans-Roman-4f"/>
     <use x="78.7109375" xlink:href="#BitstreamVeraSans-Roman-70"/>
     <use x="142.1875" xlink:href="#BitstreamVeraSans-Roman-74"/>
     <use x="181.396484375" xlink:href="#BitstreamVeraSans-Roman-69"/>
     <use x="209.1796875" xlink:href="#BitstreamVeraSans-Roman-6d"/>
     <use x="306.591796875" xlink:href="#BitstreamVeraSans-Roman-69"/>
     <use x="334.375" xlink:href="#BitstreamVeraSans-Roman-73"/>
     <use x="386.474609375" xlink:href="#BitstreamVeraSans-Roman-61"/>
     <use x="447.75390625" xlink:href="#BitstreamVeraSans-Roman-74"/>
     <use x="486.962890625" xlink:href="#BitstreamVeraSans-Roman-69"/>
     <use x="514.74609375" xlink:href="#BitstreamVeraSans-Roman-6f"/>
     <use x="575.927734375" xlink:href="#BitstreamVeraSans-Roman-6e"/>
     <use x="639.306640625" xlink:href="#BitstreamVeraSans-Roman-20"/>
     <use x="671.09375" xlink:href="#BitstreamVeraSans-Roman-6f"/>
     <use x="732.275390625" xlink:href="#BitstreamVeraSans-Roman-6e"/>
     <use x="795.654296875" xlink:href="#BitstreamVeraSans-Roman-20"/>
     <use x="827.44140625" xlink:href="#BitstreamVeraSans-Roman-47"/>
     <use x="904.931640625" xlink:href="#BitstreamVeraSans-Roman-50"/>
     <use x="965.234375" xlink:href="#BitstreamVeraSans-Roman-55"/>
    </g>
   </g>
   <g id="legend_1">
    <g id="patch_7">
     <path d="M 63.9225 167.099 
L 403.52175 167.099 
L 403.52175 35.96 
L 63.9225 35.96 
z
" style="fill:#ffffff;stroke:#000000;stroke-linejoin:miter;"/>
    </g>
    <g id="line2d_112">
     <path d="M 74.0025 47.62175 
L 94.1625 47.62175 
" style="fill:none;stroke:#000000;stroke-linecap:square;"/>
    </g>
    <g id="line2d_113"/>
    <g id="text_17">
     <!-- Baseline -->
     <defs>
      <path d="M 19.671875 34.8125 
L 19.671875 8.109375 
L 35.5 8.109375 
Q 43.453125 8.109375 47.28125 11.40625 
Q 51.125 14.703125 51.125 21.484375 
Q 51.125 28.328125 47.28125 31.5625 
Q 43.453125 34.8125 35.5 34.8125 
z
M 19.671875 64.796875 
L 19.671875 42.828125 
L 34.28125 42.828125 
Q 41.5 42.828125 45.03125 45.53125 
Q 48.578125 48.25 48.578125 53.8125 
Q 48.578125 59.328125 45.03125 62.0625 
Q 41.5 64.796875 34.28125 64.796875 
z
M 9.8125 72.90625 
L 35.015625 72.90625 
Q 46.296875 72.90625 52.390625 68.21875 
Q 58.5 63.53125 58.5 54.890625 
Q 58.5 48.1875 55.375 44.234375 
Q 52.25 40.28125 46.1875 39.3125 
Q 53.46875 37.75 57.5 32.78125 
Q 61.53125 27.828125 61.53125 20.40625 
Q 61.53125 10.640625 54.890625 5.3125 
Q 48.25 0 35.984375 0 
L 9.8125 0 
z
" id="BitstreamVeraSans-Roman-42"/>
     </defs>
     <g transform="translate(110.0025 52.66175)scale(0.144 -0.144)">
      <use xlink:href="#BitstreamVeraSans-Roman-42"/>
      <use x="68.603515625" xlink:href="#BitstreamVeraSans-Roman-61"/>
      <use x="129.8828125" xlink:href="#BitstreamVeraSans-Roman-73"/>
      <use x="181.982421875" xlink:href="#BitstreamVeraSans-Roman-65"/>
      <use x="243.505859375" xlink:href="#BitstreamVeraSans-Roman-6c"/>
      <use x="271.2890625" xlink:href="#BitstreamVeraSans-Roman-69"/>
      <use x="299.072265625" xlink:href="#BitstreamVeraSans-Roman-6e"/>
      <use x="362.451171875" xlink:href="#BitstreamVeraSans-Roman-65"/>
     </g>
    </g>
    <g id="line2d_114">
     <path d="M 74.0025 68.75825 
L 94.1625 68.75825 
" style="fill:none;stroke:#ff0000;stroke-linecap:square;"/>
    </g>
    <g id="line2d_115"/>
    <g id="text_18">
     <!-- GlobalDDE -->
     <defs>
      <path d="M 19.671875 64.796875 
L 19.671875 8.109375 
L 31.59375 8.109375 
Q 46.6875 8.109375 53.6875 14.9375 
Q 60.6875 21.78125 60.6875 36.53125 
Q 60.6875 51.171875 53.6875 57.984375 
Q 46.6875 64.796875 31.59375 64.796875 
z
M 9.8125 72.90625 
L 30.078125 72.90625 
Q 51.265625 72.90625 61.171875 64.09375 
Q 71.09375 55.28125 71.09375 36.53125 
Q 71.09375 17.671875 61.125 8.828125 
Q 51.171875 0 30.078125 0 
L 9.8125 0 
z
" id="BitstreamVeraSans-Roman-44"/>
      <path d="M 9.8125 72.90625 
L 55.90625 72.90625 
L 55.90625 64.59375 
L 19.671875 64.59375 
L 19.671875 43.015625 
L 54.390625 43.015625 
L 54.390625 34.71875 
L 19.671875 34.71875 
L 19.671875 8.296875 
L 56.78125 8.296875 
L 56.78125 0 
L 9.8125 0 
z
" id="BitstreamVeraSans-Roman-45"/>
      <path d="M 48.6875 27.296875 
Q 48.6875 37.203125 44.609375 42.84375 
Q 40.53125 48.484375 33.40625 48.484375 
Q 26.265625 48.484375 22.1875 42.84375 
Q 18.109375 37.203125 18.109375 27.296875 
Q 18.109375 17.390625 22.1875 11.75 
Q 26.265625 6.109375 33.40625 6.109375 
Q 40.53125 6.109375 44.609375 11.75 
Q 48.6875 17.390625 48.6875 27.296875 
M 18.109375 46.390625 
Q 20.953125 51.265625 25.265625 53.625 
Q 29.59375 56 35.59375 56 
Q 45.5625 56 51.78125 48.09375 
Q 58.015625 40.1875 58.015625 27.296875 
Q 58.015625 14.40625 51.78125 6.484375 
Q 45.5625 -1.421875 35.59375 -1.421875 
Q 29.59375 -1.421875 25.265625 0.953125 
Q 20.953125 3.328125 18.109375 8.203125 
L 18.109375 0 
L 9.078125 0 
L 9.078125 75.984375 
L 18.109375 75.984375 
z
" id="BitstreamVeraSans-Roman-62"/>
     </defs>
     <g transform="translate(110.0025 73.79825)scale(0.144 -0.144)">
      <use xlink:href="#BitstreamVeraSans-Roman-47"/>
      <use x="77.490234375" xlink:href="#BitstreamVeraSans-Roman-6c"/>
      <use x="105.2734375" xlink:href="#BitstreamVeraSans-Roman-6f"/>
      <use x="166.455078125" xlink:href="#BitstreamVeraSans-Roman-62"/>
      <use x="229.931640625" xlink:href="#BitstreamVeraSans-Roman-61"/>
      <use x="291.2109375" xlink:href="#BitstreamVeraSans-Roman-6c"/>
      <use x="318.994140625" xlink:href="#BitstreamVeraSans-Roman-44"/>
      <use x="395.99609375" xlink:href="#BitstreamVeraSans-Roman-44"/>
      <use x="472.998046875" xlink:href="#BitstreamVeraSans-Roman-45"/>
     </g>
    </g>
    <g id="line2d_116">
     <path d="M 74.0025 89.89475 
L 94.1625 89.89475 
" style="fill:none;stroke:#bfbf00;stroke-linecap:square;"/>
    </g>
    <g id="line2d_117"/>
    <g id="text_19">
     <!-- GotoAssumeLA -->
     <defs>
      <path d="M 9.8125 72.90625 
L 19.671875 72.90625 
L 19.671875 8.296875 
L 55.171875 8.296875 
L 55.171875 0 
L 9.8125 0 
z
" id="BitstreamVeraSans-Roman-4c"/>
     </defs>
     <g transform="translate(110.0025 94.93475)scale(0.144 -0.144)">
      <use xlink:href="#BitstreamVeraSans-Roman-47"/>
      <use x="77.490234375" xlink:href="#BitstreamVeraSans-Roman-6f"/>
      <use x="138.671875" xlink:href="#BitstreamVeraSans-Roman-74"/>
      <use x="177.880859375" xlink:href="#BitstreamVeraSans-Roman-6f"/>
      <use x="239.0625" xlink:href="#BitstreamVeraSans-Roman-41"/>
      <use x="307.470703125" xlink:href="#BitstreamVeraSans-Roman-73"/>
      <use x="359.5703125" xlink:href="#BitstreamVeraSans-Roman-73"/>
      <use x="411.669921875" xlink:href="#BitstreamVeraSans-Roman-75"/>
      <use x="475.048828125" xlink:href="#BitstreamVeraSans-Roman-6d"/>
      <use x="572.4609375" xlink:href="#BitstreamVeraSans-Roman-65"/>
      <use x="633.984375" xlink:href="#BitstreamVeraSans-Roman-4c"/>
      <use x="689.728515625" xlink:href="#BitstreamVeraSans-Roman-41"/>
     </g>
    </g>
    <g id="line2d_118">
     <path d="M 74.0025 111.03125 
L 94.1625 111.03125 
" style="fill:none;stroke:#008000;stroke-linecap:square;"/>
    </g>
    <g id="line2d_119"/>
    <g id="text_20">
     <!-- ExprSimpl -->
     <defs>
      <path d="M 53.515625 70.515625 
L 53.515625 60.890625 
Q 47.90625 63.578125 42.921875 64.890625 
Q 37.9375 66.21875 33.296875 66.21875 
Q 25.25 66.21875 20.875 63.09375 
Q 16.5 59.96875 16.5 54.203125 
Q 16.5 49.359375 19.40625 46.890625 
Q 22.3125 44.4375 30.421875 42.921875 
L 36.375 41.703125 
Q 47.40625 39.59375 52.65625 34.296875 
Q 57.90625 29 57.90625 20.125 
Q 57.90625 9.515625 50.796875 4.046875 
Q 43.703125 -1.421875 29.984375 -1.421875 
Q 24.8125 -1.421875 18.96875 -0.25 
Q 13.140625 0.921875 6.890625 3.21875 
L 6.890625 13.375 
Q 12.890625 10.015625 18.65625 8.296875 
Q 24.421875 6.59375 29.984375 6.59375 
Q 38.421875 6.59375 43.015625 9.90625 
Q 47.609375 13.234375 47.609375 19.390625 
Q 47.609375 24.75 44.3125 27.78125 
Q 41.015625 30.8125 33.5 32.328125 
L 27.484375 33.5 
Q 16.453125 35.6875 11.515625 40.375 
Q 6.59375 45.0625 6.59375 53.421875 
Q 6.59375 63.09375 13.40625 68.65625 
Q 20.21875 74.21875 32.171875 74.21875 
Q 37.3125 74.21875 42.625 73.28125 
Q 47.953125 72.359375 53.515625 70.515625 
" id="BitstreamVeraSans-Roman-53"/>
      <path d="M 54.890625 54.6875 
L 35.109375 28.078125 
L 55.90625 0 
L 45.3125 0 
L 29.390625 21.484375 
L 13.484375 0 
L 2.875 0 
L 24.125 28.609375 
L 4.6875 54.6875 
L 15.28125 54.6875 
L 29.78125 35.203125 
L 44.28125 54.6875 
z
" id="BitstreamVeraSans-Roman-78"/>
     </defs>
     <g transform="translate(110.0025 116.07125)scale(0.144 -0.144)">
      <use xlink:href="#BitstreamVeraSans-Roman-45"/>
      <use x="63.18359375" xlink:href="#BitstreamVeraSans-Roman-78"/>
      <use x="122.36328125" xlink:href="#BitstreamVeraSans-Roman-70"/>
      <use x="185.83984375" xlink:href="#BitstreamVeraSans-Roman-72"/>
      <use x="226.953125" xlink:href="#BitstreamVeraSans-Roman-53"/>
      <use x="290.4296875" xlink:href="#BitstreamVeraSans-Roman-69"/>
      <use x="318.212890625" xlink:href="#BitstreamVeraSans-Roman-6d"/>
      <use x="415.625" xlink:href="#BitstreamVeraSans-Roman-70"/>
      <use x="479.1015625" xlink:href="#BitstreamVeraSans-Roman-6c"/>
     </g>
    </g>
    <g id="line2d_120">
     <path d="M 74.0025 132.16775 
L 94.1625 132.16775 
" style="fill:none;stroke:#00bfbf;stroke-linecap:square;"/>
    </g>
    <g id="line2d_121"/>
    <g id="text_21">
     <!-- ConstrIndep -->
     <defs>
      <path d="M 9.8125 72.90625 
L 19.671875 72.90625 
L 19.671875 0 
L 9.8125 0 
z
" id="BitstreamVeraSans-Roman-49"/>
      <path d="M 64.40625 67.28125 
L 64.40625 56.890625 
Q 59.421875 61.53125 53.78125 63.8125 
Q 48.140625 66.109375 41.796875 66.109375 
Q 29.296875 66.109375 22.65625 58.46875 
Q 16.015625 50.828125 16.015625 36.375 
Q 16.015625 21.96875 22.65625 14.328125 
Q 29.296875 6.6875 41.796875 6.6875 
Q 48.140625 6.6875 53.78125 8.984375 
Q 59.421875 11.28125 64.40625 15.921875 
L 64.40625 5.609375 
Q 59.234375 2.09375 53.4375 0.328125 
Q 47.65625 -1.421875 41.21875 -1.421875 
Q 24.65625 -1.421875 15.125 8.703125 
Q 5.609375 18.84375 5.609375 36.375 
Q 5.609375 53.953125 15.125 64.078125 
Q 24.65625 74.21875 41.21875 74.21875 
Q 47.75 74.21875 53.53125 72.484375 
Q 59.328125 70.75 64.40625 67.28125 
" id="BitstreamVeraSans-Roman-43"/>
     </defs>
     <g transform="translate(110.0025 137.20775)scale(0.144 -0.144)">
      <use xlink:href="#BitstreamVeraSans-Roman-43"/>
      <use x="69.82421875" xlink:href="#BitstreamVeraSans-Roman-6f"/>
      <use x="131.005859375" xlink:href="#BitstreamVeraSans-Roman-6e"/>
      <use x="194.384765625" xlink:href="#BitstreamVeraSans-Roman-73"/>
      <use x="246.484375" xlink:href="#BitstreamVeraSans-Roman-74"/>
      <use x="285.693359375" xlink:href="#BitstreamVeraSans-Roman-72"/>
      <use x="326.806640625" xlink:href="#BitstreamVeraSans-Roman-49"/>
      <use x="356.298828125" xlink:href="#BitstreamVeraSans-Roman-6e"/>
      <use x="419.677734375" xlink:href="#BitstreamVeraSans-Roman-64"/>
      <use x="483.154296875" xlink:href="#BitstreamVeraSans-Roman-65"/>
      <use x="544.677734375" xlink:href="#BitstreamVeraSans-Roman-70"/>
     </g>
    </g>
    <g id="line2d_122">
     <path d="M 74.0025 153.30425 
L 94.1625 153.30425 
" style="fill:none;stroke:#ff00ff;stroke-linecap:square;"/>
    </g>
    <g id="line2d_123"/>
    <g id="text_22">
     <!-- RemSomeRecur -->
     <g transform="translate(110.0025 158.34425)scale(0.144 -0.144)">
      <use xlink:href="#BitstreamVeraSans-Roman-52"/>
      <use x="69.419921875" xlink:href="#BitstreamVeraSans-Roman-65"/>
      <use x="130.943359375" xlink:href="#BitstreamVeraSans-Roman-6d"/>
      <use x="228.35546875" xlink:href="#BitstreamVeraSans-Roman-53"/>
      <use x="291.83203125" xlink:href="#BitstreamVeraSans-Roman-6f"/>
      <use x="353.013671875" xlink:href="#BitstreamVeraSans-Roman-6d"/>
      <use x="450.42578125" xlink:href="#BitstreamVeraSans-Roman-65"/>
      <use x="511.94921875" xlink:href="#BitstreamVeraSans-Roman-52"/>
      <use x="581.369140625" xlink:href="#BitstreamVeraSans-Roman-65"/>
      <use x="642.892578125" xlink:href="#BitstreamVeraSans-Roman-63"/>
      <use x="697.873046875" xlink:href="#BitstreamVeraSans-Roman-75"/>
      <use x="761.251953125" xlink:href="#BitstreamVeraSans-Roman-72"/>
     </g>
    </g>
    <g id="line2d_124">
     <path d="M 258.66675 47.62175 
L 278.82675 47.62175 
" style="fill:none;stroke:#ff7f50;stroke-linecap:square;"/>
    </g>
    <g id="line2d_125"/>
    <g id="text_23">
     <!-- RemSomeDbg -->
     <defs>
      <path d="M 45.40625 27.984375 
Q 45.40625 37.75 41.375 43.109375 
Q 37.359375 48.484375 30.078125 48.484375 
Q 22.859375 48.484375 18.828125 43.109375 
Q 14.796875 37.75 14.796875 27.984375 
Q 14.796875 18.265625 18.828125 12.890625 
Q 22.859375 7.515625 30.078125 7.515625 
Q 37.359375 7.515625 41.375 12.890625 
Q 45.40625 18.265625 45.40625 27.984375 
M 54.390625 6.78125 
Q 54.390625 -7.171875 48.1875 -13.984375 
Q 42 -20.796875 29.203125 -20.796875 
Q 24.46875 -20.796875 20.265625 -20.09375 
Q 16.0625 -19.390625 12.109375 -17.921875 
L 12.109375 -9.1875 
Q 16.0625 -11.328125 19.921875 -12.34375 
Q 23.78125 -13.375 27.78125 -13.375 
Q 36.625 -13.375 41.015625 -8.765625 
Q 45.40625 -4.15625 45.40625 5.171875 
L 45.40625 9.625 
Q 42.625 4.78125 38.28125 2.390625 
Q 33.9375 0 27.875 0 
Q 17.828125 0 11.671875 7.65625 
Q 5.515625 15.328125 5.515625 27.984375 
Q 5.515625 40.671875 11.671875 48.328125 
Q 17.828125 56 27.875 56 
Q 33.9375 56 38.28125 53.609375 
Q 42.625 51.21875 45.40625 46.390625 
L 45.40625 54.6875 
L 54.390625 54.6875 
z
" id="BitstreamVeraSans-Roman-67"/>
     </defs>
     <g transform="translate(294.66675 52.66175)scale(0.144 -0.144)">
      <use xlink:href="#BitstreamVeraSans-Roman-52"/>
      <use x="69.419921875" xlink:href="#BitstreamVeraSans-Roman-65"/>
      <use x="130.943359375" xlink:href="#BitstreamVeraSans-Roman-6d"/>
      <use x="228.35546875" xlink:href="#BitstreamVeraSans-Roman-53"/>
      <use x="291.83203125" xlink:href="#BitstreamVeraSans-Roman-6f"/>
      <use x="353.013671875" xlink:href="#BitstreamVeraSans-Roman-6d"/>
      <use x="450.42578125" xlink:href="#BitstreamVeraSans-Roman-65"/>
      <use x="511.94921875" xlink:href="#BitstreamVeraSans-Roman-44"/>
      <use x="588.951171875" xlink:href="#BitstreamVeraSans-Roman-62"/>
      <use x="652.427734375" xlink:href="#BitstreamVeraSans-Roman-67"/>
     </g>
    </g>
    <g id="line2d_126">
     <path d="M 258.66675 68.75825 
L 278.82675 68.75825 
" style="fill:none;stroke:#0000ff;stroke-linecap:square;"/>
    </g>
    <g id="line2d_127"/>
    <g id="text_24">
     <!-- MapConstIdx -->
     <defs>
      <path d="M 9.8125 72.90625 
L 24.515625 72.90625 
L 43.109375 23.296875 
L 61.8125 72.90625 
L 76.515625 72.90625 
L 76.515625 0 
L 66.890625 0 
L 66.890625 64.015625 
L 48.09375 14.015625 
L 38.1875 14.015625 
L 19.390625 64.015625 
L 19.390625 0 
L 9.8125 0 
z
" id="BitstreamVeraSans-Roman-4d"/>
     </defs>
     <g transform="translate(294.66675 73.79825)scale(0.144 -0.144)">
      <use xlink:href="#BitstreamVeraSans-Roman-4d"/>
      <use x="86.279296875" xlink:href="#BitstreamVeraSans-Roman-61"/>
      <use x="147.55859375" xlink:href="#BitstreamVeraSans-Roman-70"/>
      <use x="211.03515625" xlink:href="#BitstreamVeraSans-Roman-43"/>
      <use x="280.859375" xlink:href="#BitstreamVeraSans-Roman-6f"/>
      <use x="342.041015625" xlink:href="#BitstreamVeraSans-Roman-6e"/>
      <use x="405.419921875" xlink:href="#BitstreamVeraSans-Roman-73"/>
      <use x="457.51953125" xlink:href="#BitstreamVeraSans-Roman-74"/>
      <use x="496.728515625" xlink:href="#BitstreamVeraSans-Roman-49"/>
      <use x="526.220703125" xlink:href="#BitstreamVeraSans-Roman-64"/>
      <use x="589.697265625" xlink:href="#BitstreamVeraSans-Roman-78"/>
     </g>
    </g>
    <g id="line2d_128">
     <path d="M 258.66675 89.89475 
L 278.82675 89.89475 
" style="fill:none;stroke:#7fff00;stroke-linecap:square;"/>
    </g>
    <g id="line2d_129"/>
    <g id="text_25">
     <!-- MapSymIdx -->
     <defs>
      <path d="M 32.171875 -5.078125 
Q 28.375 -14.84375 24.75 -17.8125 
Q 21.140625 -20.796875 15.09375 -20.796875 
L 7.90625 -20.796875 
L 7.90625 -13.28125 
L 13.1875 -13.28125 
Q 16.890625 -13.28125 18.9375 -11.515625 
Q 21 -9.765625 23.484375 -3.21875 
L 25.09375 0.875 
L 2.984375 54.6875 
L 12.5 54.6875 
L 29.59375 11.921875 
L 46.6875 54.6875 
L 56.203125 54.6875 
z
" id="BitstreamVeraSans-Roman-79"/>
     </defs>
     <g transform="translate(294.66675 94.93475)scale(0.144 -0.144)">
      <use xlink:href="#BitstreamVeraSans-Roman-4d"/>
      <use x="86.279296875" xlink:href="#BitstreamVeraSans-Roman-61"/>
      <use x="147.55859375" xlink:href="#BitstreamVeraSans-Roman-70"/>
      <use x="211.03515625" xlink:href="#BitstreamVeraSans-Roman-53"/>
      <use x="274.51171875" xlink:href="#BitstreamVeraSans-Roman-79"/>
      <use x="333.69140625" xlink:href="#BitstreamVeraSans-Roman-6d"/>
      <use x="431.103515625" xlink:href="#BitstreamVeraSans-Roman-49"/>
      <use x="460.595703125" xlink:href="#BitstreamVeraSans-Roman-64"/>
      <use x="524.072265625" xlink:href="#BitstreamVeraSans-Roman-78"/>
     </g>
    </g>
    <g id="line2d_130">
     <path d="M 258.66675 111.03125 
L 278.82675 111.03125 
" style="fill:none;stroke:#8b4513;stroke-linecap:square;"/>
    </g>
    <g id="line2d_131"/>
    <g id="text_26">
     <!-- EffcntClone -->
     <defs>
      <path d="M 37.109375 75.984375 
L 37.109375 68.5 
L 28.515625 68.5 
Q 23.6875 68.5 21.796875 66.546875 
Q 19.921875 64.59375 19.921875 59.515625 
L 19.921875 54.6875 
L 34.71875 54.6875 
L 34.71875 47.703125 
L 19.921875 47.703125 
L 19.921875 0 
L 10.890625 0 
L 10.890625 47.703125 
L 2.296875 47.703125 
L 2.296875 54.6875 
L 10.890625 54.6875 
L 10.890625 58.5 
Q 10.890625 67.625 15.140625 71.796875 
Q 19.390625 75.984375 28.609375 75.984375 
z
" id="BitstreamVeraSans-Roman-66"/>
     </defs>
     <g transform="translate(294.66675 116.07125)scale(0.144 -0.144)">
      <use xlink:href="#BitstreamVeraSans-Roman-45"/>
      <use x="63.18359375" xlink:href="#BitstreamVeraSans-Roman-66"/>
      <use x="98.388671875" xlink:href="#BitstreamVeraSans-Roman-66"/>
      <use x="133.59375" xlink:href="#BitstreamVeraSans-Roman-63"/>
      <use x="188.57421875" xlink:href="#BitstreamVeraSans-Roman-6e"/>
      <use x="251.953125" xlink:href="#BitstreamVeraSans-Roman-74"/>
      <use x="291.162109375" xlink:href="#BitstreamVeraSans-Roman-43"/>
      <use x="360.986328125" xlink:href="#BitstreamVeraSans-Roman-6c"/>
      <use x="388.76953125" xlink:href="#BitstreamVeraSans-Roman-6f"/>
      <use x="449.951171875" xlink:href="#BitstreamVeraSans-Roman-6e"/>
      <use x="513.330078125" xlink:href="#BitstreamVeraSans-Roman-65"/>
     </g>
    </g>
    <g id="line2d_132">
     <path d="M 258.66675 132.16775 
L 278.82675 132.16775 
" style="fill:none;stroke:#8b008b;stroke-linecap:square;"/>
    </g>
    <g id="line2d_133"/>
    <g id="text_27">
     <!-- SmplSolv -->
     <defs>
      <path d="M 2.984375 54.6875 
L 12.5 54.6875 
L 29.59375 8.796875 
L 46.6875 54.6875 
L 56.203125 54.6875 
L 35.6875 0 
L 23.484375 0 
z
" id="BitstreamVeraSans-Roman-76"/>
     </defs>
     <g transform="translate(294.66675 137.20775)scale(0.144 -0.144)">
      <use xlink:href="#BitstreamVeraSans-Roman-53"/>
      <use x="63.4765625" xlink:href="#BitstreamVeraSans-Roman-6d"/>
      <use x="160.888671875" xlink:href="#BitstreamVeraSans-Roman-70"/>
      <use x="224.365234375" xlink:href="#BitstreamVeraSans-Roman-6c"/>
      <use x="252.1484375" xlink:href="#BitstreamVeraSans-Roman-53"/>
      <use x="315.625" xlink:href="#BitstreamVeraSans-Roman-6f"/>
      <use x="376.806640625" xlink:href="#BitstreamVeraSans-Roman-6c"/>
      <use x="404.58984375" xlink:href="#BitstreamVeraSans-Roman-76"/>
     </g>
    </g>
   </g>
  </g>
 </g>
 <defs>
  <clipPath id="pad1ef1dbc6">
   <rect height="357.88" width="498.72375" x="56.7225" y="28.76"/>
  </clipPath>
 </defs>
</svg>
