<?xml version="1.0" encoding="utf-8" standalone="no"?>
<!DOCTYPE svg PUBLIC "-//W3C//DTD SVG 1.1//EN"
  "http://www.w3.org/Graphics/SVG/1.1/DTD/svg11.dtd">
<!-- Created with matplotlib (http://matplotlib.org/) -->
<svg height="432pt" version="1.1" viewBox="0 0 576 432" width="576pt" xmlns="http://www.w3.org/2000/svg" xmlns:xlink="http://www.w3.org/1999/xlink">
 <defs>
  <style type="text/css">
*{stroke-linecap:butt;stroke-linejoin:round;stroke-miterlimit:100000;}
  </style>
 </defs>
 <g id="figure_1">
  <g id="patch_1">
   <path d="M 0 432 
L 576 432 
L 576 0 
L 0 0 
z
" style="fill:#ffffff;"/>
  </g>
  <g id="axes_1">
   <g id="patch_2">
    <path d="M 56.7225 386.64 
L 555.39 386.64 
L 555.39 28.76 
L 56.7225 28.76 
z
" style="fill:#ffffff;"/>
   </g>
   <g id="line2d_1">
    <path clip-path="url(#pa592226cfe)" d="M 56.7225 386.64 
" style="fill:none;stroke:#000000;stroke-linecap:square;"/>
   </g>
   <g id="line2d_2">
    <path clip-path="url(#pa592226cfe)" d="M 56.7225 369.598887 
L 65.033625 369.598887 
L 73.34475 369.08689 
L 81.655875 368.511042 
L 89.967 367.634948 
L 98.278125 367.217136 
L 106.58925 366.945929 
L 114.900375 366.869559 
L 123.2115 366.396407 
L 131.522625 366.388636 
L 139.83375 366.367784 
L 148.144875 364.109382 
L 156.456 361.954746 
L 164.767125 360.870892 
L 173.07825 359.835929 
L 181.389375 359.025367 
L 189.7005 358.02013 
L 198.011625 357.858862 
L 206.32275 356.636873 
L 214.633875 354.071762 
L 222.945 346.869745 
L 231.256125 330.787579 
L 239.56725 330.610528 
L 247.878375 330.546258 
L 256.1895 329.704909 
L 264.500625 329.704268 
L 272.81175 329.666212 
L 281.122875 327.578833 
L 289.434 324.134937 
L 297.745125 318.874595 
L 306.05625 314.196227 
L 314.367375 313.440726 
L 322.6785 308.496126 
L 330.989625 299.311522 
L 339.30075 293.74085 
L 347.611875 282.495615 
L 355.923 269.24207 
L 364.234125 263.487245 
L 372.54525 253.278388 
L 380.856375 237.423076 
L 389.1675 229.282705 
L 397.478625 208.924909 
L 405.78975 188.212744 
L 414.100875 187.551106 
L 422.412 85.276561 
" style="fill:none;stroke:#ff0000;stroke-linecap:square;"/>
   </g>
   <g id="line2d_3">
    <path clip-path="url(#pa592226cfe)" d="M 56.7225 369.409526 
L 65.033625 369.409526 
L 73.34475 369.324928 
L 81.655875 368.595067 
L 89.967 367.858816 
L 98.278125 367.682564 
L 106.58925 366.600761 
L 114.900375 366.52632 
L 123.2115 366.375931 
L 131.522625 365.723183 
L 139.83375 365.511557 
L 148.144875 364.64898 
L 156.456 364.462513 
L 164.767125 359.597352 
L 173.07825 358.691388 
L 181.389375 358.33365 
L 189.7005 358.219287 
L 198.011625 357.624821 
L 206.32275 357.345166 
L 214.633875 357.125918 
L 222.945 354.417422 
L 231.256125 349.642698 
L 239.56725 327.143088 
L 247.878375 325.761469 
L 256.1895 325.435161 
L 264.500625 325.007891 
L 272.81175 324.867019 
L 281.122875 323.934229 
L 289.434 323.480611 
L 297.745125 314.913867 
L 306.05625 314.446472 
L 314.367375 310.99512 
L 322.6785 310.820583 
L 330.989625 305.228107 
L 339.30075 294.54592 
L 347.611875 288.128767 
L 355.923 280.827598 
L 364.234125 267.667078 
L 372.54525 262.67975 
L 380.856375 252.741112 
L 389.1675 240.35891 
L 397.478625 229.045693 
L 405.78975 210.316822 
L 414.100875 190.174144 
L 422.412 189.10779 
L 430.723125 85.628164 
" style="fill:none;stroke:#bfbf00;stroke-linecap:square;"/>
   </g>
   <g id="line2d_4">
    <path clip-path="url(#pa592226cfe)" d="M 56.7225 368.987528 
L 65.033625 368.987528 
L 73.34475 368.590214 
L 81.655875 368.337365 
L 89.967 368.312238 
L 98.278125 368.050656 
L 106.58925 368.015973 
L 114.900375 367.908774 
L 123.2115 367.698104 
L 131.522625 367.469366 
L 139.83375 367.455804 
L 148.144875 366.714573 
L 156.456 365.582194 
L 164.767125 364.187432 
L 173.07825 364.126485 
L 181.389375 362.806707 
L 189.7005 362.259726 
L 198.011625 361.887477 
L 206.32275 361.353873 
L 214.633875 360.021561 
L 222.945 356.277697 
L 231.256125 350.331279 
L 239.56725 350.206618 
L 247.878375 349.838509 
L 256.1895 349.644185 
L 264.500625 349.391167 
L 272.81175 349.32636 
L 281.122875 348.833727 
L 289.434 348.634047 
L 297.745125 348.494525 
L 306.05625 347.997976 
L 314.367375 347.665349 
L 322.6785 346.8932 
L 330.989625 346.848115 
L 339.30075 345.153983 
L 347.611875 342.052698 
L 355.923 340.272681 
L 364.234125 338.982383 
L 372.54525 337.574964 
L 380.856375 337.06435 
L 389.1675 334.69096 
L 397.478625 334.146314 
L 405.78975 332.909891 
L 414.100875 330.336114 
L 422.412 329.170682 
L 430.723125 241.117602 
L 439.03425 126.39422 
L 447.345375 92.192829 
L 455.6565 79.366741 
L 463.967625 72.481373 
L 472.27875 64.141495 
L 480.589875 53.16549 
" style="fill:none;stroke:#008000;stroke-linecap:square;"/>
   </g>
   <g id="line2d_5">
    <path clip-path="url(#pa592226cfe)" d="M 56.7225 372.833577 
L 65.033625 372.833577 
L 73.34475 370.884806 
L 81.655875 370.870338 
L 89.967 370.851994 
L 98.278125 369.847097 
L 106.58925 369.821942 
L 114.900375 369.425356 
L 123.2115 368.858165 
L 131.522625 367.373535 
L 139.83375 366.604762 
L 148.144875 365.920458 
L 156.456 365.610649 
L 164.767125 365.265457 
L 173.07825 365.222664 
L 181.389375 365.089865 
L 189.7005 364.942752 
L 198.011625 364.326555 
L 206.32275 364.207785 
L 214.633875 363.54934 
L 222.945 358.3871 
L 231.256125 358.240705 
L 239.56725 353.647777 
L 247.878375 352.329397 
L 256.1895 351.977513 
L 264.500625 351.735256 
L 272.81175 351.407323 
L 281.122875 350.758836 
L 289.434 350.746569 
L 297.745125 350.698795 
L 306.05625 350.374642 
L 314.367375 349.745093 
L 322.6785 348.710831 
L 330.989625 348.611416 
L 339.30075 348.484602 
L 347.611875 348.039219 
L 355.923 346.142231 
L 364.234125 343.643565 
L 372.54525 343.328834 
L 380.856375 342.061053 
L 389.1675 341.045332 
L 397.478625 339.703332 
L 405.78975 339.000051 
L 414.100875 336.560722 
L 422.412 334.64044 
L 430.723125 333.528363 
L 439.03425 243.05102 
L 447.345375 127.499037 
L 455.6565 120.409989 
L 463.967625 106.631939 
L 472.27875 96.36975 
L 480.589875 85.631378 
L 488.901 72.058148 
" style="fill:none;stroke:#00bfbf;stroke-linecap:square;"/>
   </g>
   <g id="line2d_6">
    <path clip-path="url(#pa592226cfe)" d="M 56.7225 372.078799 
L 65.033625 372.078799 
L 73.34475 371.555858 
L 81.655875 371.474763 
L 89.967 370.041744 
L 98.278125 369.786704 
L 106.58925 369.639867 
L 114.900375 369.288575 
L 123.2115 369.160371 
L 131.522625 368.976723 
L 139.83375 368.919027 
L 148.144875 368.74718 
L 156.456 368.728893 
L 164.767125 368.127119 
L 173.07825 366.262923 
L 181.389375 366.221324 
L 189.7005 365.371349 
L 198.011625 364.682096 
L 206.32275 364.345307 
L 214.633875 363.74552 
L 222.945 363.136431 
L 231.256125 360.319924 
L 239.56725 352.959516 
L 247.878375 352.331569 
L 256.1895 351.003865 
L 264.500625 350.627432 
L 272.81175 350.583989 
L 281.122875 350.437715 
L 289.434 350.328717 
L 297.745125 350.082811 
L 306.05625 350.04618 
L 314.367375 349.608477 
L 322.6785 349.271462 
L 330.989625 348.682453 
L 339.30075 348.231411 
L 347.611875 347.875542 
L 355.923 345.901314 
L 364.234125 343.077225 
L 372.54525 341.940101 
L 380.856375 341.860963 
L 389.1675 341.061998 
L 397.478625 337.205167 
L 405.78975 336.623667 
L 414.100875 335.933976 
L 422.412 333.786369 
L 430.723125 333.461036 
L 439.03425 241.960698 
L 447.345375 128.382657 
L 455.6565 116.809453 
L 463.967625 104.899953 
L 472.27875 93.393725 
L 480.589875 81.180999 
L 488.901 70.45163 
L 497.212125 70.1932 
L 505.52325 34.319428 
" style="fill:none;stroke:#ff00ff;stroke-linecap:square;"/>
   </g>
   <g id="line2d_7">
    <path clip-path="url(#pa592226cfe)" d="M 56.7225 373.946708 
L 65.033625 373.946708 
L 73.34475 371.87819 
L 81.655875 371.669164 
L 89.967 371.585882 
L 98.278125 371.135218 
L 106.58925 369.433636 
L 114.900375 369.369541 
L 123.2115 369.360693 
L 131.522625 369.138201 
L 139.83375 368.875055 
L 148.144875 368.832281 
L 156.456 368.807484 
L 164.767125 368.481046 
L 173.07825 368.27154 
L 181.389375 368.097284 
L 189.7005 366.652535 
L 198.011625 365.778167 
L 206.32275 365.337367 
L 214.633875 364.841173 
L 222.945 363.191894 
L 231.256125 358.983023 
L 239.56725 352.344569 
L 247.878375 352.161547 
L 256.1895 352.070305 
L 264.500625 351.444877 
L 272.81175 350.74295 
L 281.122875 349.941016 
L 289.434 349.933643 
L 297.745125 349.919907 
L 306.05625 349.765083 
L 314.367375 349.654864 
L 322.6785 349.577823 
L 330.989625 349.146007 
L 339.30075 348.57972 
L 347.611875 345.947182 
L 355.923 344.858983 
L 364.234125 344.410355 
L 372.54525 344.334503 
L 380.856375 341.440546 
L 389.1675 339.637793 
L 397.478625 339.212468 
L 405.78975 337.997691 
L 414.100875 337.151329 
L 422.412 334.906604 
L 430.723125 334.649447 
L 439.03425 242.0408 
L 447.345375 128.841761 
L 455.6565 120.757847 
L 463.967625 106.77724 
L 472.27875 96.362791 
L 480.589875 87.001393 
L 488.901 69.894951 
L 497.212125 60.010929 
L 505.52325 34.26389 
" style="fill:none;stroke:#ff7f50;stroke-linecap:square;"/>
   </g>
   <g id="line2d_8">
    <path clip-path="url(#pa592226cfe)" d="M 56.7225 372.856923 
L 65.033625 372.856923 
L 73.34475 372.62971 
L 81.655875 371.321134 
L 89.967 370.803835 
L 98.278125 370.752225 
L 106.58925 370.153403 
L 114.900375 370.097875 
L 123.2115 369.516624 
L 131.522625 369.115638 
L 139.83375 368.900877 
L 148.144875 368.861425 
L 156.456 367.805998 
L 164.767125 367.277177 
L 173.07825 367.198544 
L 181.389375 366.905617 
L 189.7005 366.73122 
L 198.011625 366.549479 
L 206.32275 366.188764 
L 214.633875 364.716127 
L 222.945 364.456865 
L 231.256125 359.439436 
L 239.56725 350.498913 
L 247.878375 350.385179 
L 256.1895 350.064901 
L 264.500625 349.822013 
L 272.81175 349.371432 
L 281.122875 349.125868 
L 289.434 349.081849 
L 297.745125 348.887871 
L 306.05625 348.856988 
L 314.367375 348.779978 
L 322.6785 348.400637 
L 330.989625 348.280127 
L 339.30075 347.027141 
L 347.611875 346.020448 
L 355.923 345.360271 
L 364.234125 342.494702 
L 372.54525 342.424424 
L 380.856375 341.127698 
L 389.1675 340.581036 
L 397.478625 337.266424 
L 405.78975 336.252697 
L 414.100875 335.792551 
L 422.412 333.865323 
L 430.723125 333.150799 
L 439.03425 244.068043 
L 447.345375 128.312302 
L 455.6565 117.89607 
L 463.967625 103.034531 
L 472.27875 92.904796 
L 480.589875 84.129907 
L 488.901 69.551745 
L 497.212125 59.341889 
" style="fill:none;stroke:#0000ff;stroke-linecap:square;"/>
   </g>
   <g id="line2d_9">
    <path clip-path="url(#pa592226cfe)" d="M 56.7225 372.616223 
L 65.033625 372.616223 
L 73.34475 372.340523 
L 81.655875 371.357228 
L 89.967 370.759476 
L 98.278125 370.412227 
L 106.58925 369.416908 
L 114.900375 368.587888 
L 123.2115 368.028097 
L 131.522625 367.760147 
L 139.83375 367.692335 
L 148.144875 367.323354 
L 156.456 367.232048 
L 164.767125 367.141728 
L 173.07825 366.89967 
L 181.389375 366.620542 
L 189.7005 365.914408 
L 198.011625 365.743564 
L 206.32275 365.458531 
L 214.633875 363.481087 
L 222.945 362.301398 
L 231.256125 359.618999 
L 239.56725 352.848532 
L 247.878375 350.3406 
L 256.1895 349.981842 
L 264.500625 349.899827 
L 272.81175 349.794607 
L 281.122875 349.562316 
L 289.434 349.414831 
L 297.745125 349.334136 
L 306.05625 348.951944 
L 314.367375 348.2817 
L 322.6785 347.770162 
L 330.989625 347.676798 
L 339.30075 347.011348 
L 347.611875 346.849893 
L 355.923 345.894315 
L 364.234125 342.565258 
L 372.54525 342.352592 
L 380.856375 341.510962 
L 389.1675 340.384912 
L 397.478625 339.674872 
L 405.78975 337.912694 
L 414.100875 334.60412 
L 422.412 333.778833 
L 430.723125 332.886997 
L 439.03425 237.791394 
L 447.345375 135.416874 
L 455.6565 132.436319 
L 463.967625 117.769302 
L 472.27875 117.094399 
L 480.589875 114.549177 
L 488.901 103.492513 
L 497.212125 91.711073 
L 505.52325 82.37657 
L 513.834375 82.049124 
L 522.1455 60.557647 
L 530.456625 42.154774 
" style="fill:none;stroke:#7fff00;stroke-linecap:square;"/>
   </g>
   <g id="line2d_10">
    <path clip-path="url(#pa592226cfe)" d="M 56.7225 371.844487 
L 65.033625 371.844487 
L 73.34475 371.257206 
L 81.655875 370.369889 
L 89.967 370.201602 
L 98.278125 369.234029 
L 106.58925 368.711496 
L 114.900375 367.988081 
L 123.2115 367.962888 
L 131.522625 367.749729 
L 139.83375 367.632803 
L 148.144875 366.838263 
L 156.456 366.513268 
L 164.767125 366.42359 
L 173.07825 365.841875 
L 181.389375 365.500198 
L 189.7005 365.241888 
L 198.011625 364.770961 
L 206.32275 364.073688 
L 214.633875 363.887461 
L 222.945 363.317567 
L 231.256125 360.274728 
L 239.56725 351.704621 
L 247.878375 351.551767 
L 256.1895 350.644216 
L 264.500625 350.623159 
L 272.81175 350.50515 
L 281.122875 350.222554 
L 289.434 349.897649 
L 297.745125 349.119824 
L 306.05625 348.788178 
L 314.367375 348.409371 
L 322.6785 347.879356 
L 330.989625 347.817168 
L 339.30075 346.893761 
L 347.611875 345.561584 
L 355.923 343.724698 
L 364.234125 343.439803 
L 372.54525 342.017557 
L 380.856375 341.549068 
L 389.1675 339.605528 
L 397.478625 337.748277 
L 405.78975 334.845446 
L 414.100875 332.972246 
L 422.412 331.866217 
L 430.723125 330.882887 
L 439.03425 236.411992 
L 447.345375 132.586178 
L 455.6565 128.209105 
L 463.967625 118.38963 
L 472.27875 111.060889 
L 480.589875 108.469366 
L 488.901 102.506226 
L 497.212125 92.812177 
L 505.52325 85.272569 
L 513.834375 74.787623 
L 522.1455 64.611633 
L 530.456625 40.297297 
" style="fill:none;stroke:#8b4513;stroke-linecap:square;"/>
   </g>
   <g id="line2d_11">
    <path clip-path="url(#pa592226cfe)" d="M 56.7225 370.940561 
L 65.033625 370.940561 
L 73.34475 370.820081 
L 81.655875 370.758435 
L 89.967 370.723785 
L 98.278125 370.458421 
L 106.58925 366.985818 
L 114.900375 366.918793 
L 123.2115 366.901436 
L 131.522625 366.692427 
L 139.83375 366.467942 
L 148.144875 365.949693 
L 156.456 365.75768 
L 164.767125 365.672401 
L 173.07825 365.100252 
L 181.389375 364.876646 
L 189.7005 364.544863 
L 198.011625 363.771992 
L 206.32275 363.584396 
L 214.633875 363.165582 
L 222.945 362.439869 
L 231.256125 358.289366 
L 239.56725 350.576652 
L 247.878375 350.534934 
L 256.1895 350.419159 
L 264.500625 349.95085 
L 272.81175 349.920158 
L 281.122875 349.819384 
L 289.434 349.368577 
L 297.745125 349.227168 
L 306.05625 348.054655 
L 314.367375 347.360355 
L 322.6785 347.301453 
L 330.989625 346.931377 
L 339.30075 346.905308 
L 347.611875 345.877328 
L 355.923 344.13563 
L 364.234125 343.374989 
L 372.54525 342.758564 
L 380.856375 342.164708 
L 389.1675 340.840646 
L 397.478625 338.902023 
L 405.78975 338.329644 
L 414.100875 337.605113 
L 422.412 337.274118 
L 430.723125 331.073026 
L 439.03425 240.396152 
L 447.345375 203.169376 
L 455.6565 129.222422 
L 463.967625 118.191027 
L 472.27875 111.162211 
L 480.589875 108.5291 
L 488.901 104.199742 
L 497.212125 94.875067 
L 505.52325 94.785623 
L 513.834375 82.52753 
L 522.1455 75.844743 
L 530.456625 66.097974 
" style="fill:none;stroke:#8b008b;stroke-linecap:square;"/>
   </g>
   <g id="patch_3">
    <path d="M 555.39 386.64 
L 555.39 28.76 
" style="fill:none;stroke:#000000;stroke-linecap:square;stroke-linejoin:miter;"/>
   </g>
   <g id="patch_4">
    <path d="M 56.7225 28.76 
L 555.39 28.76 
" style="fill:none;stroke:#000000;stroke-linecap:square;stroke-linejoin:miter;"/>
   </g>
   <g id="patch_5">
    <path d="M 56.7225 386.64 
L 555.39 386.64 
" style="fill:none;stroke:#000000;stroke-linecap:square;stroke-linejoin:miter;"/>
   </g>
   <g id="patch_6">
    <path d="M 56.7225 386.64 
L 56.7225 28.76 
" style="fill:none;stroke:#000000;stroke-linecap:square;stroke-linejoin:miter;"/>
   </g>
   <g id="matplotlib.axis_1">
    <g id="xtick_1">
     <g id="line2d_12">
      <defs>
       <path d="M 0 0 
L 0 -4 
" id="m612ecd1c5b" style="stroke:#000000;stroke-width:0.5;"/>
      </defs>
      <g>
       <use style="stroke:#000000;stroke-width:0.5;" x="56.7225" xlink:href="#m612ecd1c5b" y="386.64"/>
      </g>
     </g>
     <g id="line2d_13">
      <defs>
       <path d="M 0 0 
L 0 4 
" id="mb51e7a2539" style="stroke:#000000;stroke-width:0.5;"/>
      </defs>
      <g>
       <use style="stroke:#000000;stroke-width:0.5;" x="56.7225" xlink:href="#mb51e7a2539" y="28.76"/>
      </g>
     </g>
     <g id="text_1">
      <!-- 0 -->
      <defs>
       <path d="M 31.78125 66.40625 
Q 24.171875 66.40625 20.328125 58.90625 
Q 16.5 51.421875 16.5 36.375 
Q 16.5 21.390625 20.328125 13.890625 
Q 24.171875 6.390625 31.78125 6.390625 
Q 39.453125 6.390625 43.28125 13.890625 
Q 47.125 21.390625 47.125 36.375 
Q 47.125 51.421875 43.28125 58.90625 
Q 39.453125 66.40625 31.78125 66.40625 
M 31.78125 74.21875 
Q 44.046875 74.21875 50.515625 64.515625 
Q 56.984375 54.828125 56.984375 36.375 
Q 56.984375 17.96875 50.515625 8.265625 
Q 44.046875 -1.421875 31.78125 -1.421875 
Q 19.53125 -1.421875 13.0625 8.265625 
Q 6.59375 17.96875 6.59375 36.375 
Q 6.59375 54.828125 13.0625 64.515625 
Q 19.53125 74.21875 31.78125 74.21875 
" id="BitstreamVeraSans-Roman-30"/>
      </defs>
      <g transform="translate(52.905 399.758125)scale(0.12 -0.12)">
       <use xlink:href="#BitstreamVeraSans-Roman-30"/>
      </g>
     </g>
    </g>
    <g id="xtick_2">
     <g id="line2d_14">
      <g>
       <use style="stroke:#000000;stroke-width:0.5;" x="139.83375" xlink:href="#m612ecd1c5b" y="386.64"/>
      </g>
     </g>
     <g id="line2d_15">
      <g>
       <use style="stroke:#000000;stroke-width:0.5;" x="139.83375" xlink:href="#mb51e7a2539" y="28.76"/>
      </g>
     </g>
     <g id="text_2">
      <!-- 10 -->
      <defs>
       <path d="M 12.40625 8.296875 
L 28.515625 8.296875 
L 28.515625 63.921875 
L 10.984375 60.40625 
L 10.984375 69.390625 
L 28.421875 72.90625 
L 38.28125 72.90625 
L 38.28125 8.296875 
L 54.390625 8.296875 
L 54.390625 0 
L 12.40625 0 
z
" id="BitstreamVeraSans-Roman-31"/>
      </defs>
      <g transform="translate(132.19875 399.758125)scale(0.12 -0.12)">
       <use xlink:href="#BitstreamVeraSans-Roman-31"/>
       <use x="63.623046875" xlink:href="#BitstreamVeraSans-Roman-30"/>
      </g>
     </g>
    </g>
    <g id="xtick_3">
     <g id="line2d_16">
      <g>
       <use style="stroke:#000000;stroke-width:0.5;" x="222.945" xlink:href="#m612ecd1c5b" y="386.64"/>
      </g>
     </g>
     <g id="line2d_17">
      <g>
       <use style="stroke:#000000;stroke-width:0.5;" x="222.945" xlink:href="#mb51e7a2539" y="28.76"/>
      </g>
     </g>
     <g id="text_3">
      <!-- 20 -->
      <defs>
       <path d="M 19.1875 8.296875 
L 53.609375 8.296875 
L 53.609375 0 
L 7.328125 0 
L 7.328125 8.296875 
Q 12.9375 14.109375 22.625 23.890625 
Q 32.328125 33.6875 34.8125 36.53125 
Q 39.546875 41.84375 41.421875 45.53125 
Q 43.3125 49.21875 43.3125 52.78125 
Q 43.3125 58.59375 39.234375 62.25 
Q 35.15625 65.921875 28.609375 65.921875 
Q 23.96875 65.921875 18.8125 64.3125 
Q 13.671875 62.703125 7.8125 59.421875 
L 7.8125 69.390625 
Q 13.765625 71.78125 18.9375 73 
Q 24.125 74.21875 28.421875 74.21875 
Q 39.75 74.21875 46.484375 68.546875 
Q 53.21875 62.890625 53.21875 53.421875 
Q 53.21875 48.921875 51.53125 44.890625 
Q 49.859375 40.875 45.40625 35.40625 
Q 44.1875 33.984375 37.640625 27.21875 
Q 31.109375 20.453125 19.1875 8.296875 
" id="BitstreamVeraSans-Roman-32"/>
      </defs>
      <g transform="translate(215.31 399.758125)scale(0.12 -0.12)">
       <use xlink:href="#BitstreamVeraSans-Roman-32"/>
       <use x="63.623046875" xlink:href="#BitstreamVeraSans-Roman-30"/>
      </g>
     </g>
    </g>
    <g id="xtick_4">
     <g id="line2d_18">
      <g>
       <use style="stroke:#000000;stroke-width:0.5;" x="306.05625" xlink:href="#m612ecd1c5b" y="386.64"/>
      </g>
     </g>
     <g id="line2d_19">
      <g>
       <use style="stroke:#000000;stroke-width:0.5;" x="306.05625" xlink:href="#mb51e7a2539" y="28.76"/>
      </g>
     </g>
     <g id="text_4">
      <!-- 30 -->
      <defs>
       <path d="M 40.578125 39.3125 
Q 47.65625 37.796875 51.625 33 
Q 55.609375 28.21875 55.609375 21.1875 
Q 55.609375 10.40625 48.1875 4.484375 
Q 40.765625 -1.421875 27.09375 -1.421875 
Q 22.515625 -1.421875 17.65625 -0.515625 
Q 12.796875 0.390625 7.625 2.203125 
L 7.625 11.71875 
Q 11.71875 9.328125 16.59375 8.109375 
Q 21.484375 6.890625 26.8125 6.890625 
Q 36.078125 6.890625 40.9375 10.546875 
Q 45.796875 14.203125 45.796875 21.1875 
Q 45.796875 27.640625 41.28125 31.265625 
Q 36.765625 34.90625 28.71875 34.90625 
L 20.21875 34.90625 
L 20.21875 43.015625 
L 29.109375 43.015625 
Q 36.375 43.015625 40.234375 45.921875 
Q 44.09375 48.828125 44.09375 54.296875 
Q 44.09375 59.90625 40.109375 62.90625 
Q 36.140625 65.921875 28.71875 65.921875 
Q 24.65625 65.921875 20.015625 65.03125 
Q 15.375 64.15625 9.8125 62.3125 
L 9.8125 71.09375 
Q 15.4375 72.65625 20.34375 73.4375 
Q 25.25 74.21875 29.59375 74.21875 
Q 40.828125 74.21875 47.359375 69.109375 
Q 53.90625 64.015625 53.90625 55.328125 
Q 53.90625 49.265625 50.4375 45.09375 
Q 46.96875 40.921875 40.578125 39.3125 
" id="BitstreamVeraSans-Roman-33"/>
      </defs>
      <g transform="translate(298.42125 399.758125)scale(0.12 -0.12)">
       <use xlink:href="#BitstreamVeraSans-Roman-33"/>
       <use x="63.623046875" xlink:href="#BitstreamVeraSans-Roman-30"/>
      </g>
     </g>
    </g>
    <g id="xtick_5">
     <g id="line2d_20">
      <g>
       <use style="stroke:#000000;stroke-width:0.5;" x="389.1675" xlink:href="#m612ecd1c5b" y="386.64"/>
      </g>
     </g>
     <g id="line2d_21">
      <g>
       <use style="stroke:#000000;stroke-width:0.5;" x="389.1675" xlink:href="#mb51e7a2539" y="28.76"/>
      </g>
     </g>
     <g id="text_5">
      <!-- 40 -->
      <defs>
       <path d="M 37.796875 64.3125 
L 12.890625 25.390625 
L 37.796875 25.390625 
z
M 35.203125 72.90625 
L 47.609375 72.90625 
L 47.609375 25.390625 
L 58.015625 25.390625 
L 58.015625 17.1875 
L 47.609375 17.1875 
L 47.609375 0 
L 37.796875 0 
L 37.796875 17.1875 
L 4.890625 17.1875 
L 4.890625 26.703125 
z
" id="BitstreamVeraSans-Roman-34"/>
      </defs>
      <g transform="translate(381.5325 399.758125)scale(0.12 -0.12)">
       <use xlink:href="#BitstreamVeraSans-Roman-34"/>
       <use x="63.623046875" xlink:href="#BitstreamVeraSans-Roman-30"/>
      </g>
     </g>
    </g>
    <g id="xtick_6">
     <g id="line2d_22">
      <g>
       <use style="stroke:#000000;stroke-width:0.5;" x="472.27875" xlink:href="#m612ecd1c5b" y="386.64"/>
      </g>
     </g>
     <g id="line2d_23">
      <g>
       <use style="stroke:#000000;stroke-width:0.5;" x="472.27875" xlink:href="#mb51e7a2539" y="28.76"/>
      </g>
     </g>
     <g id="text_6">
      <!-- 50 -->
      <defs>
       <path d="M 10.796875 72.90625 
L 49.515625 72.90625 
L 49.515625 64.59375 
L 19.828125 64.59375 
L 19.828125 46.734375 
Q 21.96875 47.46875 24.109375 47.828125 
Q 26.265625 48.1875 28.421875 48.1875 
Q 40.625 48.1875 47.75 41.5 
Q 54.890625 34.8125 54.890625 23.390625 
Q 54.890625 11.625 47.5625 5.09375 
Q 40.234375 -1.421875 26.90625 -1.421875 
Q 22.3125 -1.421875 17.546875 -0.640625 
Q 12.796875 0.140625 7.71875 1.703125 
L 7.71875 11.625 
Q 12.109375 9.234375 16.796875 8.0625 
Q 21.484375 6.890625 26.703125 6.890625 
Q 35.15625 6.890625 40.078125 11.328125 
Q 45.015625 15.765625 45.015625 23.390625 
Q 45.015625 31 40.078125 35.4375 
Q 35.15625 39.890625 26.703125 39.890625 
Q 22.75 39.890625 18.8125 39.015625 
Q 14.890625 38.140625 10.796875 36.28125 
z
" id="BitstreamVeraSans-Roman-35"/>
      </defs>
      <g transform="translate(464.64375 399.758125)scale(0.12 -0.12)">
       <use xlink:href="#BitstreamVeraSans-Roman-35"/>
       <use x="63.623046875" xlink:href="#BitstreamVeraSans-Roman-30"/>
      </g>
     </g>
    </g>
    <g id="xtick_7">
     <g id="line2d_24">
      <g>
       <use style="stroke:#000000;stroke-width:0.5;" x="555.39" xlink:href="#m612ecd1c5b" y="386.64"/>
      </g>
     </g>
     <g id="line2d_25">
      <g>
       <use style="stroke:#000000;stroke-width:0.5;" x="555.39" xlink:href="#mb51e7a2539" y="28.76"/>
      </g>
     </g>
     <g id="text_7">
      <!-- 60 -->
      <defs>
       <path d="M 33.015625 40.375 
Q 26.375 40.375 22.484375 35.828125 
Q 18.609375 31.296875 18.609375 23.390625 
Q 18.609375 15.53125 22.484375 10.953125 
Q 26.375 6.390625 33.015625 6.390625 
Q 39.65625 6.390625 43.53125 10.953125 
Q 47.40625 15.53125 47.40625 23.390625 
Q 47.40625 31.296875 43.53125 35.828125 
Q 39.65625 40.375 33.015625 40.375 
M 52.59375 71.296875 
L 52.59375 62.3125 
Q 48.875 64.0625 45.09375 64.984375 
Q 41.3125 65.921875 37.59375 65.921875 
Q 27.828125 65.921875 22.671875 59.328125 
Q 17.53125 52.734375 16.796875 39.40625 
Q 19.671875 43.65625 24.015625 45.921875 
Q 28.375 48.1875 33.59375 48.1875 
Q 44.578125 48.1875 50.953125 41.515625 
Q 57.328125 34.859375 57.328125 23.390625 
Q 57.328125 12.15625 50.6875 5.359375 
Q 44.046875 -1.421875 33.015625 -1.421875 
Q 20.359375 -1.421875 13.671875 8.265625 
Q 6.984375 17.96875 6.984375 36.375 
Q 6.984375 53.65625 15.1875 63.9375 
Q 23.390625 74.21875 37.203125 74.21875 
Q 40.921875 74.21875 44.703125 73.484375 
Q 48.484375 72.75 52.59375 71.296875 
" id="BitstreamVeraSans-Roman-36"/>
      </defs>
      <g transform="translate(547.755 399.758125)scale(0.12 -0.12)">
       <use xlink:href="#BitstreamVeraSans-Roman-36"/>
       <use x="63.623046875" xlink:href="#BitstreamVeraSans-Roman-30"/>
      </g>
     </g>
    </g>
    <g id="text_8">
     <!-- Accumulated score -->
     <defs>
      <path d="M 45.40625 46.390625 
L 45.40625 75.984375 
L 54.390625 75.984375 
L 54.390625 0 
L 45.40625 0 
L 45.40625 8.203125 
Q 42.578125 3.328125 38.25 0.953125 
Q 33.9375 -1.421875 27.875 -1.421875 
Q 17.96875 -1.421875 11.734375 6.484375 
Q 5.515625 14.40625 5.515625 27.296875 
Q 5.515625 40.1875 11.734375 48.09375 
Q 17.96875 56 27.875 56 
Q 33.9375 56 38.25 53.625 
Q 42.578125 51.265625 45.40625 46.390625 
M 14.796875 27.296875 
Q 14.796875 17.390625 18.875 11.75 
Q 22.953125 6.109375 30.078125 6.109375 
Q 37.203125 6.109375 41.296875 11.75 
Q 45.40625 17.390625 45.40625 27.296875 
Q 45.40625 37.203125 41.296875 42.84375 
Q 37.203125 48.484375 30.078125 48.484375 
Q 22.953125 48.484375 18.875 42.84375 
Q 14.796875 37.203125 14.796875 27.296875 
" id="BitstreamVeraSans-Roman-64"/>
      <path d="M 30.609375 48.390625 
Q 23.390625 48.390625 19.1875 42.75 
Q 14.984375 37.109375 14.984375 27.296875 
Q 14.984375 17.484375 19.15625 11.84375 
Q 23.34375 6.203125 30.609375 6.203125 
Q 37.796875 6.203125 41.984375 11.859375 
Q 46.1875 17.53125 46.1875 27.296875 
Q 46.1875 37.015625 41.984375 42.703125 
Q 37.796875 48.390625 30.609375 48.390625 
M 30.609375 56 
Q 42.328125 56 49.015625 48.375 
Q 55.71875 40.765625 55.71875 27.296875 
Q 55.71875 13.875 49.015625 6.21875 
Q 42.328125 -1.421875 30.609375 -1.421875 
Q 18.84375 -1.421875 12.171875 6.21875 
Q 5.515625 13.875 5.515625 27.296875 
Q 5.515625 40.765625 12.171875 48.375 
Q 18.84375 56 30.609375 56 
" id="BitstreamVeraSans-Roman-6f"/>
      <path id="BitstreamVeraSans-Roman-20"/>
      <path d="M 41.109375 46.296875 
Q 39.59375 47.171875 37.8125 47.578125 
Q 36.03125 48 33.890625 48 
Q 26.265625 48 22.1875 43.046875 
Q 18.109375 38.09375 18.109375 28.8125 
L 18.109375 0 
L 9.078125 0 
L 9.078125 54.6875 
L 18.109375 54.6875 
L 18.109375 46.1875 
Q 20.953125 51.171875 25.484375 53.578125 
Q 30.03125 56 36.53125 56 
Q 37.453125 56 38.578125 55.875 
Q 39.703125 55.765625 41.0625 55.515625 
z
" id="BitstreamVeraSans-Roman-72"/>
      <path d="M 9.421875 75.984375 
L 18.40625 75.984375 
L 18.40625 0 
L 9.421875 0 
z
" id="BitstreamVeraSans-Roman-6c"/>
      <path d="M 48.78125 52.59375 
L 48.78125 44.1875 
Q 44.96875 46.296875 41.140625 47.34375 
Q 37.3125 48.390625 33.40625 48.390625 
Q 24.65625 48.390625 19.8125 42.84375 
Q 14.984375 37.3125 14.984375 27.296875 
Q 14.984375 17.28125 19.8125 11.734375 
Q 24.65625 6.203125 33.40625 6.203125 
Q 37.3125 6.203125 41.140625 7.25 
Q 44.96875 8.296875 48.78125 10.40625 
L 48.78125 2.09375 
Q 45.015625 0.34375 40.984375 -0.53125 
Q 36.96875 -1.421875 32.421875 -1.421875 
Q 20.0625 -1.421875 12.78125 6.34375 
Q 5.515625 14.109375 5.515625 27.296875 
Q 5.515625 40.671875 12.859375 48.328125 
Q 20.21875 56 33.015625 56 
Q 37.15625 56 41.109375 55.140625 
Q 45.0625 54.296875 48.78125 52.59375 
" id="BitstreamVeraSans-Roman-63"/>
      <path d="M 52 44.1875 
Q 55.375 50.25 60.0625 53.125 
Q 64.75 56 71.09375 56 
Q 79.640625 56 84.28125 50.015625 
Q 88.921875 44.046875 88.921875 33.015625 
L 88.921875 0 
L 79.890625 0 
L 79.890625 32.71875 
Q 79.890625 40.578125 77.09375 44.375 
Q 74.3125 48.1875 68.609375 48.1875 
Q 61.625 48.1875 57.5625 43.546875 
Q 53.515625 38.921875 53.515625 30.90625 
L 53.515625 0 
L 44.484375 0 
L 44.484375 32.71875 
Q 44.484375 40.625 41.703125 44.40625 
Q 38.921875 48.1875 33.109375 48.1875 
Q 26.21875 48.1875 22.15625 43.53125 
Q 18.109375 38.875 18.109375 30.90625 
L 18.109375 0 
L 9.078125 0 
L 9.078125 54.6875 
L 18.109375 54.6875 
L 18.109375 46.1875 
Q 21.1875 51.21875 25.484375 53.609375 
Q 29.78125 56 35.6875 56 
Q 41.65625 56 45.828125 52.96875 
Q 50 49.953125 52 44.1875 
" id="BitstreamVeraSans-Roman-6d"/>
      <path d="M 44.28125 53.078125 
L 44.28125 44.578125 
Q 40.484375 46.53125 36.375 47.5 
Q 32.28125 48.484375 27.875 48.484375 
Q 21.1875 48.484375 17.84375 46.4375 
Q 14.5 44.390625 14.5 40.28125 
Q 14.5 37.15625 16.890625 35.375 
Q 19.28125 33.59375 26.515625 31.984375 
L 29.59375 31.296875 
Q 39.15625 29.25 43.1875 25.515625 
Q 47.21875 21.78125 47.21875 15.09375 
Q 47.21875 7.46875 41.1875 3.015625 
Q 35.15625 -1.421875 24.609375 -1.421875 
Q 20.21875 -1.421875 15.453125 -0.5625 
Q 10.6875 0.296875 5.421875 2 
L 5.421875 11.28125 
Q 10.40625 8.6875 15.234375 7.390625 
Q 20.0625 6.109375 24.8125 6.109375 
Q 31.15625 6.109375 34.5625 8.28125 
Q 37.984375 10.453125 37.984375 14.40625 
Q 37.984375 18.0625 35.515625 20.015625 
Q 33.0625 21.96875 24.703125 23.78125 
L 21.578125 24.515625 
Q 13.234375 26.265625 9.515625 29.90625 
Q 5.8125 33.546875 5.8125 39.890625 
Q 5.8125 47.609375 11.28125 51.796875 
Q 16.75 56 26.8125 56 
Q 31.78125 56 36.171875 55.265625 
Q 40.578125 54.546875 44.28125 53.078125 
" id="BitstreamVeraSans-Roman-73"/>
      <path d="M 18.3125 70.21875 
L 18.3125 54.6875 
L 36.8125 54.6875 
L 36.8125 47.703125 
L 18.3125 47.703125 
L 18.3125 18.015625 
Q 18.3125 11.328125 20.140625 9.421875 
Q 21.96875 7.515625 27.59375 7.515625 
L 36.8125 7.515625 
L 36.8125 0 
L 27.59375 0 
Q 17.1875 0 13.234375 3.875 
Q 9.28125 7.765625 9.28125 18.015625 
L 9.28125 47.703125 
L 2.6875 47.703125 
L 2.6875 54.6875 
L 9.28125 54.6875 
L 9.28125 70.21875 
z
" id="BitstreamVeraSans-Roman-74"/>
      <path d="M 56.203125 29.59375 
L 56.203125 25.203125 
L 14.890625 25.203125 
Q 15.484375 15.921875 20.484375 11.0625 
Q 25.484375 6.203125 34.421875 6.203125 
Q 39.59375 6.203125 44.453125 7.46875 
Q 49.3125 8.734375 54.109375 11.28125 
L 54.109375 2.78125 
Q 49.265625 0.734375 44.1875 -0.34375 
Q 39.109375 -1.421875 33.890625 -1.421875 
Q 20.796875 -1.421875 13.15625 6.1875 
Q 5.515625 13.8125 5.515625 26.8125 
Q 5.515625 40.234375 12.765625 48.109375 
Q 20.015625 56 32.328125 56 
Q 43.359375 56 49.78125 48.890625 
Q 56.203125 41.796875 56.203125 29.59375 
M 47.21875 32.234375 
Q 47.125 39.59375 43.09375 43.984375 
Q 39.0625 48.390625 32.421875 48.390625 
Q 24.90625 48.390625 20.390625 44.140625 
Q 15.875 39.890625 15.1875 32.171875 
z
" id="BitstreamVeraSans-Roman-65"/>
      <path d="M 34.1875 63.1875 
L 20.796875 26.90625 
L 47.609375 26.90625 
z
M 28.609375 72.90625 
L 39.796875 72.90625 
L 67.578125 0 
L 57.328125 0 
L 50.6875 18.703125 
L 17.828125 18.703125 
L 11.1875 0 
L 0.78125 0 
z
" id="BitstreamVeraSans-Roman-41"/>
      <path d="M 34.28125 27.484375 
Q 23.390625 27.484375 19.1875 25 
Q 14.984375 22.515625 14.984375 16.5 
Q 14.984375 11.71875 18.140625 8.90625 
Q 21.296875 6.109375 26.703125 6.109375 
Q 34.1875 6.109375 38.703125 11.40625 
Q 43.21875 16.703125 43.21875 25.484375 
L 43.21875 27.484375 
z
M 52.203125 31.203125 
L 52.203125 0 
L 43.21875 0 
L 43.21875 8.296875 
Q 40.140625 3.328125 35.546875 0.953125 
Q 30.953125 -1.421875 24.3125 -1.421875 
Q 15.921875 -1.421875 10.953125 3.296875 
Q 6 8.015625 6 15.921875 
Q 6 25.140625 12.171875 29.828125 
Q 18.359375 34.515625 30.609375 34.515625 
L 43.21875 34.515625 
L 43.21875 35.40625 
Q 43.21875 41.609375 39.140625 45 
Q 35.0625 48.390625 27.6875 48.390625 
Q 23 48.390625 18.546875 47.265625 
Q 14.109375 46.140625 10.015625 43.890625 
L 10.015625 52.203125 
Q 14.9375 54.109375 19.578125 55.046875 
Q 24.21875 56 28.609375 56 
Q 40.484375 56 46.34375 49.84375 
Q 52.203125 43.703125 52.203125 31.203125 
" id="BitstreamVeraSans-Roman-61"/>
      <path d="M 8.5 21.578125 
L 8.5 54.6875 
L 17.484375 54.6875 
L 17.484375 21.921875 
Q 17.484375 14.15625 20.5 10.265625 
Q 23.53125 6.390625 29.59375 6.390625 
Q 36.859375 6.390625 41.078125 11.03125 
Q 45.3125 15.671875 45.3125 23.6875 
L 45.3125 54.6875 
L 54.296875 54.6875 
L 54.296875 0 
L 45.3125 0 
L 45.3125 8.40625 
Q 42.046875 3.421875 37.71875 1 
Q 33.40625 -1.421875 27.6875 -1.421875 
Q 18.265625 -1.421875 13.375 4.4375 
Q 8.5 10.296875 8.5 21.578125 
" id="BitstreamVeraSans-Roman-75"/>
     </defs>
     <g transform="translate(248.5490625 416.371875)scale(0.12 -0.12)">
      <use xlink:href="#BitstreamVeraSans-Roman-41"/>
      <use x="68.392578125" xlink:href="#BitstreamVeraSans-Roman-63"/>
      <use x="123.373046875" xlink:href="#BitstreamVeraSans-Roman-63"/>
      <use x="178.353515625" xlink:href="#BitstreamVeraSans-Roman-75"/>
      <use x="241.732421875" xlink:href="#BitstreamVeraSans-Roman-6d"/>
      <use x="339.14453125" xlink:href="#BitstreamVeraSans-Roman-75"/>
      <use x="402.5234375" xlink:href="#BitstreamVeraSans-Roman-6c"/>
      <use x="430.306640625" xlink:href="#BitstreamVeraSans-Roman-61"/>
      <use x="491.5859375" xlink:href="#BitstreamVeraSans-Roman-74"/>
      <use x="530.794921875" xlink:href="#BitstreamVeraSans-Roman-65"/>
      <use x="592.318359375" xlink:href="#BitstreamVeraSans-Roman-64"/>
      <use x="655.794921875" xlink:href="#BitstreamVeraSans-Roman-20"/>
      <use x="687.58203125" xlink:href="#BitstreamVeraSans-Roman-73"/>
      <use x="739.681640625" xlink:href="#BitstreamVeraSans-Roman-63"/>
      <use x="794.662109375" xlink:href="#BitstreamVeraSans-Roman-6f"/>
      <use x="855.84375" xlink:href="#BitstreamVeraSans-Roman-72"/>
      <use x="896.92578125" xlink:href="#BitstreamVeraSans-Roman-65"/>
     </g>
    </g>
   </g>
   <g id="matplotlib.axis_2">
    <g id="ytick_1">
     <g id="line2d_26">
      <defs>
       <path d="M 0 0 
L 6 0 
" id="m3a9493c54b" style="stroke:#000000;stroke-width:0.5;"/>
      </defs>
      <g>
       <use style="stroke:#000000;stroke-width:0.5;" x="56.7225" xlink:href="#m3a9493c54b" y="386.64"/>
      </g>
     </g>
     <g id="line2d_27">
      <defs>
       <path d="M 0 0 
L -6 0 
" id="m9529d69172" style="stroke:#000000;stroke-width:0.5;"/>
      </defs>
      <g>
       <use style="stroke:#000000;stroke-width:0.5;" x="555.39" xlink:href="#m9529d69172" y="386.64"/>
      </g>
     </g>
     <g id="text_9">
      <!-- $\mathdefault{0}$ -->
      <g transform="translate(45.0425 389.95125)scale(0.12 -0.12)">
       <use transform="translate(0.0 0.78125)" xlink:href="#BitstreamVeraSans-Roman-30"/>
      </g>
     </g>
    </g>
    <g id="ytick_2">
     <g id="line2d_28">
      <g>
       <use style="stroke:#000000;stroke-width:0.5;" x="56.7225" xlink:href="#m3a9493c54b" y="373.858571429"/>
      </g>
     </g>
     <g id="line2d_29">
      <g>
       <use style="stroke:#000000;stroke-width:0.5;" x="555.39" xlink:href="#m9529d69172" y="373.858571429"/>
      </g>
     </g>
     <g id="text_10">
      <!-- $\mathdefault{10^{0}}$ -->
      <g transform="translate(30.4025 377.482946429)scale(0.12 -0.12)">
       <use transform="translate(0.0 0.796875)" xlink:href="#BitstreamVeraSans-Roman-31"/>
       <use transform="translate(63.623046875 0.796875)" xlink:href="#BitstreamVeraSans-Roman-30"/>
       <use transform="translate(132.75859375 48.046875)scale(0.7)" xlink:href="#BitstreamVeraSans-Roman-30"/>
      </g>
     </g>
    </g>
    <g id="ytick_3">
     <g id="line2d_30">
      <g>
       <use style="stroke:#000000;stroke-width:0.5;" x="56.7225" xlink:href="#m3a9493c54b" y="258.825714286"/>
      </g>
     </g>
     <g id="line2d_31">
      <g>
       <use style="stroke:#000000;stroke-width:0.5;" x="555.39" xlink:href="#m9529d69172" y="258.825714286"/>
      </g>
     </g>
     <g id="text_11">
      <!-- $\mathdefault{10^{1}}$ -->
      <g transform="translate(30.4025 262.390089286)scale(0.12 -0.12)">
       <use transform="translate(0.0 0.7156250000000028)" xlink:href="#BitstreamVeraSans-Roman-31"/>
       <use transform="translate(63.623046875 0.7156250000000028)" xlink:href="#BitstreamVeraSans-Roman-30"/>
       <use transform="translate(132.75859375 47.965625)scale(0.7)" xlink:href="#BitstreamVeraSans-Roman-31"/>
      </g>
     </g>
    </g>
    <g id="ytick_4">
     <g id="line2d_32">
      <g>
       <use style="stroke:#000000;stroke-width:0.5;" x="56.7225" xlink:href="#m3a9493c54b" y="143.792857143"/>
      </g>
     </g>
     <g id="line2d_33">
      <g>
       <use style="stroke:#000000;stroke-width:0.5;" x="555.39" xlink:href="#m9529d69172" y="143.792857143"/>
      </g>
     </g>
     <g id="text_12">
      <!-- $\mathdefault{10^{2}}$ -->
      <g transform="translate(30.4025 147.417232143)scale(0.12 -0.12)">
       <use transform="translate(0.0 0.796875)" xlink:href="#BitstreamVeraSans-Roman-31"/>
       <use transform="translate(63.623046875 0.796875)" xlink:href="#BitstreamVeraSans-Roman-30"/>
       <use transform="translate(132.75859375 48.046875)scale(0.7)" xlink:href="#BitstreamVeraSans-Roman-32"/>
      </g>
     </g>
    </g>
    <g id="ytick_5">
     <g id="line2d_34">
      <g>
       <use style="stroke:#000000;stroke-width:0.5;" x="56.7225" xlink:href="#m3a9493c54b" y="28.76"/>
      </g>
     </g>
     <g id="line2d_35">
      <g>
       <use style="stroke:#000000;stroke-width:0.5;" x="555.39" xlink:href="#m9529d69172" y="28.76"/>
      </g>
     </g>
     <g id="text_13">
      <!-- $\mathdefault{10^{3}}$ -->
      <g transform="translate(30.4025 32.384375)scale(0.12 -0.12)">
       <use transform="translate(0.0 0.796875)" xlink:href="#BitstreamVeraSans-Roman-31"/>
       <use transform="translate(63.623046875 0.796875)" xlink:href="#BitstreamVeraSans-Roman-30"/>
       <use transform="translate(132.75859375 48.046875)scale(0.7)" xlink:href="#BitstreamVeraSans-Roman-33"/>
      </g>
     </g>
    </g>
    <g id="ytick_6">
     <g id="line2d_36">
      <defs>
       <path d="M 0 0 
L 4 0 
" id="m2b4e9fdfb4" style="stroke:#000000;stroke-width:0.5;"/>
      </defs>
      <g>
       <use style="stroke:#000000;stroke-width:0.5;" x="56.7225" xlink:href="#m2b4e9fdfb4" y="386.512185714"/>
      </g>
     </g>
     <g id="line2d_37">
      <defs>
       <path d="M 0 0 
L -4 0 
" id="mf45e3362f6" style="stroke:#000000;stroke-width:0.5;"/>
      </defs>
      <g>
       <use style="stroke:#000000;stroke-width:0.5;" x="555.39" xlink:href="#mf45e3362f6" y="386.512185714"/>
      </g>
     </g>
    </g>
    <g id="ytick_7">
     <g id="line2d_38">
      <g>
       <use style="stroke:#000000;stroke-width:0.5;" x="56.7225" xlink:href="#m2b4e9fdfb4" y="386.384371429"/>
      </g>
     </g>
     <g id="line2d_39">
      <g>
       <use style="stroke:#000000;stroke-width:0.5;" x="555.39" xlink:href="#mf45e3362f6" y="386.384371429"/>
      </g>
     </g>
    </g>
    <g id="ytick_8">
     <g id="line2d_40">
      <g>
       <use style="stroke:#000000;stroke-width:0.5;" x="56.7225" xlink:href="#m2b4e9fdfb4" y="386.256557143"/>
      </g>
     </g>
     <g id="line2d_41">
      <g>
       <use style="stroke:#000000;stroke-width:0.5;" x="555.39" xlink:href="#mf45e3362f6" y="386.256557143"/>
      </g>
     </g>
    </g>
    <g id="ytick_9">
     <g id="line2d_42">
      <g>
       <use style="stroke:#000000;stroke-width:0.5;" x="56.7225" xlink:href="#m2b4e9fdfb4" y="386.128742857"/>
      </g>
     </g>
     <g id="line2d_43">
      <g>
       <use style="stroke:#000000;stroke-width:0.5;" x="555.39" xlink:href="#mf45e3362f6" y="386.128742857"/>
      </g>
     </g>
    </g>
    <g id="ytick_10">
     <g id="line2d_44">
      <g>
       <use style="stroke:#000000;stroke-width:0.5;" x="56.7225" xlink:href="#m2b4e9fdfb4" y="386.000928571"/>
      </g>
     </g>
     <g id="line2d_45">
      <g>
       <use style="stroke:#000000;stroke-width:0.5;" x="555.39" xlink:href="#mf45e3362f6" y="386.000928571"/>
      </g>
     </g>
    </g>
    <g id="ytick_11">
     <g id="line2d_46">
      <g>
       <use style="stroke:#000000;stroke-width:0.5;" x="56.7225" xlink:href="#m2b4e9fdfb4" y="385.873114286"/>
      </g>
     </g>
     <g id="line2d_47">
      <g>
       <use style="stroke:#000000;stroke-width:0.5;" x="555.39" xlink:href="#mf45e3362f6" y="385.873114286"/>
      </g>
     </g>
    </g>
    <g id="ytick_12">
     <g id="line2d_48">
      <g>
       <use style="stroke:#000000;stroke-width:0.5;" x="56.7225" xlink:href="#m2b4e9fdfb4" y="385.7453"/>
      </g>
     </g>
     <g id="line2d_49">
      <g>
       <use style="stroke:#000000;stroke-width:0.5;" x="555.39" xlink:href="#mf45e3362f6" y="385.7453"/>
      </g>
     </g>
    </g>
    <g id="ytick_13">
     <g id="line2d_50">
      <g>
       <use style="stroke:#000000;stroke-width:0.5;" x="56.7225" xlink:href="#m2b4e9fdfb4" y="385.617485714"/>
      </g>
     </g>
     <g id="line2d_51">
      <g>
       <use style="stroke:#000000;stroke-width:0.5;" x="555.39" xlink:href="#mf45e3362f6" y="385.617485714"/>
      </g>
     </g>
    </g>
    <g id="ytick_14">
     <g id="line2d_52">
      <g>
       <use style="stroke:#000000;stroke-width:0.5;" x="56.7225" xlink:href="#m2b4e9fdfb4" y="385.489671429"/>
      </g>
     </g>
     <g id="line2d_53">
      <g>
       <use style="stroke:#000000;stroke-width:0.5;" x="555.39" xlink:href="#mf45e3362f6" y="385.489671429"/>
      </g>
     </g>
    </g>
    <g id="ytick_15">
     <g id="line2d_54">
      <g>
       <use style="stroke:#000000;stroke-width:0.5;" x="56.7225" xlink:href="#m2b4e9fdfb4" y="385.361857143"/>
      </g>
     </g>
     <g id="line2d_55">
      <g>
       <use style="stroke:#000000;stroke-width:0.5;" x="555.39" xlink:href="#mf45e3362f6" y="385.361857143"/>
      </g>
     </g>
    </g>
    <g id="ytick_16">
     <g id="line2d_56">
      <g>
       <use style="stroke:#000000;stroke-width:0.5;" x="56.7225" xlink:href="#m2b4e9fdfb4" y="384.083714286"/>
      </g>
     </g>
     <g id="line2d_57">
      <g>
       <use style="stroke:#000000;stroke-width:0.5;" x="555.39" xlink:href="#mf45e3362f6" y="384.083714286"/>
      </g>
     </g>
    </g>
    <g id="ytick_17">
     <g id="line2d_58">
      <g>
       <use style="stroke:#000000;stroke-width:0.5;" x="56.7225" xlink:href="#m2b4e9fdfb4" y="382.805571429"/>
      </g>
     </g>
     <g id="line2d_59">
      <g>
       <use style="stroke:#000000;stroke-width:0.5;" x="555.39" xlink:href="#mf45e3362f6" y="382.805571429"/>
      </g>
     </g>
    </g>
    <g id="ytick_18">
     <g id="line2d_60">
      <g>
       <use style="stroke:#000000;stroke-width:0.5;" x="56.7225" xlink:href="#m2b4e9fdfb4" y="381.527428571"/>
      </g>
     </g>
     <g id="line2d_61">
      <g>
       <use style="stroke:#000000;stroke-width:0.5;" x="555.39" xlink:href="#mf45e3362f6" y="381.527428571"/>
      </g>
     </g>
    </g>
    <g id="ytick_19">
     <g id="line2d_62">
      <g>
       <use style="stroke:#000000;stroke-width:0.5;" x="56.7225" xlink:href="#m2b4e9fdfb4" y="380.249285714"/>
      </g>
     </g>
     <g id="line2d_63">
      <g>
       <use style="stroke:#000000;stroke-width:0.5;" x="555.39" xlink:href="#mf45e3362f6" y="380.249285714"/>
      </g>
     </g>
    </g>
    <g id="ytick_20">
     <g id="line2d_64">
      <g>
       <use style="stroke:#000000;stroke-width:0.5;" x="56.7225" xlink:href="#m2b4e9fdfb4" y="378.971142857"/>
      </g>
     </g>
     <g id="line2d_65">
      <g>
       <use style="stroke:#000000;stroke-width:0.5;" x="555.39" xlink:href="#mf45e3362f6" y="378.971142857"/>
      </g>
     </g>
    </g>
    <g id="ytick_21">
     <g id="line2d_66">
      <g>
       <use style="stroke:#000000;stroke-width:0.5;" x="56.7225" xlink:href="#m2b4e9fdfb4" y="377.693"/>
      </g>
     </g>
     <g id="line2d_67">
      <g>
       <use style="stroke:#000000;stroke-width:0.5;" x="555.39" xlink:href="#mf45e3362f6" y="377.693"/>
      </g>
     </g>
    </g>
    <g id="ytick_22">
     <g id="line2d_68">
      <g>
       <use style="stroke:#000000;stroke-width:0.5;" x="56.7225" xlink:href="#m2b4e9fdfb4" y="376.414857143"/>
      </g>
     </g>
     <g id="line2d_69">
      <g>
       <use style="stroke:#000000;stroke-width:0.5;" x="555.39" xlink:href="#mf45e3362f6" y="376.414857143"/>
      </g>
     </g>
    </g>
    <g id="ytick_23">
     <g id="line2d_70">
      <g>
       <use style="stroke:#000000;stroke-width:0.5;" x="56.7225" xlink:href="#m2b4e9fdfb4" y="375.136714286"/>
      </g>
     </g>
     <g id="line2d_71">
      <g>
       <use style="stroke:#000000;stroke-width:0.5;" x="555.39" xlink:href="#mf45e3362f6" y="375.136714286"/>
      </g>
     </g>
    </g>
    <g id="ytick_24">
     <g id="line2d_72">
      <g>
       <use style="stroke:#000000;stroke-width:0.5;" x="56.7225" xlink:href="#m2b4e9fdfb4" y="373.858571429"/>
      </g>
     </g>
     <g id="line2d_73">
      <g>
       <use style="stroke:#000000;stroke-width:0.5;" x="555.39" xlink:href="#mf45e3362f6" y="373.858571429"/>
      </g>
     </g>
    </g>
    <g id="ytick_25">
     <g id="line2d_74">
      <g>
       <use style="stroke:#000000;stroke-width:0.5;" x="56.7225" xlink:href="#m2b4e9fdfb4" y="339.230230942"/>
      </g>
     </g>
     <g id="line2d_75">
      <g>
       <use style="stroke:#000000;stroke-width:0.5;" x="555.39" xlink:href="#mf45e3362f6" y="339.230230942"/>
      </g>
     </g>
    </g>
    <g id="ytick_26">
     <g id="line2d_76">
      <g>
       <use style="stroke:#000000;stroke-width:0.5;" x="56.7225" xlink:href="#m2b4e9fdfb4" y="318.973950295"/>
      </g>
     </g>
     <g id="line2d_77">
      <g>
       <use style="stroke:#000000;stroke-width:0.5;" x="555.39" xlink:href="#mf45e3362f6" y="318.973950295"/>
      </g>
     </g>
    </g>
    <g id="ytick_27">
     <g id="line2d_78">
      <g>
       <use style="stroke:#000000;stroke-width:0.5;" x="56.7225" xlink:href="#m2b4e9fdfb4" y="304.601890455"/>
      </g>
     </g>
     <g id="line2d_79">
      <g>
       <use style="stroke:#000000;stroke-width:0.5;" x="555.39" xlink:href="#mf45e3362f6" y="304.601890455"/>
      </g>
     </g>
    </g>
    <g id="ytick_28">
     <g id="line2d_80">
      <g>
       <use style="stroke:#000000;stroke-width:0.5;" x="56.7225" xlink:href="#m2b4e9fdfb4" y="293.454054773"/>
      </g>
     </g>
     <g id="line2d_81">
      <g>
       <use style="stroke:#000000;stroke-width:0.5;" x="555.39" xlink:href="#mf45e3362f6" y="293.454054773"/>
      </g>
     </g>
    </g>
    <g id="ytick_29">
     <g id="line2d_82">
      <g>
       <use style="stroke:#000000;stroke-width:0.5;" x="56.7225" xlink:href="#m2b4e9fdfb4" y="284.345609808"/>
      </g>
     </g>
     <g id="line2d_83">
      <g>
       <use style="stroke:#000000;stroke-width:0.5;" x="555.39" xlink:href="#mf45e3362f6" y="284.345609808"/>
      </g>
     </g>
    </g>
    <g id="ytick_30">
     <g id="line2d_84">
      <g>
       <use style="stroke:#000000;stroke-width:0.5;" x="56.7225" xlink:href="#m2b4e9fdfb4" y="276.64452932"/>
      </g>
     </g>
     <g id="line2d_85">
      <g>
       <use style="stroke:#000000;stroke-width:0.5;" x="555.39" xlink:href="#mf45e3362f6" y="276.64452932"/>
      </g>
     </g>
    </g>
    <g id="ytick_31">
     <g id="line2d_86">
      <g>
       <use style="stroke:#000000;stroke-width:0.5;" x="56.7225" xlink:href="#m2b4e9fdfb4" y="269.973549968"/>
      </g>
     </g>
     <g id="line2d_87">
      <g>
       <use style="stroke:#000000;stroke-width:0.5;" x="555.39" xlink:href="#mf45e3362f6" y="269.973549968"/>
      </g>
     </g>
    </g>
    <g id="ytick_32">
     <g id="line2d_88">
      <g>
       <use style="stroke:#000000;stroke-width:0.5;" x="56.7225" xlink:href="#m2b4e9fdfb4" y="264.089329161"/>
      </g>
     </g>
     <g id="line2d_89">
      <g>
       <use style="stroke:#000000;stroke-width:0.5;" x="555.39" xlink:href="#mf45e3362f6" y="264.089329161"/>
      </g>
     </g>
    </g>
    <g id="ytick_33">
     <g id="line2d_90">
      <g>
       <use style="stroke:#000000;stroke-width:0.5;" x="56.7225" xlink:href="#m2b4e9fdfb4" y="258.825714286"/>
      </g>
     </g>
     <g id="line2d_91">
      <g>
       <use style="stroke:#000000;stroke-width:0.5;" x="555.39" xlink:href="#mf45e3362f6" y="258.825714286"/>
      </g>
     </g>
    </g>
    <g id="ytick_34">
     <g id="line2d_92">
      <g>
       <use style="stroke:#000000;stroke-width:0.5;" x="56.7225" xlink:href="#m2b4e9fdfb4" y="224.197373799"/>
      </g>
     </g>
     <g id="line2d_93">
      <g>
       <use style="stroke:#000000;stroke-width:0.5;" x="555.39" xlink:href="#mf45e3362f6" y="224.197373799"/>
      </g>
     </g>
    </g>
    <g id="ytick_35">
     <g id="line2d_94">
      <g>
       <use style="stroke:#000000;stroke-width:0.5;" x="56.7225" xlink:href="#m2b4e9fdfb4" y="203.941093152"/>
      </g>
     </g>
     <g id="line2d_95">
      <g>
       <use style="stroke:#000000;stroke-width:0.5;" x="555.39" xlink:href="#mf45e3362f6" y="203.941093152"/>
      </g>
     </g>
    </g>
    <g id="ytick_36">
     <g id="line2d_96">
      <g>
       <use style="stroke:#000000;stroke-width:0.5;" x="56.7225" xlink:href="#m2b4e9fdfb4" y="189.569033312"/>
      </g>
     </g>
     <g id="line2d_97">
      <g>
       <use style="stroke:#000000;stroke-width:0.5;" x="555.39" xlink:href="#mf45e3362f6" y="189.569033312"/>
      </g>
     </g>
    </g>
    <g id="ytick_37">
     <g id="line2d_98">
      <g>
       <use style="stroke:#000000;stroke-width:0.5;" x="56.7225" xlink:href="#m2b4e9fdfb4" y="178.42119763"/>
      </g>
     </g>
     <g id="line2d_99">
      <g>
       <use style="stroke:#000000;stroke-width:0.5;" x="555.39" xlink:href="#mf45e3362f6" y="178.42119763"/>
      </g>
     </g>
    </g>
    <g id="ytick_38">
     <g id="line2d_100">
      <g>
       <use style="stroke:#000000;stroke-width:0.5;" x="56.7225" xlink:href="#m2b4e9fdfb4" y="169.312752665"/>
      </g>
     </g>
     <g id="line2d_101">
      <g>
       <use style="stroke:#000000;stroke-width:0.5;" x="555.39" xlink:href="#mf45e3362f6" y="169.312752665"/>
      </g>
     </g>
    </g>
    <g id="ytick_39">
     <g id="line2d_102">
      <g>
       <use style="stroke:#000000;stroke-width:0.5;" x="56.7225" xlink:href="#m2b4e9fdfb4" y="161.611672177"/>
      </g>
     </g>
     <g id="line2d_103">
      <g>
       <use style="stroke:#000000;stroke-width:0.5;" x="555.39" xlink:href="#mf45e3362f6" y="161.611672177"/>
      </g>
     </g>
    </g>
    <g id="ytick_40">
     <g id="line2d_104">
      <g>
       <use style="stroke:#000000;stroke-width:0.5;" x="56.7225" xlink:href="#m2b4e9fdfb4" y="154.940692825"/>
      </g>
     </g>
     <g id="line2d_105">
      <g>
       <use style="stroke:#000000;stroke-width:0.5;" x="555.39" xlink:href="#mf45e3362f6" y="154.940692825"/>
      </g>
     </g>
    </g>
    <g id="ytick_41">
     <g id="line2d_106">
      <g>
       <use style="stroke:#000000;stroke-width:0.5;" x="56.7225" xlink:href="#m2b4e9fdfb4" y="149.056472018"/>
      </g>
     </g>
     <g id="line2d_107">
      <g>
       <use style="stroke:#000000;stroke-width:0.5;" x="555.39" xlink:href="#mf45e3362f6" y="149.056472018"/>
      </g>
     </g>
    </g>
    <g id="ytick_42">
     <g id="line2d_108">
      <g>
       <use style="stroke:#000000;stroke-width:0.5;" x="56.7225" xlink:href="#m2b4e9fdfb4" y="143.792857143"/>
      </g>
     </g>
     <g id="line2d_109">
      <g>
       <use style="stroke:#000000;stroke-width:0.5;" x="555.39" xlink:href="#mf45e3362f6" y="143.792857143"/>
      </g>
     </g>
    </g>
    <g id="ytick_43">
     <g id="line2d_110">
      <g>
       <use style="stroke:#000000;stroke-width:0.5;" x="56.7225" xlink:href="#m2b4e9fdfb4" y="109.164516656"/>
      </g>
     </g>
     <g id="line2d_111">
      <g>
       <use style="stroke:#000000;stroke-width:0.5;" x="555.39" xlink:href="#mf45e3362f6" y="109.164516656"/>
      </g>
     </g>
    </g>
    <g id="ytick_44">
     <g id="line2d_112">
      <g>
       <use style="stroke:#000000;stroke-width:0.5;" x="56.7225" xlink:href="#m2b4e9fdfb4" y="88.9082360089"/>
      </g>
     </g>
     <g id="line2d_113">
      <g>
       <use style="stroke:#000000;stroke-width:0.5;" x="555.39" xlink:href="#mf45e3362f6" y="88.9082360089"/>
      </g>
     </g>
    </g>
    <g id="ytick_45">
     <g id="line2d_114">
      <g>
       <use style="stroke:#000000;stroke-width:0.5;" x="56.7225" xlink:href="#m2b4e9fdfb4" y="74.536176169"/>
      </g>
     </g>
     <g id="line2d_115">
      <g>
       <use style="stroke:#000000;stroke-width:0.5;" x="555.39" xlink:href="#mf45e3362f6" y="74.536176169"/>
      </g>
     </g>
    </g>
    <g id="ytick_46">
     <g id="line2d_116">
      <g>
       <use style="stroke:#000000;stroke-width:0.5;" x="56.7225" xlink:href="#m2b4e9fdfb4" y="63.3883404869"/>
      </g>
     </g>
     <g id="line2d_117">
      <g>
       <use style="stroke:#000000;stroke-width:0.5;" x="555.39" xlink:href="#mf45e3362f6" y="63.3883404869"/>
      </g>
     </g>
    </g>
    <g id="ytick_47">
     <g id="line2d_118">
      <g>
       <use style="stroke:#000000;stroke-width:0.5;" x="56.7225" xlink:href="#m2b4e9fdfb4" y="54.2798955219"/>
      </g>
     </g>
     <g id="line2d_119">
      <g>
       <use style="stroke:#000000;stroke-width:0.5;" x="555.39" xlink:href="#mf45e3362f6" y="54.2798955219"/>
      </g>
     </g>
    </g>
    <g id="ytick_48">
     <g id="line2d_120">
      <g>
       <use style="stroke:#000000;stroke-width:0.5;" x="56.7225" xlink:href="#m2b4e9fdfb4" y="46.5788150342"/>
      </g>
     </g>
     <g id="line2d_121">
      <g>
       <use style="stroke:#000000;stroke-width:0.5;" x="555.39" xlink:href="#mf45e3362f6" y="46.5788150342"/>
      </g>
     </g>
    </g>
    <g id="ytick_49">
     <g id="line2d_122">
      <g>
       <use style="stroke:#000000;stroke-width:0.5;" x="56.7225" xlink:href="#m2b4e9fdfb4" y="39.9078356821"/>
      </g>
     </g>
     <g id="line2d_123">
      <g>
       <use style="stroke:#000000;stroke-width:0.5;" x="555.39" xlink:href="#mf45e3362f6" y="39.9078356821"/>
      </g>
     </g>
    </g>
    <g id="ytick_50">
     <g id="line2d_124">
      <g>
       <use style="stroke:#000000;stroke-width:0.5;" x="56.7225" xlink:href="#m2b4e9fdfb4" y="34.0236148749"/>
      </g>
     </g>
     <g id="line2d_125">
      <g>
       <use style="stroke:#000000;stroke-width:0.5;" x="555.39" xlink:href="#mf45e3362f6" y="34.0236148749"/>
      </g>
     </g>
    </g>
    <g id="ytick_51">
     <g id="line2d_126">
      <g>
       <use style="stroke:#000000;stroke-width:0.5;" x="56.7225" xlink:href="#m2b4e9fdfb4" y="28.76"/>
      </g>
     </g>
     <g id="line2d_127">
      <g>
       <use style="stroke:#000000;stroke-width:0.5;" x="555.39" xlink:href="#mf45e3362f6" y="28.76"/>
      </g>
     </g>
    </g>
    <g id="text_14">
     <!-- Runtime (s) -->
     <defs>
      <path d="M 8.015625 75.875 
L 15.828125 75.875 
Q 23.140625 64.359375 26.78125 53.3125 
Q 30.421875 42.28125 30.421875 31.390625 
Q 30.421875 20.453125 26.78125 9.375 
Q 23.140625 -1.703125 15.828125 -13.1875 
L 8.015625 -13.1875 
Q 14.5 -2 17.703125 9.0625 
Q 20.90625 20.125 20.90625 31.390625 
Q 20.90625 42.671875 17.703125 53.65625 
Q 14.5 64.65625 8.015625 75.875 
" id="BitstreamVeraSans-Roman-29"/>
      <path d="M 31 75.875 
Q 24.46875 64.65625 21.28125 53.65625 
Q 18.109375 42.671875 18.109375 31.390625 
Q 18.109375 20.125 21.3125 9.0625 
Q 24.515625 -2 31 -13.1875 
L 23.1875 -13.1875 
Q 15.875 -1.703125 12.234375 9.375 
Q 8.59375 20.453125 8.59375 31.390625 
Q 8.59375 42.28125 12.203125 53.3125 
Q 15.828125 64.359375 23.1875 75.875 
z
" id="BitstreamVeraSans-Roman-28"/>
      <path d="M 54.890625 33.015625 
L 54.890625 0 
L 45.90625 0 
L 45.90625 32.71875 
Q 45.90625 40.484375 42.875 44.328125 
Q 39.84375 48.1875 33.796875 48.1875 
Q 26.515625 48.1875 22.3125 43.546875 
Q 18.109375 38.921875 18.109375 30.90625 
L 18.109375 0 
L 9.078125 0 
L 9.078125 54.6875 
L 18.109375 54.6875 
L 18.109375 46.1875 
Q 21.34375 51.125 25.703125 53.5625 
Q 30.078125 56 35.796875 56 
Q 45.21875 56 50.046875 50.171875 
Q 54.890625 44.34375 54.890625 33.015625 
" id="BitstreamVeraSans-Roman-6e"/>
      <path d="M 44.390625 34.1875 
Q 47.5625 33.109375 50.5625 29.59375 
Q 53.5625 26.078125 56.59375 19.921875 
L 66.609375 0 
L 56 0 
L 46.6875 18.703125 
Q 43.0625 26.03125 39.671875 28.421875 
Q 36.28125 30.8125 30.421875 30.8125 
L 19.671875 30.8125 
L 19.671875 0 
L 9.8125 0 
L 9.8125 72.90625 
L 32.078125 72.90625 
Q 44.578125 72.90625 50.734375 67.671875 
Q 56.890625 62.453125 56.890625 51.90625 
Q 56.890625 45.015625 53.6875 40.46875 
Q 50.484375 35.9375 44.390625 34.1875 
M 19.671875 64.796875 
L 19.671875 38.921875 
L 32.078125 38.921875 
Q 39.203125 38.921875 42.84375 42.21875 
Q 46.484375 45.515625 46.484375 51.90625 
Q 46.484375 58.296875 42.84375 61.546875 
Q 39.203125 64.796875 32.078125 64.796875 
z
" id="BitstreamVeraSans-Roman-52"/>
      <path d="M 9.421875 54.6875 
L 18.40625 54.6875 
L 18.40625 0 
L 9.421875 0 
z
M 9.421875 75.984375 
L 18.40625 75.984375 
L 18.40625 64.59375 
L 9.421875 64.59375 
z
" id="BitstreamVeraSans-Roman-69"/>
     </defs>
     <g transform="translate(22.906875 242.74)rotate(-90.0)scale(0.12 -0.12)">
      <use xlink:href="#BitstreamVeraSans-Roman-52"/>
      <use x="69.419921875" xlink:href="#BitstreamVeraSans-Roman-75"/>
      <use x="132.798828125" xlink:href="#BitstreamVeraSans-Roman-6e"/>
      <use x="196.177734375" xlink:href="#BitstreamVeraSans-Roman-74"/>
      <use x="235.38671875" xlink:href="#BitstreamVeraSans-Roman-69"/>
      <use x="263.169921875" xlink:href="#BitstreamVeraSans-Roman-6d"/>
      <use x="360.58203125" xlink:href="#BitstreamVeraSans-Roman-65"/>
      <use x="422.10546875" xlink:href="#BitstreamVeraSans-Roman-20"/>
      <use x="453.892578125" xlink:href="#BitstreamVeraSans-Roman-28"/>
      <use x="492.90625" xlink:href="#BitstreamVeraSans-Roman-73"/>
      <use x="545.005859375" xlink:href="#BitstreamVeraSans-Roman-29"/>
     </g>
    </g>
   </g>
   <g id="text_15">
    <!-- Optimisation on SV-COMP -->
    <defs>
     <path d="M 53.515625 70.515625 
L 53.515625 60.890625 
Q 47.90625 63.578125 42.921875 64.890625 
Q 37.9375 66.21875 33.296875 66.21875 
Q 25.25 66.21875 20.875 63.09375 
Q 16.5 59.96875 16.5 54.203125 
Q 16.5 49.359375 19.40625 46.890625 
Q 22.3125 44.4375 30.421875 42.921875 
L 36.375 41.703125 
Q 47.40625 39.59375 52.65625 34.296875 
Q 57.90625 29 57.90625 20.125 
Q 57.90625 9.515625 50.796875 4.046875 
Q 43.703125 -1.421875 29.984375 -1.421875 
Q 24.8125 -1.421875 18.96875 -0.25 
Q 13.140625 0.921875 6.890625 3.21875 
L 6.890625 13.375 
Q 12.890625 10.015625 18.65625 8.296875 
Q 24.421875 6.59375 29.984375 6.59375 
Q 38.421875 6.59375 43.015625 9.90625 
Q 47.609375 13.234375 47.609375 19.390625 
Q 47.609375 24.75 44.3125 27.78125 
Q 41.015625 30.8125 33.5 32.328125 
L 27.484375 33.5 
Q 16.453125 35.6875 11.515625 40.375 
Q 6.59375 45.0625 6.59375 53.421875 
Q 6.59375 63.09375 13.40625 68.65625 
Q 20.21875 74.21875 32.171875 74.21875 
Q 37.3125 74.21875 42.625 73.28125 
Q 47.953125 72.359375 53.515625 70.515625 
" id="BitstreamVeraSans-Roman-53"/>
     <path d="M 18.109375 8.203125 
L 18.109375 -20.796875 
L 9.078125 -20.796875 
L 9.078125 54.6875 
L 18.109375 54.6875 
L 18.109375 46.390625 
Q 20.953125 51.265625 25.265625 53.625 
Q 29.59375 56 35.59375 56 
Q 45.5625 56 51.78125 48.09375 
Q 58.015625 40.1875 58.015625 27.296875 
Q 58.015625 14.40625 51.78125 6.484375 
Q 45.5625 -1.421875 35.59375 -1.421875 
Q 29.59375 -1.421875 25.265625 0.953125 
Q 20.953125 3.328125 18.109375 8.203125 
M 48.6875 27.296875 
Q 48.6875 37.203125 44.609375 42.84375 
Q 40.53125 48.484375 33.40625 48.484375 
Q 26.265625 48.484375 22.1875 42.84375 
Q 18.109375 37.203125 18.109375 27.296875 
Q 18.109375 17.390625 22.1875 11.75 
Q 26.265625 6.109375 33.40625 6.109375 
Q 40.53125 6.109375 44.609375 11.75 
Q 48.6875 17.390625 48.6875 27.296875 
" id="BitstreamVeraSans-Roman-70"/>
     <path d="M 4.890625 31.390625 
L 31.203125 31.390625 
L 31.203125 23.390625 
L 4.890625 23.390625 
z
" id="BitstreamVeraSans-Roman-2d"/>
     <path d="M 28.609375 0 
L 0.78125 72.90625 
L 11.078125 72.90625 
L 34.1875 11.53125 
L 57.328125 72.90625 
L 67.578125 72.90625 
L 39.796875 0 
z
" id="BitstreamVeraSans-Roman-56"/>
     <path d="M 64.40625 67.28125 
L 64.40625 56.890625 
Q 59.421875 61.53125 53.78125 63.8125 
Q 48.140625 66.109375 41.796875 66.109375 
Q 29.296875 66.109375 22.65625 58.46875 
Q 16.015625 50.828125 16.015625 36.375 
Q 16.015625 21.96875 22.65625 14.328125 
Q 29.296875 6.6875 41.796875 6.6875 
Q 48.140625 6.6875 53.78125 8.984375 
Q 59.421875 11.28125 64.40625 15.921875 
L 64.40625 5.609375 
Q 59.234375 2.09375 53.4375 0.328125 
Q 47.65625 -1.421875 41.21875 -1.421875 
Q 24.65625 -1.421875 15.125 8.703125 
Q 5.609375 18.84375 5.609375 36.375 
Q 5.609375 53.953125 15.125 64.078125 
Q 24.65625 74.21875 41.21875 74.21875 
Q 47.75 74.21875 53.53125 72.484375 
Q 59.328125 70.75 64.40625 67.28125 
" id="BitstreamVeraSans-Roman-43"/>
     <path d="M 39.40625 66.21875 
Q 28.65625 66.21875 22.328125 58.203125 
Q 16.015625 50.203125 16.015625 36.375 
Q 16.015625 22.609375 22.328125 14.59375 
Q 28.65625 6.59375 39.40625 6.59375 
Q 50.140625 6.59375 56.421875 14.59375 
Q 62.703125 22.609375 62.703125 36.375 
Q 62.703125 50.203125 56.421875 58.203125 
Q 50.140625 66.21875 39.40625 66.21875 
M 39.40625 74.21875 
Q 54.734375 74.21875 63.90625 63.9375 
Q 73.09375 53.65625 73.09375 36.375 
Q 73.09375 19.140625 63.90625 8.859375 
Q 54.734375 -1.421875 39.40625 -1.421875 
Q 24.03125 -1.421875 14.8125 8.828125 
Q 5.609375 19.09375 5.609375 36.375 
Q 5.609375 53.65625 14.8125 63.9375 
Q 24.03125 74.21875 39.40625 74.21875 
" id="BitstreamVeraSans-Roman-4f"/>
     <path d="M 19.671875 64.796875 
L 19.671875 37.40625 
L 32.078125 37.40625 
Q 38.96875 37.40625 42.71875 40.96875 
Q 46.484375 44.53125 46.484375 51.125 
Q 46.484375 57.671875 42.71875 61.234375 
Q 38.96875 64.796875 32.078125 64.796875 
z
M 9.8125 72.90625 
L 32.078125 72.90625 
Q 44.34375 72.90625 50.609375 67.359375 
Q 56.890625 61.8125 56.890625 51.125 
Q 56.890625 40.328125 50.609375 34.8125 
Q 44.34375 29.296875 32.078125 29.296875 
L 19.671875 29.296875 
L 19.671875 0 
L 9.8125 0 
z
" id="BitstreamVeraSans-Roman-50"/>
     <path d="M 9.8125 72.90625 
L 24.515625 72.90625 
L 43.109375 23.296875 
L 61.8125 72.90625 
L 76.515625 72.90625 
L 76.515625 0 
L 66.890625 0 
L 66.890625 64.015625 
L 48.09375 14.015625 
L 38.1875 14.015625 
L 19.390625 64.015625 
L 19.390625 0 
L 9.8125 0 
z
" id="BitstreamVeraSans-Roman-4d"/>
    </defs>
    <g transform="translate(213.14475 23.76)scale(0.144 -0.144)">
     <use xlink:href="#BitstreamVeraSans-Roman-4f"/>
     <use x="78.7109375" xlink:href="#BitstreamVeraSans-Roman-70"/>
     <use x="142.1875" xlink:href="#BitstreamVeraSans-Roman-74"/>
     <use x="181.396484375" xlink:href="#BitstreamVeraSans-Roman-69"/>
     <use x="209.1796875" xlink:href="#BitstreamVeraSans-Roman-6d"/>
     <use x="306.591796875" xlink:href="#BitstreamVeraSans-Roman-69"/>
     <use x="334.375" xlink:href="#BitstreamVeraSans-Roman-73"/>
     <use x="386.474609375" xlink:href="#BitstreamVeraSans-Roman-61"/>
     <use x="447.75390625" xlink:href="#BitstreamVeraSans-Roman-74"/>
     <use x="486.962890625" xlink:href="#BitstreamVeraSans-Roman-69"/>
     <use x="514.74609375" xlink:href="#BitstreamVeraSans-Roman-6f"/>
     <use x="575.927734375" xlink:href="#BitstreamVeraSans-Roman-6e"/>
     <use x="639.306640625" xlink:href="#BitstreamVeraSans-Roman-20"/>
     <use x="671.09375" xlink:href="#BitstreamVeraSans-Roman-6f"/>
     <use x="732.275390625" xlink:href="#BitstreamVeraSans-Roman-6e"/>
     <use x="795.654296875" xlink:href="#BitstreamVeraSans-Roman-20"/>
     <use x="827.44140625" xlink:href="#BitstreamVeraSans-Roman-53"/>
     <use x="890.91796875" xlink:href="#BitstreamVeraSans-Roman-56"/>
     <use x="959.248046875" xlink:href="#BitstreamVeraSans-Roman-2d"/>
     <use x="995.33203125" xlink:href="#BitstreamVeraSans-Roman-43"/>
     <use x="1065.15625" xlink:href="#BitstreamVeraSans-Roman-4f"/>
     <use x="1143.8671875" xlink:href="#BitstreamVeraSans-Roman-4d"/>
     <use x="1230.146484375" xlink:href="#BitstreamVeraSans-Roman-50"/>
    </g>
   </g>
   <g id="legend_1">
    <g id="patch_7">
     <path d="M 63.9225 167.099 
L 403.52175 167.099 
L 403.52175 35.96 
L 63.9225 35.96 
z
" style="fill:#ffffff;stroke:#000000;stroke-linejoin:miter;"/>
    </g>
    <g id="line2d_128">
     <path d="M 74.0025 47.62175 
L 94.1625 47.62175 
" style="fill:none;stroke:#000000;stroke-linecap:square;"/>
    </g>
    <g id="line2d_129"/>
    <g id="text_16">
     <!-- Baseline -->
     <defs>
      <path d="M 19.671875 34.8125 
L 19.671875 8.109375 
L 35.5 8.109375 
Q 43.453125 8.109375 47.28125 11.40625 
Q 51.125 14.703125 51.125 21.484375 
Q 51.125 28.328125 47.28125 31.5625 
Q 43.453125 34.8125 35.5 34.8125 
z
M 19.671875 64.796875 
L 19.671875 42.828125 
L 34.28125 42.828125 
Q 41.5 42.828125 45.03125 45.53125 
Q 48.578125 48.25 48.578125 53.8125 
Q 48.578125 59.328125 45.03125 62.0625 
Q 41.5 64.796875 34.28125 64.796875 
z
M 9.8125 72.90625 
L 35.015625 72.90625 
Q 46.296875 72.90625 52.390625 68.21875 
Q 58.5 63.53125 58.5 54.890625 
Q 58.5 48.1875 55.375 44.234375 
Q 52.25 40.28125 46.1875 39.3125 
Q 53.46875 37.75 57.5 32.78125 
Q 61.53125 27.828125 61.53125 20.40625 
Q 61.53125 10.640625 54.890625 5.3125 
Q 48.25 0 35.984375 0 
L 9.8125 0 
z
" id="BitstreamVeraSans-Roman-42"/>
     </defs>
     <g transform="translate(110.0025 52.66175)scale(0.144 -0.144)">
      <use xlink:href="#BitstreamVeraSans-Roman-42"/>
      <use x="68.603515625" xlink:href="#BitstreamVeraSans-Roman-61"/>
      <use x="129.8828125" xlink:href="#BitstreamVeraSans-Roman-73"/>
      <use x="181.982421875" xlink:href="#BitstreamVeraSans-Roman-65"/>
      <use x="243.505859375" xlink:href="#BitstreamVeraSans-Roman-6c"/>
      <use x="271.2890625" xlink:href="#BitstreamVeraSans-Roman-69"/>
      <use x="299.072265625" xlink:href="#BitstreamVeraSans-Roman-6e"/>
      <use x="362.451171875" xlink:href="#BitstreamVeraSans-Roman-65"/>
     </g>
    </g>
    <g id="line2d_130">
     <path d="M 74.0025 68.75825 
L 94.1625 68.75825 
" style="fill:none;stroke:#ff0000;stroke-linecap:square;"/>
    </g>
    <g id="line2d_131"/>
    <g id="text_17">
     <!-- GlobalDDE -->
     <defs>
      <path d="M 9.8125 72.90625 
L 55.90625 72.90625 
L 55.90625 64.59375 
L 19.671875 64.59375 
L 19.671875 43.015625 
L 54.390625 43.015625 
L 54.390625 34.71875 
L 19.671875 34.71875 
L 19.671875 8.296875 
L 56.78125 8.296875 
L 56.78125 0 
L 9.8125 0 
z
" id="BitstreamVeraSans-Roman-45"/>
      <path d="M 19.671875 64.796875 
L 19.671875 8.109375 
L 31.59375 8.109375 
Q 46.6875 8.109375 53.6875 14.9375 
Q 60.6875 21.78125 60.6875 36.53125 
Q 60.6875 51.171875 53.6875 57.984375 
Q 46.6875 64.796875 31.59375 64.796875 
z
M 9.8125 72.90625 
L 30.078125 72.90625 
Q 51.265625 72.90625 61.171875 64.09375 
Q 71.09375 55.28125 71.09375 36.53125 
Q 71.09375 17.671875 61.125 8.828125 
Q 51.171875 0 30.078125 0 
L 9.8125 0 
z
" id="BitstreamVeraSans-Roman-44"/>
      <path d="M 48.6875 27.296875 
Q 48.6875 37.203125 44.609375 42.84375 
Q 40.53125 48.484375 33.40625 48.484375 
Q 26.265625 48.484375 22.1875 42.84375 
Q 18.109375 37.203125 18.109375 27.296875 
Q 18.109375 17.390625 22.1875 11.75 
Q 26.265625 6.109375 33.40625 6.109375 
Q 40.53125 6.109375 44.609375 11.75 
Q 48.6875 17.390625 48.6875 27.296875 
M 18.109375 46.390625 
Q 20.953125 51.265625 25.265625 53.625 
Q 29.59375 56 35.59375 56 
Q 45.5625 56 51.78125 48.09375 
Q 58.015625 40.1875 58.015625 27.296875 
Q 58.015625 14.40625 51.78125 6.484375 
Q 45.5625 -1.421875 35.59375 -1.421875 
Q 29.59375 -1.421875 25.265625 0.953125 
Q 20.953125 3.328125 18.109375 8.203125 
L 18.109375 0 
L 9.078125 0 
L 9.078125 75.984375 
L 18.109375 75.984375 
z
" id="BitstreamVeraSans-Roman-62"/>
      <path d="M 59.515625 10.40625 
L 59.515625 29.984375 
L 43.40625 29.984375 
L 43.40625 38.09375 
L 69.28125 38.09375 
L 69.28125 6.78125 
Q 63.578125 2.734375 56.6875 0.65625 
Q 49.8125 -1.421875 42 -1.421875 
Q 24.90625 -1.421875 15.25 8.5625 
Q 5.609375 18.5625 5.609375 36.375 
Q 5.609375 54.25 15.25 64.234375 
Q 24.90625 74.21875 42 74.21875 
Q 49.125 74.21875 55.546875 72.453125 
Q 61.96875 70.703125 67.390625 67.28125 
L 67.390625 56.78125 
Q 61.921875 61.421875 55.765625 63.765625 
Q 49.609375 66.109375 42.828125 66.109375 
Q 29.4375 66.109375 22.71875 58.640625 
Q 16.015625 51.171875 16.015625 36.375 
Q 16.015625 21.625 22.71875 14.15625 
Q 29.4375 6.6875 42.828125 6.6875 
Q 48.046875 6.6875 52.140625 7.59375 
Q 56.25 8.5 59.515625 10.40625 
" id="BitstreamVeraSans-Roman-47"/>
     </defs>
     <g transform="translate(110.0025 73.79825)scale(0.144 -0.144)">
      <use xlink:href="#BitstreamVeraSans-Roman-47"/>
      <use x="77.490234375" xlink:href="#BitstreamVeraSans-Roman-6c"/>
      <use x="105.2734375" xlink:href="#BitstreamVeraSans-Roman-6f"/>
      <use x="166.455078125" xlink:href="#BitstreamVeraSans-Roman-62"/>
      <use x="229.931640625" xlink:href="#BitstreamVeraSans-Roman-61"/>
      <use x="291.2109375" xlink:href="#BitstreamVeraSans-Roman-6c"/>
      <use x="318.994140625" xlink:href="#BitstreamVeraSans-Roman-44"/>
      <use x="395.99609375" xlink:href="#BitstreamVeraSans-Roman-44"/>
      <use x="472.998046875" xlink:href="#BitstreamVeraSans-Roman-45"/>
     </g>
    </g>
    <g id="line2d_132">
     <path d="M 74.0025 89.89475 
L 94.1625 89.89475 
" style="fill:none;stroke:#bfbf00;stroke-linecap:square;"/>
    </g>
    <g id="line2d_133"/>
    <g id="text_18">
     <!-- GotoAssumeLA -->
     <defs>
      <path d="M 9.8125 72.90625 
L 19.671875 72.90625 
L 19.671875 8.296875 
L 55.171875 8.296875 
L 55.171875 0 
L 9.8125 0 
z
" id="BitstreamVeraSans-Roman-4c"/>
     </defs>
     <g transform="translate(110.0025 94.93475)scale(0.144 -0.144)">
      <use xlink:href="#BitstreamVeraSans-Roman-47"/>
      <use x="77.490234375" xlink:href="#BitstreamVeraSans-Roman-6f"/>
      <use x="138.671875" xlink:href="#BitstreamVeraSans-Roman-74"/>
      <use x="177.880859375" xlink:href="#BitstreamVeraSans-Roman-6f"/>
      <use x="239.0625" xlink:href="#BitstreamVeraSans-Roman-41"/>
      <use x="307.470703125" xlink:href="#BitstreamVeraSans-Roman-73"/>
      <use x="359.5703125" xlink:href="#BitstreamVeraSans-Roman-73"/>
      <use x="411.669921875" xlink:href="#BitstreamVeraSans-Roman-75"/>
      <use x="475.048828125" xlink:href="#BitstreamVeraSans-Roman-6d"/>
      <use x="572.4609375" xlink:href="#BitstreamVeraSans-Roman-65"/>
      <use x="633.984375" xlink:href="#BitstreamVeraSans-Roman-4c"/>
      <use x="689.728515625" xlink:href="#BitstreamVeraSans-Roman-41"/>
     </g>
    </g>
    <g id="line2d_134">
     <path d="M 74.0025 111.03125 
L 94.1625 111.03125 
" style="fill:none;stroke:#008000;stroke-linecap:square;"/>
    </g>
    <g id="line2d_135"/>
    <g id="text_19">
     <!-- ExprSimpl -->
     <defs>
      <path d="M 54.890625 54.6875 
L 35.109375 28.078125 
L 55.90625 0 
L 45.3125 0 
L 29.390625 21.484375 
L 13.484375 0 
L 2.875 0 
L 24.125 28.609375 
L 4.6875 54.6875 
L 15.28125 54.6875 
L 29.78125 35.203125 
L 44.28125 54.6875 
z
" id="BitstreamVeraSans-Roman-78"/>
     </defs>
     <g transform="translate(110.0025 116.07125)scale(0.144 -0.144)">
      <use xlink:href="#BitstreamVeraSans-Roman-45"/>
      <use x="63.18359375" xlink:href="#BitstreamVeraSans-Roman-78"/>
      <use x="122.36328125" xlink:href="#BitstreamVeraSans-Roman-70"/>
      <use x="185.83984375" xlink:href="#BitstreamVeraSans-Roman-72"/>
      <use x="226.953125" xlink:href="#BitstreamVeraSans-Roman-53"/>
      <use x="290.4296875" xlink:href="#BitstreamVeraSans-Roman-69"/>
      <use x="318.212890625" xlink:href="#BitstreamVeraSans-Roman-6d"/>
      <use x="415.625" xlink:href="#BitstreamVeraSans-Roman-70"/>
      <use x="479.1015625" xlink:href="#BitstreamVeraSans-Roman-6c"/>
     </g>
    </g>
    <g id="line2d_136">
     <path d="M 74.0025 132.16775 
L 94.1625 132.16775 
" style="fill:none;stroke:#00bfbf;stroke-linecap:square;"/>
    </g>
    <g id="line2d_137"/>
    <g id="text_20">
     <!-- ConstrIndep -->
     <defs>
      <path d="M 9.8125 72.90625 
L 19.671875 72.90625 
L 19.671875 0 
L 9.8125 0 
z
" id="BitstreamVeraSans-Roman-49"/>
     </defs>
     <g transform="translate(110.0025 137.20775)scale(0.144 -0.144)">
      <use xlink:href="#BitstreamVeraSans-Roman-43"/>
      <use x="69.82421875" xlink:href="#BitstreamVeraSans-Roman-6f"/>
      <use x="131.005859375" xlink:href="#BitstreamVeraSans-Roman-6e"/>
      <use x="194.384765625" xlink:href="#BitstreamVeraSans-Roman-73"/>
      <use x="246.484375" xlink:href="#BitstreamVeraSans-Roman-74"/>
      <use x="285.693359375" xlink:href="#BitstreamVeraSans-Roman-72"/>
      <use x="326.806640625" xlink:href="#BitstreamVeraSans-Roman-49"/>
      <use x="356.298828125" xlink:href="#BitstreamVeraSans-Roman-6e"/>
      <use x="419.677734375" xlink:href="#BitstreamVeraSans-Roman-64"/>
      <use x="483.154296875" xlink:href="#BitstreamVeraSans-Roman-65"/>
      <use x="544.677734375" xlink:href="#BitstreamVeraSans-Roman-70"/>
     </g>
    </g>
    <g id="line2d_138">
     <path d="M 74.0025 153.30425 
L 94.1625 153.30425 
" style="fill:none;stroke:#ff00ff;stroke-linecap:square;"/>
    </g>
    <g id="line2d_139"/>
    <g id="text_21">
     <!-- RemSomeRecur -->
     <g transform="translate(110.0025 158.34425)scale(0.144 -0.144)">
      <use xlink:href="#BitstreamVeraSans-Roman-52"/>
      <use x="69.419921875" xlink:href="#BitstreamVeraSans-Roman-65"/>
      <use x="130.943359375" xlink:href="#BitstreamVeraSans-Roman-6d"/>
      <use x="228.35546875" xlink:href="#BitstreamVeraSans-Roman-53"/>
      <use x="291.83203125" xlink:href="#BitstreamVeraSans-Roman-6f"/>
      <use x="353.013671875" xlink:href="#BitstreamVeraSans-Roman-6d"/>
      <use x="450.42578125" xlink:href="#BitstreamVeraSans-Roman-65"/>
      <use x="511.94921875" xlink:href="#BitstreamVeraSans-Roman-52"/>
      <use x="581.369140625" xlink:href="#BitstreamVeraSans-Roman-65"/>
      <use x="642.892578125" xlink:href="#BitstreamVeraSans-Roman-63"/>
      <use x="697.873046875" xlink:href="#BitstreamVeraSans-Roman-75"/>
      <use x="761.251953125" xlink:href="#BitstreamVeraSans-Roman-72"/>
     </g>
    </g>
    <g id="line2d_140">
     <path d="M 258.66675 47.62175 
L 278.82675 47.62175 
" style="fill:none;stroke:#ff7f50;stroke-linecap:square;"/>
    </g>
    <g id="line2d_141"/>
    <g id="text_22">
     <!-- RemSomeDbg -->
     <defs>
      <path d="M 45.40625 27.984375 
Q 45.40625 37.75 41.375 43.109375 
Q 37.359375 48.484375 30.078125 48.484375 
Q 22.859375 48.484375 18.828125 43.109375 
Q 14.796875 37.75 14.796875 27.984375 
Q 14.796875 18.265625 18.828125 12.890625 
Q 22.859375 7.515625 30.078125 7.515625 
Q 37.359375 7.515625 41.375 12.890625 
Q 45.40625 18.265625 45.40625 27.984375 
M 54.390625 6.78125 
Q 54.390625 -7.171875 48.1875 -13.984375 
Q 42 -20.796875 29.203125 -20.796875 
Q 24.46875 -20.796875 20.265625 -20.09375 
Q 16.0625 -19.390625 12.109375 -17.921875 
L 12.109375 -9.1875 
Q 16.0625 -11.328125 19.921875 -12.34375 
Q 23.78125 -13.375 27.78125 -13.375 
Q 36.625 -13.375 41.015625 -8.765625 
Q 45.40625 -4.15625 45.40625 5.171875 
L 45.40625 9.625 
Q 42.625 4.78125 38.28125 2.390625 
Q 33.9375 0 27.875 0 
Q 17.828125 0 11.671875 7.65625 
Q 5.515625 15.328125 5.515625 27.984375 
Q 5.515625 40.671875 11.671875 48.328125 
Q 17.828125 56 27.875 56 
Q 33.9375 56 38.28125 53.609375 
Q 42.625 51.21875 45.40625 46.390625 
L 45.40625 54.6875 
L 54.390625 54.6875 
z
" id="BitstreamVeraSans-Roman-67"/>
     </defs>
     <g transform="translate(294.66675 52.66175)scale(0.144 -0.144)">
      <use xlink:href="#BitstreamVeraSans-Roman-52"/>
      <use x="69.419921875" xlink:href="#BitstreamVeraSans-Roman-65"/>
      <use x="130.943359375" xlink:href="#BitstreamVeraSans-Roman-6d"/>
      <use x="228.35546875" xlink:href="#BitstreamVeraSans-Roman-53"/>
      <use x="291.83203125" xlink:href="#BitstreamVeraSans-Roman-6f"/>
      <use x="353.013671875" xlink:href="#BitstreamVeraSans-Roman-6d"/>
      <use x="450.42578125" xlink:href="#BitstreamVeraSans-Roman-65"/>
      <use x="511.94921875" xlink:href="#BitstreamVeraSans-Roman-44"/>
      <use x="588.951171875" xlink:href="#BitstreamVeraSans-Roman-62"/>
      <use x="652.427734375" xlink:href="#BitstreamVeraSans-Roman-67"/>
     </g>
    </g>
    <g id="line2d_142">
     <path d="M 258.66675 68.75825 
L 278.82675 68.75825 
" style="fill:none;stroke:#0000ff;stroke-linecap:square;"/>
    </g>
    <g id="line2d_143"/>
    <g id="text_23">
     <!-- MapConstIdx -->
     <g transform="translate(294.66675 73.79825)scale(0.144 -0.144)">
      <use xlink:href="#BitstreamVeraSans-Roman-4d"/>
      <use x="86.279296875" xlink:href="#BitstreamVeraSans-Roman-61"/>
      <use x="147.55859375" xlink:href="#BitstreamVeraSans-Roman-70"/>
      <use x="211.03515625" xlink:href="#BitstreamVeraSans-Roman-43"/>
      <use x="280.859375" xlink:href="#BitstreamVeraSans-Roman-6f"/>
      <use x="342.041015625" xlink:href="#BitstreamVeraSans-Roman-6e"/>
      <use x="405.419921875" xlink:href="#BitstreamVeraSans-Roman-73"/>
      <use x="457.51953125" xlink:href="#BitstreamVeraSans-Roman-74"/>
      <use x="496.728515625" xlink:href="#BitstreamVeraSans-Roman-49"/>
      <use x="526.220703125" xlink:href="#BitstreamVeraSans-Roman-64"/>
      <use x="589.697265625" xlink:href="#BitstreamVeraSans-Roman-78"/>
     </g>
    </g>
    <g id="line2d_144">
     <path d="M 258.66675 89.89475 
L 278.82675 89.89475 
" style="fill:none;stroke:#7fff00;stroke-linecap:square;"/>
    </g>
    <g id="line2d_145"/>
    <g id="text_24">
     <!-- MapSymIdx -->
     <defs>
      <path d="M 32.171875 -5.078125 
Q 28.375 -14.84375 24.75 -17.8125 
Q 21.140625 -20.796875 15.09375 -20.796875 
L 7.90625 -20.796875 
L 7.90625 -13.28125 
L 13.1875 -13.28125 
Q 16.890625 -13.28125 18.9375 -11.515625 
Q 21 -9.765625 23.484375 -3.21875 
L 25.09375 0.875 
L 2.984375 54.6875 
L 12.5 54.6875 
L 29.59375 11.921875 
L 46.6875 54.6875 
L 56.203125 54.6875 
z
" id="BitstreamVeraSans-Roman-79"/>
     </defs>
     <g transform="translate(294.66675 94.93475)scale(0.144 -0.144)">
      <use xlink:href="#BitstreamVeraSans-Roman-4d"/>
      <use x="86.279296875" xlink:href="#BitstreamVeraSans-Roman-61"/>
      <use x="147.55859375" xlink:href="#BitstreamVeraSans-Roman-70"/>
      <use x="211.03515625" xlink:href="#BitstreamVeraSans-Roman-53"/>
      <use x="274.51171875" xlink:href="#BitstreamVeraSans-Roman-79"/>
      <use x="333.69140625" xlink:href="#BitstreamVeraSans-Roman-6d"/>
      <use x="431.103515625" xlink:href="#BitstreamVeraSans-Roman-49"/>
      <use x="460.595703125" xlink:href="#BitstreamVeraSans-Roman-64"/>
      <use x="524.072265625" xlink:href="#BitstreamVeraSans-Roman-78"/>
     </g>
    </g>
    <g id="line2d_146">
     <path d="M 258.66675 111.03125 
L 278.82675 111.03125 
" style="fill:none;stroke:#8b4513;stroke-linecap:square;"/>
    </g>
    <g id="line2d_147"/>
    <g id="text_25">
     <!-- EffcntClone -->
     <defs>
      <path d="M 37.109375 75.984375 
L 37.109375 68.5 
L 28.515625 68.5 
Q 23.6875 68.5 21.796875 66.546875 
Q 19.921875 64.59375 19.921875 59.515625 
L 19.921875 54.6875 
L 34.71875 54.6875 
L 34.71875 47.703125 
L 19.921875 47.703125 
L 19.921875 0 
L 10.890625 0 
L 10.890625 47.703125 
L 2.296875 47.703125 
L 2.296875 54.6875 
L 10.890625 54.6875 
L 10.890625 58.5 
Q 10.890625 67.625 15.140625 71.796875 
Q 19.390625 75.984375 28.609375 75.984375 
z
" id="BitstreamVeraSans-Roman-66"/>
     </defs>
     <g transform="translate(294.66675 116.07125)scale(0.144 -0.144)">
      <use xlink:href="#BitstreamVeraSans-Roman-45"/>
      <use x="63.18359375" xlink:href="#BitstreamVeraSans-Roman-66"/>
      <use x="98.388671875" xlink:href="#BitstreamVeraSans-Roman-66"/>
      <use x="133.59375" xlink:href="#BitstreamVeraSans-Roman-63"/>
      <use x="188.57421875" xlink:href="#BitstreamVeraSans-Roman-6e"/>
      <use x="251.953125" xlink:href="#BitstreamVeraSans-Roman-74"/>
      <use x="291.162109375" xlink:href="#BitstreamVeraSans-Roman-43"/>
      <use x="360.986328125" xlink:href="#BitstreamVeraSans-Roman-6c"/>
      <use x="388.76953125" xlink:href="#BitstreamVeraSans-Roman-6f"/>
      <use x="449.951171875" xlink:href="#BitstreamVeraSans-Roman-6e"/>
      <use x="513.330078125" xlink:href="#BitstreamVeraSans-Roman-65"/>
     </g>
    </g>
    <g id="line2d_148">
     <path d="M 258.66675 132.16775 
L 278.82675 132.16775 
" style="fill:none;stroke:#8b008b;stroke-linecap:square;"/>
    </g>
    <g id="line2d_149"/>
    <g id="text_26">
     <!-- SmplSolv -->
     <defs>
      <path d="M 2.984375 54.6875 
L 12.5 54.6875 
L 29.59375 8.796875 
L 46.6875 54.6875 
L 56.203125 54.6875 
L 35.6875 0 
L 23.484375 0 
z
" id="BitstreamVeraSans-Roman-76"/>
     </defs>
     <g transform="translate(294.66675 137.20775)scale(0.144 -0.144)">
      <use xlink:href="#BitstreamVeraSans-Roman-53"/>
      <use x="63.4765625" xlink:href="#BitstreamVeraSans-Roman-6d"/>
      <use x="160.888671875" xlink:href="#BitstreamVeraSans-Roman-70"/>
      <use x="224.365234375" xlink:href="#BitstreamVeraSans-Roman-6c"/>
      <use x="252.1484375" xlink:href="#BitstreamVeraSans-Roman-53"/>
      <use x="315.625" xlink:href="#BitstreamVeraSans-Roman-6f"/>
      <use x="376.806640625" xlink:href="#BitstreamVeraSans-Roman-6c"/>
      <use x="404.58984375" xlink:href="#BitstreamVeraSans-Roman-76"/>
     </g>
    </g>
   </g>
  </g>
 </g>
 <defs>
  <clipPath id="pa592226cfe">
   <rect height="357.88" width="498.6675" x="56.7225" y="28.76"/>
  </clipPath>
 </defs>
</svg>
